<?xml version="1.0" encoding="UTF-8"?>
<svg id="Layer_2" data-name="Layer 2" xmlns="http://www.w3.org/2000/svg" xmlns:xlink="http://www.w3.org/1999/xlink" viewBox="0 0 322.06 120.53">
  <defs>
    <style>
      .cls-1 {
        fill: #787878;
      }

      .cls-1, .cls-2, .cls-3, .cls-4, .cls-5, .cls-6, .cls-7, .cls-8, .cls-9, .cls-10, .cls-11, .cls-12, .cls-13, .cls-14, .cls-15, .cls-16, .cls-17, .cls-18, .cls-19, .cls-20, .cls-21, .cls-22, .cls-23 {
        stroke-width: 0px;
      }

      .cls-24, .cls-25, .cls-26, .cls-27, .cls-28, .cls-29, .cls-30, .cls-31, .cls-32, .cls-33, .cls-34, .cls-35, .cls-36, .cls-37, .cls-38 {
        stroke-miterlimit: 10;
      }

      .cls-24, .cls-25, .cls-26, .cls-27, .cls-29, .cls-30, .cls-32, .cls-33, .cls-34, .cls-35, .cls-36, .cls-37 {
        stroke-width: .75px;
      }

      .cls-24, .cls-25, .cls-27, .cls-28, .cls-30, .cls-33, .cls-34 {
        stroke: #0a3351;
      }

      .cls-24, .cls-29 {
        fill: #1172ba;
      }

      .cls-25 {
        fill: #ffde17;
      }

      .cls-26, .cls-29, .cls-32, .cls-35, .cls-36, .cls-37 {
        stroke: #231f20;
      }

      .cls-26, .cls-30 {
        fill: #fbb03c;
      }

      .cls-27 {
        fill: #24b574;
      }

      .cls-2, .cls-39, .cls-40 {
        fill: #010101;
      }

      .cls-3 {
        fill: #787978;
      }

      .cls-28 {
        fill: #939598;
        stroke-width: .76px;
      }

      .cls-4 {
        fill: #f89921;
      }

      .cls-5 {
        fill: url(#radial-gradient);
      }

      .cls-6 {
        fill: #787979;
      }

      .cls-7 {
        fill: #767676;
      }

      .cls-8 {
        fill: #767776;
      }

      .cls-9 {
        fill: #767878;
      }

      .cls-39 {
        font-family: Inter-Regular, Inter;
        font-size: 9px;
        font-variation-settings: 'opsz' 14, 'wght' 400;
      }

      .cls-31 {
        stroke: #010101;
        stroke-width: .45px;
      }

      .cls-31, .cls-38 {
        fill: none;
      }

      .cls-10 {
        fill: #757777;
      }

      .cls-11 {
        fill: #797a7a;
      }

      .cls-12 {
        fill: #7a7a7a;
      }

      .cls-41 {
        letter-spacing: 0em;
      }

      .cls-40 {
        font-family: Inter-Medium, Inter;
        font-size: 6px;
        font-variation-settings: 'opsz' 14, 'wght' 500;
        font-weight: 500;
      }

      .cls-32, .cls-33 {
        fill: #804580;
      }

      .cls-13 {
        fill: #231f20;
      }

      .cls-14 {
        fill: #757675;
      }

      .cls-34 {
        fill: #ef4136;
      }

      .cls-35 {
        fill: #eff0a3;
      }

      .cls-15, .cls-37 {
        fill: #00a79d;
      }

      .cls-16 {
        fill: #545555;
      }

      .cls-17 {
        fill: #7a7b7a;
      }

      .cls-18 {
        fill: #797a79;
      }

      .cls-19 {
        fill: #535455;
      }

      .cls-36 {
        fill: #dc1961;
      }

      .cls-20 {
        fill: #797979;
      }

      .cls-42 {
        letter-spacing: -.02em;
      }

      .cls-38 {
        stroke: #00a79d;
        stroke-dasharray: 0 0 6.82 6.82;
        stroke-width: 1.75px;
      }

      .cls-21 {
        fill: #797978;
      }

      .cls-22 {
        fill: #777;
      }

      .cls-43 {
        letter-spacing: 0em;
      }

      .cls-23 {
        fill: #747474;
      }
    </style>
    <radialGradient id="radial-gradient" cx="278.5" cy="50.82" fx="278.5" fy="50.82" r="32.56" gradientUnits="userSpaceOnUse">
      <stop offset="0" stop-color="#00a79d"/>
      <stop offset=".09" stop-color="rgba(0, 167, 157, .87)" stop-opacity=".87"/>
      <stop offset=".27" stop-color="rgba(0, 167, 157, .66)" stop-opacity=".66"/>
      <stop offset=".44" stop-color="rgba(0, 167, 157, .5)" stop-opacity=".5"/>
      <stop offset=".62" stop-color="rgba(0, 167, 157, .39)" stop-opacity=".39"/>
      <stop offset=".8" stop-color="rgba(0, 167, 157, .32)" stop-opacity=".32"/>
      <stop offset="1" stop-color="#00a79d" stop-opacity=".3"/>
    </radialGradient>
  </defs>
  <g id="Layer_1-2" data-name="Layer 1">
    <g>
      <line class="cls-31" x1="117.64" y1="28.83" x2="125.86" y2="26.21"/>
      <line class="cls-31" x1="117.15" y1="15.94" x2="130.1" y2="15.94"/>
      <circle class="cls-36" cx="132.4" cy="16.32" r="7.37"/>
      <g>
        <path class="cls-19" d="M135.12,113.9c0,.06-.02.12,0,.18.15.9,1.32,1.96-.05,2.65-1.51.76-1.86-.75-2.45-1.64-5.19-7.86-10.59-15.6-14.75-24.1-3.18-6.51-5.42-13.3-5.3-20.63.12-7.52,1.69-14.8,4.19-21.89,2.72-7.74,6.46-15.01,10.06-22.35.39-.79.87-1.58,1.89-1.21.82.3,1.19.98.71,1.88.27.55-.1.95-.33,1.38-.55.88-1.03,1.79-1.49,2.72-.17.36-.31.74-.48,1.1-.52.94-.94,1.93-1.41,2.89-.13.3-.25.59-.39.88-.5.89-.99,1.78-1.46,2.69-.35.62-.58,1.28-.82,1.94-.29.74-.57,1.49-.95,2.19-.35.62-.59,1.29-.83,1.95-.29.74-.58,1.48-.92,2.19-.24.5-.35,1.05-.53,1.57-.32.83-.65,1.65-.94,2.49-.26.6-.42,1.23-.54,1.88-.3,1.32-.68,2.61-1.01,3.92-.1.41-.16.83-.23,1.25-.32,1.07-.47,2.18-.77,3.26-.19.49-.15,1.02-.21,1.53-.13.97-.29,1.94-.47,2.91-.23.72-.03,1.46-.1,2.18-.19,1.12.04,2.24-.06,3.36.33.18-.93.56.1.7.45.06.43.47.25.82-.63,1.18-.12,2.41-.11,3.61.06.53.19,1.05.37,1.55.42,1.11.68,2.26,1.02,3.39.2.59.24,1.23.54,1.79.47,1.14.84,2.31,1.35,3.42.19.47.29.98.55,1.43.49.97.82,2.02,1.36,2.97.17.37.35.75.56,1.1.61.97,1.05,2.03,1.67,3,.25.42.51.83.75,1.26.38.89.9,1.69,1.41,2.51.24.41.49.82.76,1.21.45.75.92,1.48,1.38,2.22.24.41.49.81.76,1.2.45.75.92,1.48,1.38,2.22.36.61.71,1.21,1.17,1.75.53.68.99,1.41,1.56,2.06.24.32.44.66.65.99.56.94,1.13,1.87,1.84,2.71.19.26.33.55.34.88Z"/>
        <path class="cls-16" d="M125.76,61.25c.23,1.88,1.59,3.23,2.32,4.88-.32,5.43.1,10.72,2.45,15.75.99,2.12,2.21,4.08,3.5,6.02,4.3,6.45,8.6,12.9,12.4,19.67.48.86,1.43,1.83.11,2.59-1.38.8-1.86-.38-2.27-1.43-.46-.35-.87-.75-1.1-1.3-.41-.78-.91-1.51-1.37-2.27-.24-.41-.49-.81-.76-1.21-.45-.75-.92-1.48-1.38-2.22-.24-.41-.49-.81-.76-1.2-.45-.75-.92-1.48-1.38-2.22-.24-.41-.49-.81-.76-1.2-.53-.87-1.04-1.76-1.67-2.57-.29-.37-.57-.76-.83-1.15-.48-.81-.99-1.6-1.6-2.31-.24-.32-.44-.66-.65-.99-.49-.81-.99-1.62-1.51-2.41-.18-.27-.34-.54-.52-.81-.44-.78-.99-1.5-1.34-2.33-.17-.47-.35-.93-.6-1.36-.4-.76-.77-1.54-.97-2.39-.1-.43-.28-.83-.42-1.24-.31-.95-.69-1.88-.99-2.83-.1-.37-.17-.75-.19-1.14-.15-1.09-.25-2.18-.32-3.28-.08-.39-.09-.78-.1-1.18-.1-.96.11-1.92.09-2.88-.02-.38-.05-.76-.01-1.14.13-1.01.21-2.03.31-3.05-.02-.48-.08-.95-.09-1.43-.02-.51-.02-1.01.41-1.38Z"/>
        <path class="cls-19" d="M130.65,55.33c-1.26.05-1.96,1.36-3.21,1.43-.34-.47-.13-.94-.03-1.41.14-.37.35-.71.51-1.08.32-.72.57-1.46.95-2.15.34-.61.59-1.26.75-1.95.21-.78.64-1.45,1-2.16.28-.48.45-1,.68-1.5.51-.88.88-1.83,1.35-2.73.16-.35.3-.72.47-1.07.5-.88.88-1.82,1.34-2.72.16-.35.3-.72.47-1.07.47-.89,1.02-1.74,1.36-2.69.14-.36.28-.73.44-1.08.42-.75.82-1.51,1.22-2.27.14-.39.62-.47.77-.85.24-.34.52-.66.71-1.02.44-.82,1.07-1.14,1.91-.69.93.49.75,1.22.31,1.97-3.16,5.48-5.67,11.29-8.48,16.96-.97,1.97-1.7,4.06-2.54,6.09Z"/>
        <path class="cls-1" d="M143.48,107.28c.26.48.52.97.79,1.45-2.17.79-3.95,2.26-5.93,3.39-1.07.61-2.01,1.45-3.22,1.78-.42-.14-.51-.47-.54-.86-.05-.48.22-.81.57-1.04,2.44-1.61,4.88-3.22,7.46-4.6.27-.14.58-.13.88-.12Z"/>
        <path class="cls-10" d="M138.73,32.01c.02.45-.14.78-.58.95-.36.38-.78.25-1.15.06-2.63-1.38-5.31-2.69-7.81-4.32-.26-.17-.44-.39-.52-.7.24-.41.48-.81.72-1.22,3.11,1.74,6.22,3.49,9.33,5.23Z"/>
        <path class="cls-22" d="M139.98,101.53c-2.84,1.58-5.69,3.13-8.51,4.75-.43.25-1.25.31-1.07,1.18-.39-.59-.78-1.18-1.17-1.77,2.84-1.5,5.68-3,8.53-4.5.47-.25.94-.48,1.41-.72.45.21.58.67.8,1.06Z"/>
        <path class="cls-18" d="M126.1,76.76c-3.47.33-6.94.66-10.4.99-.51-.41-.34-1-.4-1.52,3.53-.22,7.07-.45,10.6-.67.07.4.14.81.2,1.21Z"/>
        <path class="cls-17" d="M125,98.81c3.08-2,6.27-3.81,9.54-5.49.27.34.54.67.81,1.01-3.21,1.87-6.43,3.75-9.64,5.62-.39-.28-.59-.69-.71-1.14Z"/>
        <path class="cls-7" d="M131.01,48.1c-1.56-1.17-3.47-1.51-5.25-2.13-1.62-.56-3.14-1.43-4.88-1.59.27-.64.55-1.28.82-1.92.03.94.87.84,1.41,1.05,2.81,1.08,5.63,2.1,8.45,3.15-.04.53-.2,1.02-.55,1.44Z"/>
        <path class="cls-23" d="M137.84,98.14c-3.47,1.43-6.65,3.41-9.93,5.21-.47-.21-.6-.67-.81-1.07,3.27-1.81,6.43-3.84,9.92-5.23.48.21.6.68.82,1.09Z"/>
        <path class="cls-14" d="M119.95,46.61c3.3,1.4,6.59,2.83,10.09,3.67-.21.68-.35,1.4-.83,1.96.03-.42-.15-.6-.56-.75-3.06-1.16-6.07-2.44-9.23-3.35.18-.51.35-1.02.53-1.53Z"/>
        <path class="cls-12" d="M132.85,90.91c-2.93,1.98-5.93,3.81-9.15,5.27-.55-.14-.67-.65-.9-1.07,3.32-1.5,6.32-3.59,9.53-5.28.17.36.35.72.52,1.08Z"/>
        <path class="cls-7" d="M123.51,38.32c.57.99,1.68.99,2.56,1.4,2.39,1.11,4.98,1.74,7.28,3.09-.1.39-.2.79-.3,1.18-2.91-1.17-5.81-2.36-8.72-3.49-.51-.2-1.04-.66-1.67-.24.29-.65.57-1.29.86-1.94Z"/>
        <path class="cls-22" d="M125.48,34.84c3.42.95,6.52,2.64,9.67,4.21-.12.41-.23.81-.35,1.22-3.21-1.59-6.62-2.77-9.73-4.57-.03-.37.01-.7.4-.86Z"/>
        <path class="cls-11" d="M127.23,30.63c3.22,1.58,6.67,2.65,9.74,4.56-.1.4-.19.8-.29,1.21-3.26-1.51-6.52-3.03-9.78-4.54.11-.41.23-.82.34-1.23Z"/>
        <path class="cls-8" d="M132.06,109.26c2.97-1.96,6.06-3.73,9.2-5.39.45.22.66.64.85,1.06-3.19,1.86-6.38,3.71-9.56,5.57-.28-.37-.53-.75-.49-1.24Z"/>
        <path class="cls-3" d="M116.76,81.29c3.39-.83,6.85-1.19,10.28-1.78.15.4.3.79.44,1.19-2.95.49-5.9.97-8.84,1.5-.54.1-1.45-.28-1.45.83-.54-.48-.31-1.16-.44-1.74Z"/>
        <path class="cls-9" d="M118.48,50.72c.02.91.82.73,1.32.9,2.82.97,5.66,1.88,8.49,2.82-.09.39-.24.74-.68.86-3.29-.63-6.38-1.92-9.61-2.77-.05-.66.08-1.27.48-1.81Z"/>
        <path class="cls-20" d="M129,84.41c-3.28,1.17-6.55,2.33-9.83,3.5-.5-.33-.4-.87-.47-1.36,2.94-1.02,5.89-2.05,8.84-3.05.35-.12.66-.23.88-.53.29.44.57.89.58,1.45Z"/>
        <path class="cls-8" d="M120.59,91.01c3.19-1.41,6.18-3.3,9.6-4.19.37.11.48.4.53.74-3.08,1.77-6.39,3.07-9.57,4.62-.19-.39-.37-.78-.56-1.17Z"/>
        <path class="cls-8" d="M125.58,68.23c-3.49-.18-6.98-.37-10.46-.55,0-.73-.37-1.48.11-2.18-.03.74.27.98,1.05,1.01,3.08.12,6.16.35,9.24.54.02.4.04.79.06,1.19Z"/>
        <path class="cls-6" d="M115.9,61.09c1.27.95,2.82.74,4.25.93,1.87.25,3.72.71,5.63.58.05.55.09,1.09.14,1.64-2.63-.39-5.26-.77-7.89-1.17-.76-.12-1.51-.29-2.26-.44-.07-.52-.25-1.05.14-1.53Z"/>
        <path class="cls-21" d="M115.11,71.28c3.48-.09,6.95-.18,10.43-.27.02.41.03.83.05,1.24-3.34.19-6.68.42-10.03.09.12-.47-1.07-.39-.44-1.07Z"/>
        <path class="cls-22" d="M125.91,59.81c-3.08-.69-6.15-1.39-9.23-2.08-.01-.42-.09-.86.38-1.12,3.13.37,6.15,1.2,9.16,2.08-.1.37-.21.75-.31,1.12Z"/>
        <ellipse class="cls-26" cx="134.41" cy="49.41" rx="6.85" ry="6.14" transform="translate(-4.07 12.92) rotate(-5.42)"/>
        <ellipse class="cls-32" cx="130.92" cy="60.2" rx="6.85" ry="6.14" transform="translate(-5.1 12.64) rotate(-5.42)"/>
        <path class="cls-35" d="M130.86,25.69c.07,1.41-.86,2.47-2.25,2.55-1.38.08-2.6-1.01-2.66-2.38-.06-1.28,1.05-2.52,2.31-2.59,1.38-.08,2.52.99,2.6,2.42Z"/>
        <ellipse class="cls-29" cx="129.72" cy="72.06" rx="6.14" ry="6.85" transform="translate(56.74 201.27) rotate(-89.59)"/>
      </g>
      <g>
        <path class="cls-19" d="M214.49,59.81s.08.09.14.12c.8.43,2.36.16,2.06,1.67-.33,1.66-1.74,1.01-2.8.92-9.4-.74-18.82-1.23-28.08-3.18-7.1-1.49-13.82-3.9-19.53-8.5-5.86-4.72-10.63-10.43-14.69-16.75-4.43-6.9-7.87-14.32-11.45-21.67-.38-.79-.72-1.66.21-2.23.74-.46,1.51-.34,1.92.6.6.13.69.66.88,1.11.35.97.78,1.91,1.23,2.84.19.35.39.7.57,1.06.42.99.94,1.92,1.42,2.89.16.28.31.56.45.85.4.94.8,1.88,1.23,2.8.27.65.65,1.24,1.03,1.84.4.69.82,1.36,1.15,2.09.27.66.66,1.25,1.03,1.85.41.68.81,1.37,1.16,2.08.25.5.62.92.91,1.39.46.76.9,1.53,1.39,2.27.32.57.72,1.09,1.15,1.58.85,1.05,1.64,2.14,2.47,3.21.27.33.56.64.85.95.65.91,1.43,1.72,2.1,2.61.28.45.71.75,1.08,1.11.69.7,1.36,1.42,2.01,2.16.43.62,1.13.92,1.66,1.42.76.84,1.79,1.34,2.61,2.11.35-.15-.13,1.08.61.35.32-.32.63-.05.8.31.55,1.22,1.83,1.57,2.78,2.3.45.28.94.49,1.45.66,1.13.35,2.2.85,3.3,1.29.59.2,1.12.56,1.74.67,1.18.33,2.34.76,3.53,1.04.49.14.95.38,1.46.44,1.07.21,2.1.6,3.18.76.4.09.8.18,1.21.24,1.14.12,2.25.42,3.39.53.48.07.97.11,1.45.18.93.25,1.89.33,2.85.43.47.06.95.11,1.42.15.87.11,1.73.18,2.6.28.47.06.94.11,1.41.14.86.1,1.73.18,2.6.27.7.09,1.39.18,2.1.16.86,0,1.72.08,2.59.04.4,0,.79.06,1.18.1,1.09.14,2.17.26,3.27.21.32.01.63.08.9.27Z"/>
        <path class="cls-16" d="M167.21,34.83c1.63.97,3.53.73,5.28,1.17,4.09,3.58,8.52,6.51,13.93,7.75,2.28.52,4.58.77,6.89.94,7.73.57,15.46,1.15,23.14,2.31.97.15,2.32,0,2.11,1.5-.22,1.58-1.44,1.24-2.52.91-.56.14-1.13.23-1.7.07-.87-.15-1.75-.21-2.63-.31-.47-.06-.95-.11-1.42-.14-.86-.11-1.73-.18-2.6-.28-.47-.06-.94-.11-1.41-.14-.86-.11-1.73-.18-2.59-.28-.47-.06-.94-.11-1.41-.14-1.02-.11-2.03-.26-3.05-.26-.47,0-.95-.01-1.42-.05-.93-.12-1.87-.21-2.81-.16-.4-.01-.79-.06-1.18-.1-.94-.12-1.89-.21-2.83-.29-.32-.03-.64-.06-.96-.09-.89-.13-1.79-.14-2.67-.38-.47-.15-.95-.3-1.44-.36-.85-.15-1.69-.34-2.48-.71-.4-.18-.82-.28-1.24-.43-.94-.34-1.9-.61-2.84-.96-.36-.15-.7-.33-1.02-.55-.95-.55-1.87-1.14-2.78-1.76-.36-.17-.67-.41-.99-.64-.82-.51-1.44-1.27-2.22-1.84-.31-.21-.63-.43-.91-.69-.72-.73-1.47-1.42-2.22-2.12-.39-.28-.8-.52-1.18-.81-.41-.29-.81-.6-.83-1.17Z"/>
        <path class="cls-19" d="M165.54,27.33c-.74,1.02-.13,2.38-.84,3.41-.58-.01-.82-.47-1.13-.85-.21-.34-.35-.72-.54-1.07-.37-.69-.8-1.35-1.11-2.07-.27-.65-.63-1.24-1.07-1.79-.49-.64-.76-1.4-1.09-2.11-.2-.51-.51-.97-.76-1.46-.38-.94-.9-1.82-1.33-2.74-.18-.35-.38-.68-.56-1.03-.38-.94-.9-1.81-1.32-2.73-.18-.34-.38-.68-.56-1.02-.41-.92-.74-1.87-1.29-2.73-.2-.33-.41-.67-.58-1.02-.33-.79-.68-1.58-1.04-2.36-.22-.35.01-.78-.2-1.13-.12-.4-.2-.81-.37-1.19-.37-.85-.24-1.54.63-1.93.96-.43,1.42.16,1.75.97,2.38,5.87,5.42,11.42,8.16,17.11.95,1.98,2.16,3.83,3.24,5.74Z"/>
        <path class="cls-1" d="M214.41,49.15c.54.09,1.08.18,1.63.27-.71,2.2-.64,4.51-.97,6.76-.18,1.21-.09,2.47-.58,3.64-.36.25-.69.11-1.01-.1-.41-.25-.5-.67-.47-1.09.23-2.91.46-5.82.96-8.71.05-.3.25-.54.44-.77Z"/>
        <path class="cls-10" d="M152.25,6.16c.37.26.53.59.39,1.04.08.52-.28.77-.66.94-2.71,1.22-5.38,2.53-8.2,3.5-.29.1-.58.11-.87-.02-.17-.44-.35-.88-.52-1.32,3.29-1.38,6.57-2.77,9.86-4.15Z"/>
        <path class="cls-22" d="M207.72,48.37c-.5,3.21-1.03,6.41-1.49,9.63-.07.49-.53,1.18.27,1.57-.7-.06-1.41-.11-2.11-.17.56-3.16,1.13-6.33,1.69-9.49.09-.52.2-1.04.3-1.56.45-.22.89-.04,1.33.02Z"/>
        <path class="cls-18" d="M179.65,44.09c-1.87,2.94-3.74,5.88-5.62,8.81-.63.15-1-.34-1.45-.62,1.99-2.93,3.99-5.85,5.98-8.78.36.19.72.39,1.08.58Z"/>
        <path class="cls-17" d="M196.37,58.52c.32-3.66.85-7.29,1.53-10.9.43,0,.86-.01,1.29-.02-.5,3.69-.99,7.37-1.49,11.06-.46.14-.9.04-1.33-.14Z"/>
        <path class="cls-7" d="M160.06,22.6c-1.88.51-3.33,1.81-4.91,2.84-1.43.93-3.06,1.6-4.25,2.88-.34-.61-.67-1.22-1.01-1.83.76.56,1.2-.17,1.69-.47,2.58-1.55,5.12-3.15,7.68-4.73.4.36.68.79.79,1.32Z"/>
        <path class="cls-23" d="M203.73,47.97c-1,3.62-1.4,7.34-1.99,11.04-.45.24-.9.06-1.34-.02.59-3.69.92-7.43,1.97-11.04.46-.25.91-.05,1.36.02Z"/>
        <path class="cls-14" d="M152.09,30.41c3.13-1.74,6.28-3.46,9.1-5.7.41.58.88,1.14,1.04,1.86-.31-.28-.56-.25-.94-.02-2.79,1.7-5.66,3.29-8.31,5.22-.29-.45-.59-.91-.88-1.36Z"/>
        <path class="cls-12" d="M194.96,47.46c-.24,3.52-.64,7.02-1.47,10.46-.45.35-.93.13-1.4.05.86-3.54,1.05-7.19,1.69-10.77.39.08.78.17,1.17.25Z"/>
        <path class="cls-7" d="M147.74,22.51c1.13.16,1.82-.72,2.68-1.16,2.35-1.2,4.44-2.86,6.91-3.84.25.32.5.64.75.97-2.71,1.57-5.43,3.13-8.12,4.73-.47.28-1.16.41-1.22,1.17-.33-.62-.67-1.25-1-1.87Z"/>
        <path class="cls-22" d="M146.2,18.81c2.85-2.11,6.09-3.52,9.27-5.04.25.34.5.68.75,1.02-3.23,1.56-6.25,3.52-9.58,4.86-.31-.2-.54-.44-.43-.85Z"/>
        <path class="cls-11" d="M143.95,14.85c3.22-1.57,6.19-3.63,9.58-4.88.26.32.52.65.77.97-3.2,1.64-6.4,3.29-9.59,4.93-.25-.34-.51-.68-.76-1.02Z"/>
        <path class="cls-8" d="M208.95,59.37c.29-3.55.78-7.07,1.41-10.57.45-.22.91-.13,1.36-.02-.5,3.65-.99,7.31-1.49,10.96-.46-.01-.91-.05-1.28-.38Z"/>
        <path class="cls-3" d="M177.49,54.24c1.43-3.18,3.27-6.14,4.92-9.2.4.13.81.25,1.21.38-1.42,2.63-2.86,5.25-4.25,7.89-.25.49-1.12.97-.24,1.65-.71.13-1.1-.47-1.64-.72Z"/>
        <path class="cls-9" d="M154.43,34.1c.73.54,1.08-.2,1.52-.48,2.5-1.63,4.96-3.3,7.44-4.96.25.31.43.65.27,1.06-2.52,2.21-5.44,3.85-8.09,5.87-.55-.37-.96-.84-1.13-1.49Z"/>
        <path class="cls-20" d="M187.47,46.51c-1.09,3.3-2.19,6.6-3.28,9.9-.57.19-.94-.22-1.36-.46,1-2.95,2-5.9,3.03-8.85.12-.35.22-.66.12-1.02.53.04,1.05.1,1.5.43Z"/>
        <path class="cls-8" d="M187.51,57.2c.85-3.39,1.2-6.9,2.6-10.15.31-.22.61-.13.91.04-.5,3.52-1.5,6.93-2.24,10.39-.42-.09-.84-.19-1.27-.28Z"/>
        <path class="cls-8" d="M172.61,39.26c-2.29,2.64-4.58,5.28-6.87,7.91-.57-.46-1.4-.61-1.65-1.43.56.48.94.39,1.44-.21,1.99-2.36,4.06-4.64,6.1-6.96.32.23.65.46.97.69Z"/>
        <path class="cls-6" d="M161.02,42.51c1.53-.42,2.32-1.77,3.34-2.78,1.34-1.32,2.85-2.5,3.92-4.08.46.3.92.6,1.38.9-1.92,1.84-3.84,3.68-5.77,5.51-.56.53-1.16,1.01-1.74,1.51-.45-.27-.98-.45-1.13-1.05Z"/>
        <path class="cls-21" d="M168.57,49.39c2.07-2.8,4.13-5.59,6.2-8.39.34.24.67.49,1.01.73-1.91,2.75-3.78,5.53-6.09,7.96-.3-.38-.97.61-1.11-.31Z"/>
        <path class="cls-22" d="M166.17,33.83c-2.44,2-4.88,4-7.31,6-.34-.25-.73-.46-.65-.99,2.21-2.24,4.73-4.11,7.27-5.94.23.31.46.62.7.93Z"/>
        <ellipse class="cls-26" cx="163.19" cy="20.73" rx="6.85" ry="6.14" transform="translate(58.01 147.22) rotate(-57.5)"/>
        <ellipse class="cls-32" cx="169.55" cy="30.11" rx="6.85" ry="6.14" transform="translate(53.04 156.92) rotate(-57.5)"/>
        <path class="cls-35" d="M142.29,8.95c1.16.81,1.42,2.2.63,3.34-.78,1.13-2.39,1.43-3.51.64-1.04-.74-1.34-2.38-.62-3.42.79-1.14,2.33-1.39,3.5-.56Z"/>
        <ellipse class="cls-29" cx="179.02" cy="37.31" rx="6.85" ry="6.14" transform="translate(44.68 161.39) rotate(-54.5)"/>
      </g>
      <text class="cls-40" transform="translate(97.11 31.49)"><tspan x="0" y="0">Biotin</tspan></text>
      <g>
        <path class="cls-2" d="M92.02,8.18c-.33,0-.61-.05-.85-.16s-.43-.25-.56-.44-.21-.42-.22-.69h.67c.01.16.06.29.15.39s.2.18.35.23.3.08.46.08c.19,0,.35-.03.49-.09.14-.06.26-.14.34-.25.08-.11.13-.23.13-.37,0-.13-.04-.23-.11-.31s-.17-.15-.3-.2c-.12-.05-.27-.1-.42-.14l-.51-.14c-.36-.1-.64-.24-.84-.42s-.3-.43-.3-.73c0-.25.07-.47.2-.66.14-.19.32-.33.55-.44.23-.1.5-.16.79-.16s.56.05.79.16c.23.11.41.25.54.43s.2.39.2.62h-.65c-.02-.2-.11-.35-.28-.46s-.37-.16-.62-.16c-.18,0-.33.03-.46.08s-.23.13-.3.23c-.07.1-.11.21-.11.33,0,.14.04.25.13.34.08.08.19.15.31.2.12.05.24.09.35.12l.42.11c.14.04.28.08.43.14s.28.14.41.23c.12.1.23.21.3.35.08.14.12.31.12.51,0,.25-.06.47-.19.66s-.31.35-.55.46c-.24.11-.53.17-.87.17Z"/>
        <path class="cls-2" d="M95.79,4.83v.52h-1.78v-.52h1.78ZM94.49,4.05h.64v3.17c0,.13.03.23.08.29.06.06.15.09.27.09.03,0,.08,0,.13-.01s.1-.02.14-.02l.11.52c-.07.02-.14.04-.22.05s-.16.02-.23.02c-.3,0-.53-.08-.69-.23s-.25-.37-.25-.65v-3.22Z"/>
        <path class="cls-2" d="M96.43,8.11v-3.28h.62v.53h.04c.06-.18.17-.32.32-.42s.32-.15.51-.15c.04,0,.09,0,.14,0,.05,0,.1,0,.13.01v.62s-.07-.02-.13-.02-.13-.01-.2-.01c-.15,0-.28.03-.4.09s-.21.15-.28.26-.1.24-.1.38v1.99h-.64Z"/>
        <path class="cls-2" d="M100.05,8.18c-.32,0-.6-.07-.83-.21s-.41-.33-.54-.59-.19-.55-.19-.89.06-.63.19-.89.3-.46.53-.6c.23-.14.49-.21.8-.21.19,0,.37.03.54.09.17.06.33.16.47.29s.25.3.33.51c.08.21.12.46.12.76v.23h-2.61v-.48h2.28l-.3.16c0-.2-.03-.38-.09-.53s-.15-.27-.28-.36-.27-.13-.46-.13-.34.04-.47.13-.23.2-.29.35c-.07.14-.1.3-.1.47v.33c0,.22.04.41.12.57.08.15.19.27.32.35.14.08.3.12.48.12.12,0,.23-.02.33-.05.1-.03.18-.08.25-.15s.13-.16.16-.26l.61.14c-.05.17-.14.32-.27.45s-.28.23-.46.3c-.18.07-.39.11-.63.11Z"/>
        <path class="cls-2" d="M102.16,9.33v-4.5h.63v.53h.05c.04-.07.09-.15.16-.24s.17-.17.29-.24c.12-.07.29-.1.49-.1.26,0,.5.07.7.2s.37.33.49.58.18.56.18.91-.06.65-.18.91c-.12.25-.28.45-.48.58s-.44.2-.71.2c-.2,0-.36-.03-.48-.1-.13-.07-.22-.15-.3-.24s-.13-.17-.17-.24h-.04v1.74h-.64ZM103.64,7.63c.19,0,.34-.05.47-.15s.22-.24.29-.41.1-.37.1-.59-.03-.41-.1-.58-.16-.31-.28-.41-.28-.15-.47-.15-.34.05-.47.14c-.13.1-.22.23-.29.4s-.1.37-.1.6.03.43.1.6c.07.17.16.31.29.41s.28.15.46.15Z"/>
        <path class="cls-2" d="M107.27,4.83v.52h-1.78v-.52h1.78ZM105.97,4.05h.64v3.17c0,.13.03.23.08.29.06.06.15.09.27.09.03,0,.08,0,.13-.01s.1-.02.14-.02l.11.52c-.07.02-.14.04-.22.05s-.16.02-.23.02c-.3,0-.53-.08-.69-.23s-.25-.37-.25-.65v-3.22Z"/>
        <path class="cls-2" d="M108.86,8.18c-.21,0-.39-.04-.56-.12-.17-.08-.3-.19-.4-.34s-.15-.33-.15-.54c0-.19.04-.34.11-.46s.17-.21.29-.28.26-.12.41-.16.3-.06.46-.08c.19-.02.35-.04.47-.06.12-.02.21-.04.27-.07.06-.03.09-.09.09-.17v-.02c0-.12-.02-.23-.07-.31s-.12-.15-.21-.19-.21-.07-.35-.07-.27.02-.37.07c-.1.04-.19.1-.25.17s-.11.14-.14.21l-.61-.16c.07-.2.18-.35.32-.47s.3-.21.48-.26.37-.08.56-.08c.13,0,.27.02.42.05s.29.09.42.17.24.2.32.35.12.34.12.58v2.17h-.62v-.45h-.03c-.04.08-.11.17-.19.25s-.19.15-.32.2c-.13.05-.28.08-.46.08ZM109,7.66c.18,0,.33-.03.45-.1s.22-.16.29-.27.1-.23.1-.36v-.42s-.07.04-.13.06c-.07.02-.14.04-.22.05-.08.01-.17.03-.24.04s-.14.02-.19.02c-.12.02-.23.04-.33.08s-.18.09-.24.16-.09.16-.09.27c0,.1.03.19.08.26s.13.12.22.16.2.05.32.05Z"/>
        <path class="cls-2" d="M112.19,8.11l-1.24-3.28h.7l.65,1.86c.07.21.13.41.18.62.05.21.1.41.16.61h-.19c.05-.2.11-.41.16-.61.05-.21.11-.41.18-.62l.65-1.86h.69l-1.24,3.28h-.7Z"/>
        <path class="cls-2" d="M115.03,4.33c-.11,0-.21-.04-.29-.11s-.12-.17-.12-.27.04-.2.12-.27.17-.11.29-.11.21.04.29.11.12.17.12.27-.04.2-.12.27-.18.11-.29.11ZM114.7,8.11v-3.28h.64v3.28h-.64Z"/>
        <path class="cls-2" d="M117.43,8.17c-.27,0-.5-.07-.71-.2s-.37-.33-.49-.58c-.12-.25-.18-.55-.18-.91s.06-.66.18-.91.28-.44.49-.58.44-.2.7-.2c.2,0,.37.03.49.1.12.07.22.15.29.24s.12.17.16.24h.04v-1.62h.64v4.37h-.63v-.51h-.05c-.04.07-.09.15-.16.24s-.17.17-.3.24c-.12.07-.29.1-.48.1ZM117.57,7.63c.18,0,.34-.05.46-.15s.22-.23.29-.41c.07-.17.1-.37.1-.6s-.03-.43-.1-.6-.16-.3-.29-.4c-.13-.09-.28-.14-.47-.14s-.35.05-.47.15-.22.24-.28.41-.1.36-.1.58.03.41.1.59.16.31.29.41.28.15.47.15Z"/>
        <path class="cls-2" d="M120.25,4.33c-.11,0-.21-.04-.29-.11s-.12-.17-.12-.27.04-.2.12-.27.17-.11.29-.11.21.04.29.11.12.17.12.27-.04.2-.12.27-.18.11-.29.11ZM119.92,8.11v-3.28h.64v3.28h-.64Z"/>
        <path class="cls-2" d="M122.08,6.17v1.94h-.64v-3.28h.62v.8s-.06,0-.06,0c.1-.29.23-.51.42-.64s.4-.2.66-.2c.22,0,.42.05.58.14s.3.23.39.41c.09.18.14.41.14.68v2.08h-.64v-2c0-.24-.06-.42-.18-.55s-.29-.2-.51-.2c-.14,0-.27.03-.39.1s-.21.16-.27.28-.1.27-.1.44Z"/>
        <path class="cls-2" d="M100.51,15.31v-4.37h1.61c.31,0,.57.05.77.15s.35.24.45.41c.1.17.15.37.15.58,0,.18-.03.33-.1.46-.07.12-.16.22-.27.3-.11.08-.24.13-.37.17v.04c.15,0,.29.05.43.14s.25.21.34.37c.09.16.14.35.14.57s-.05.42-.16.6-.27.32-.48.42-.5.16-.83.16h-1.68ZM101.17,12.83h.88c.15,0,.28-.03.4-.08s.21-.14.28-.24.1-.22.1-.36c0-.18-.06-.33-.19-.45-.12-.12-.32-.18-.58-.18h-.89v1.32ZM101.17,14.74h.94c.31,0,.54-.06.67-.18s.21-.27.21-.45c0-.14-.03-.27-.1-.38s-.17-.2-.29-.27c-.13-.07-.28-.1-.45-.1h-.97v1.39Z"/>
        <path class="cls-2" d="M105.81,15.38c-.32,0-.6-.07-.83-.21s-.41-.33-.54-.59-.19-.55-.19-.89.06-.63.19-.89.3-.46.53-.6c.23-.14.49-.21.8-.21.19,0,.37.03.54.09.17.06.33.16.47.29s.25.3.33.51c.08.21.12.46.12.76v.23h-2.61v-.48h2.28l-.3.16c0-.2-.03-.38-.09-.53s-.15-.27-.28-.36-.27-.13-.46-.13-.34.04-.47.13-.23.2-.29.35c-.07.14-.1.3-.1.47v.33c0,.22.04.41.12.57.08.15.19.27.32.35.14.08.3.12.48.12.12,0,.23-.02.33-.05.1-.03.18-.08.25-.15s.13-.16.16-.26l.61.14c-.05.17-.14.32-.27.45s-.28.23-.46.3c-.18.07-.39.11-.63.11Z"/>
        <path class="cls-2" d="M108.9,15.38c-.21,0-.39-.04-.56-.12-.17-.08-.3-.19-.4-.34s-.15-.33-.15-.54c0-.19.04-.34.11-.46s.17-.21.29-.28.26-.12.41-.16.3-.06.46-.08c.19-.02.35-.04.47-.06.12-.02.21-.04.27-.07.06-.03.09-.09.09-.17v-.02c0-.12-.02-.23-.07-.31s-.12-.15-.21-.19-.21-.07-.35-.07-.27.02-.37.07c-.1.04-.19.1-.25.17s-.11.14-.14.21l-.61-.16c.07-.2.18-.35.32-.47s.3-.21.48-.26.37-.08.56-.08c.13,0,.27.02.42.05s.29.09.42.17.24.2.32.35.12.34.12.58v2.17h-.62v-.45h-.03c-.04.08-.11.17-.19.25s-.19.15-.32.2c-.13.05-.28.08-.46.08ZM109.04,14.86c.18,0,.33-.03.45-.1s.22-.16.29-.27.1-.23.1-.36v-.42s-.07.04-.13.06c-.07.02-.14.04-.22.05-.08.01-.17.03-.24.04s-.14.02-.19.02c-.12.02-.23.04-.33.08s-.18.09-.24.16-.09.16-.09.27c0,.1.03.19.08.26s.13.12.22.16.2.05.32.05Z"/>
        <path class="cls-2" d="M112.61,15.37c-.27,0-.5-.07-.71-.2s-.37-.33-.49-.58c-.12-.25-.18-.55-.18-.91s.06-.66.18-.91.28-.44.49-.58.44-.2.7-.2c.2,0,.37.03.49.1.12.07.22.15.29.24s.12.17.16.24h.04v-1.62h.64v4.37h-.63v-.51h-.05c-.04.07-.09.15-.16.24s-.17.17-.3.24c-.12.07-.29.1-.48.1ZM112.75,14.83c.18,0,.34-.05.46-.15s.22-.23.29-.41c.07-.17.1-.37.1-.6s-.03-.43-.1-.6-.16-.3-.29-.4c-.13-.09-.28-.14-.47-.14s-.35.05-.47.15-.22.24-.28.41-.1.36-.1.58.03.41.1.59.16.31.29.41.28.15.47.15Z"/>
      </g>
      <line class="cls-31" x1="51.66" y1="41.37" x2="61.16" y2="36"/>
      <line class="cls-31" x1="39.3" y1="50.78" x2="63.3" y2="50.78"/>
      <text class="cls-40" transform="translate(60.69 33.65)"><tspan x="0" y="0">Antibo</tspan><tspan class="cls-41" x="18.75" y="0">d</tspan><tspan x="22.5" y="0">y</tspan></text>
      <g>
        <path class="cls-2" d="M66.82,48.61v-4.37h1.61c.31,0,.57.05.77.15s.35.24.45.41c.1.17.15.37.15.58,0,.18-.03.33-.1.46-.07.12-.16.22-.27.3-.11.08-.24.13-.37.17v.04c.15,0,.29.05.43.14s.25.21.34.37c.09.16.14.35.14.57s-.05.42-.16.6-.27.32-.48.42-.5.16-.83.16h-1.68ZM67.49,46.14h.88c.15,0,.28-.03.4-.08s.21-.14.28-.24.1-.22.1-.36c0-.18-.06-.33-.19-.45-.12-.12-.32-.18-.58-.18h-.89v1.32ZM67.49,48.04h.94c.31,0,.54-.06.67-.18s.21-.27.21-.45c0-.14-.03-.27-.1-.38s-.17-.2-.29-.27c-.13-.07-.28-.1-.45-.1h-.97v1.39Z"/>
        <path class="cls-2" d="M71.63,48.69c-.21,0-.39-.04-.56-.12-.17-.08-.3-.19-.4-.34s-.15-.33-.15-.54c0-.19.04-.34.11-.46s.17-.21.29-.28.26-.12.41-.16.3-.06.46-.08c.19-.02.35-.04.47-.06.12-.02.21-.04.27-.07.06-.03.09-.09.09-.17v-.02c0-.12-.02-.23-.07-.31s-.12-.15-.21-.19-.21-.07-.35-.07-.27.02-.37.07c-.1.04-.19.1-.25.17s-.11.14-.14.21l-.61-.16c.07-.2.18-.35.32-.47s.3-.21.48-.26.37-.08.56-.08c.13,0,.27.02.42.05s.29.09.42.17.24.2.32.35.12.34.12.58v2.17h-.62v-.45h-.03c-.04.08-.11.17-.19.25s-.19.15-.32.2c-.13.05-.28.08-.46.08ZM71.78,48.17c.18,0,.33-.03.45-.1s.22-.16.29-.27.1-.23.1-.36v-.42s-.07.04-.13.06c-.07.02-.14.04-.22.05-.08.01-.17.03-.24.04s-.14.02-.19.02c-.12.02-.23.04-.33.08s-.18.09-.24.16-.09.16-.09.27c0,.1.03.19.08.26s.13.12.22.16.2.05.32.05Z"/>
        <path class="cls-2" d="M74.45,44.84c-.11,0-.21-.04-.29-.11s-.12-.17-.12-.27.04-.2.12-.27.17-.11.29-.11.21.04.29.11.12.17.12.27-.04.2-.12.27-.18.11-.29.11ZM74.12,48.61v-3.28h.64v3.28h-.64Z"/>
        <path class="cls-2" d="M77.03,45.34v.52h-1.78v-.52h1.78ZM75.74,44.56h.64v3.17c0,.13.03.23.08.29.06.06.15.09.27.09.03,0,.08,0,.13-.01s.1-.02.14-.02l.11.52c-.07.02-.14.04-.22.05s-.16.02-.23.02c-.3,0-.53-.08-.69-.23s-.25-.37-.25-.65v-3.22Z"/>
        <path class="cls-2" d="M66.82,55.81v-4.37h1.56c.34,0,.62.06.84.19s.39.29.5.51.17.45.17.72-.06.51-.17.72c-.11.21-.28.38-.51.51s-.51.19-.84.19h-1.07v-.57h1c.21,0,.39-.04.52-.11s.23-.18.29-.3.09-.27.09-.44-.03-.31-.09-.44-.16-.23-.29-.3-.31-.11-.53-.11h-.82v3.79h-.67Z"/>
        <path class="cls-2" d="M70.62,55.81v-3.28h.62v.53h.04c.06-.18.17-.32.32-.42s.32-.15.51-.15c.04,0,.09,0,.14,0,.05,0,.1,0,.13.01v.62s-.07-.02-.13-.02-.13-.01-.2-.01c-.15,0-.28.03-.4.09s-.21.15-.28.26-.1.24-.1.38v1.99h-.64Z"/>
        <path class="cls-2" d="M74.21,55.88c-.31,0-.57-.07-.8-.21s-.41-.34-.53-.59-.19-.55-.19-.88.06-.64.19-.89c.13-.26.31-.45.53-.59s.5-.21.8-.21.58.07.81.21.41.34.53.59c.13.25.19.55.19.89s-.06.63-.19.88-.31.45-.53.59-.5.21-.81.21ZM74.21,55.34c.2,0,.36-.05.49-.16.13-.1.23-.24.29-.42.06-.17.1-.36.1-.57s-.03-.4-.1-.58-.16-.31-.29-.42c-.13-.1-.29-.16-.49-.16s-.36.05-.49.16c-.13.11-.23.24-.29.42s-.1.37-.1.58.03.4.1.57c.06.17.16.31.29.42.13.11.29.16.49.16Z"/>
        <path class="cls-2" d="M77.85,52.54v.52h-1.78v-.52h1.78ZM76.56,51.76h.64v3.17c0,.13.03.23.08.29.06.06.15.09.27.09.03,0,.08,0,.13-.01s.1-.02.14-.02l.11.52c-.07.02-.14.04-.22.05s-.16.02-.23.02c-.3,0-.53-.08-.69-.23s-.25-.37-.25-.65v-3.22Z"/>
        <path class="cls-2" d="M79.85,55.88c-.32,0-.6-.07-.83-.21s-.41-.33-.54-.59-.19-.55-.19-.89.06-.63.19-.89.3-.46.53-.6c.23-.14.49-.21.8-.21.19,0,.37.03.54.09.17.06.33.16.47.29s.25.3.33.51c.08.21.12.46.12.76v.23h-2.61v-.48h2.28l-.3.16c0-.2-.03-.38-.09-.53s-.15-.27-.28-.36-.27-.13-.46-.13-.34.04-.47.13-.23.2-.29.35c-.07.14-.1.3-.1.47v.33c0,.22.04.41.12.57.08.15.19.27.32.35.14.08.3.12.48.12.12,0,.23-.02.33-.05.1-.03.18-.08.25-.15s.13-.16.16-.26l.61.14c-.05.17-.14.32-.27.45s-.28.23-.46.3c-.18.07-.39.11-.63.11Z"/>
        <path class="cls-2" d="M82.29,52.04c-.11,0-.21-.04-.29-.11s-.12-.17-.12-.27.04-.2.12-.27.17-.11.29-.11.21.04.29.11.12.17.12.27-.04.2-.12.27-.18.11-.29.11ZM81.96,55.81v-3.28h.64v3.28h-.64Z"/>
        <path class="cls-2" d="M84.12,53.87v1.94h-.64v-3.28h.62v.8s-.06,0-.06,0c.1-.29.23-.51.42-.64s.4-.2.66-.2c.22,0,.42.05.58.14s.3.23.39.41c.09.18.14.41.14.68v2.08h-.64v-2c0-.24-.06-.42-.18-.55s-.29-.2-.51-.2c-.14,0-.27.03-.39.1s-.21.16-.27.28-.1.27-.1.44Z"/>
      </g>
      <ellipse class="cls-24" cx="7.87" cy="92.58" rx="6.85" ry="6.14" transform="translate(-63.16 32.68) rotate(-45)"/>
      <ellipse class="cls-33" cx="15.36" cy="84.07" rx="6.14" ry="6.85" transform="translate(-54.95 35.48) rotate(-45)"/>
      <ellipse class="cls-24" cx="45.5" cy="87.43" rx="6.85" ry="6.14" transform="translate(-13.46 8.45) rotate(-9.25)"/>
      <ellipse class="cls-33" cx="56.55" cy="84.9" rx="6.14" ry="6.85" transform="translate(-12.91 10.19) rotate(-9.25)"/>
      <ellipse class="cls-30" cx="27.95" cy="46.61" rx="6.14" ry="6.85" transform="translate(-.16 .1) rotate(-.2)"/>
      <ellipse class="cls-33" cx="39" cy="49.83" rx="6.14" ry="6.85" transform="translate(-.18 .14) rotate(-.2)"/>
      <rect class="cls-28" x="15.22" y="64.31" width="2.43" height="8.46" rx="1.22" ry="1.22" transform="translate(83.19 91.19) rotate(122.23)"/>
      <path class="cls-28" d="M9.39,69.63l-5.46-12.26c-.27-.61,0-1.33.62-1.61s1.33,0,1.61.62l5.36,12.03,6.82,4.3c.57.36.74,1.11.38,1.68-.13.21-.32.37-.53.46-.36.16-.79.14-1.14-.08l-6.87-4.33c-.12-.07-.22-.16-.3-.27-.2-.12-.37-.31-.48-.54Z"/>
      <rect class="cls-28" x="1.42" y="70.34" width="2.43" height="8.46" rx="1.22" ry="1.22" transform="translate(12.65 .63) rotate(9.74)"/>
      <path class="cls-28" d="M8.17,70.06l-5.46-12.26c-.27-.61-.99-.89-1.61-.62s-.89.99-.62,1.61l5.36,12.03-1.37,7.95c-.11.66.33,1.29.99,1.4.25.04.49,0,.7-.09.36-.16.63-.49.7-.91l1.37-8.01c.02-.14.02-.27,0-.4.04-.23.02-.48-.08-.72Z"/>
      <rect class="cls-28" x="49.87" y="34.93" width="2.43" height="8.46" rx="1.22" ry="1.22" transform="translate(109.57 66.06) rotate(167.23)"/>
      <path class="cls-28" d="M45.33,34.94l4.81-12.53c.24-.63.94-.94,1.57-.7s.94.94.7,1.57l-4.72,12.3,1.78,7.87c.15.66-.26,1.31-.92,1.46-.24.06-.49.03-.7-.05-.37-.14-.66-.46-.75-.87l-1.8-7.93c-.03-.13-.04-.27-.02-.4-.06-.23-.04-.48.05-.72Z"/>
      <rect class="cls-28" x="35.85" y="29.44" width="2.43" height="8.46" rx="1.22" ry="1.22" transform="translate(43.16 -16.04) rotate(54.74)"/>
      <path class="cls-28" d="M44.17,34.38l4.81-12.53c.24-.63-.07-1.33-.7-1.57s-1.33.07-1.57.7l-4.72,12.3-6.59,4.66c-.55.39-.68,1.15-.29,1.7.14.2.34.35.56.43.37.14.79.1,1.14-.14l6.64-4.69c.11-.08.21-.17.28-.28.2-.13.36-.33.45-.57Z"/>
      <rect class="cls-28" x="63.08" y="67.48" width="2.43" height="8.46" rx="1.22" ry="1.22" transform="translate(157.31 96.72) rotate(146.93)"/>
      <path class="cls-28" d="M57.43,69.76l.16-13.42c0-.67.56-1.21,1.23-1.2s1.21.56,1.2,1.23l-.16,13.17,4.4,6.76c.37.56.21,1.32-.36,1.68-.21.14-.45.2-.68.2-.39,0-.78-.2-1.01-.55l-4.43-6.81c-.08-.12-.13-.24-.16-.37-.13-.2-.21-.44-.21-.69Z"/>
      <rect class="cls-28" x="48.02" y="67.2" width="2.43" height="8.46" rx="1.22" ry="1.22" transform="translate(49.02 -15.33) rotate(34.44)"/>
      <path class="cls-28" d="M56.15,69.63l.16-13.42c0-.67-.53-1.22-1.2-1.23s-1.22.53-1.23,1.2l-.16,13.17-4.56,6.65c-.38.55-.24,1.31.32,1.69.21.14.44.21.67.21.39,0,.78-.18,1.02-.53l4.6-6.7c.08-.11.13-.24.17-.36.14-.19.22-.43.22-.69Z"/>
      <ellipse class="cls-25" cx="77.93" cy="85.76" rx="6.14" ry="6.85" transform="translate(-33.52 117.49) rotate(-63.63)"/>
      <ellipse class="cls-34" cx="11.63" cy="36.63" rx="6.14" ry="6.85" transform="translate(-26.35 30.78) rotate(-63.63)"/>
      <ellipse class="cls-34" cx="34.25" cy="66.44" rx="6.85" ry="6.14" transform="translate(-18.04 13.03) rotate(-17.12)"/>
      <g>
        <circle class="cls-5" cx="278.5" cy="50.82" r="32.56"/>
        <circle class="cls-38" cx="278.5" cy="50.82" r="32.56" transform="translate(149.16 302.64) rotate(-73.15)"/>
      </g>
      <path class="cls-4" d="M288.62,53.36c1.9,1.58,2.19,4.71,1.21,6.89-.49,1.09-1.51,2.07-2.77,2.08-.96,0-1.82-.56-2.6-1.06-1.77-1.16-3.58-2.55-5.83-2.02s-3.65,2.84-4.59,4.82c-.59,1.25,1.27,2.35,1.87,1.09.68-1.43,1.66-3.62,3.45-3.86,1.65-.23,3.18,1.33,4.47,2.12,1.72,1.05,3.68,1.47,5.53.45,2.05-1.13,2.96-3.42,3.12-5.66s-.49-4.85-2.33-6.37c-1.06-.88-2.6.64-1.53,1.53h0Z"/>
      <ellipse class="cls-24" cx="270.33" cy="6.88" rx="6.85" ry="6.14" transform="translate(74.31 193.16) rotate(-45)"/>
      <ellipse class="cls-33" cx="306.64" cy="16.21" rx="6.14" ry="6.85" transform="translate(160.36 286.19) rotate(-64.58)"/>
      <ellipse class="cls-30" cx="261.49" cy="63.57" rx="6.14" ry="6.85" transform="translate(-.22 .92) rotate(-.2)"/>
      <ellipse class="cls-27" cx="272.55" cy="66.79" rx="6.14" ry="6.85" transform="translate(-.23 .96) rotate(-.2)"/>
      <ellipse class="cls-25" cx="314.7" cy="79.7" rx="6.14" ry="6.85" transform="translate(103.52 326.25) rotate(-63.63)"/>
      <ellipse class="cls-34" cx="245.17" cy="53.59" rx="6.14" ry="6.85" transform="translate(88.27 249.45) rotate(-63.63)"/>
      <ellipse class="cls-34" cx="267.79" cy="83.4" rx="6.85" ry="6.14" transform="translate(-12.68 82.53) rotate(-17.12)"/>
      <g>
        <path class="cls-37" d="M282.78,41.11h-8.43c-1.2,0-2.33.57-3.04,1.54l-3.35,4.54c-.98,1.33-.98,3.14,0,4.47l3.35,4.54c.71.97,1.84,1.54,3.04,1.54h8.43c1.2,0,2.33-.57,3.04-1.54l3.35-4.54c.98-1.33.98-3.14,0-4.47l-3.35-4.54c-.71-.97-1.84-1.54-3.04-1.54Z"/>
        <g>
          <path class="cls-13" d="M272.2,48.25v-3.64h1.34c.26,0,.47.04.64.13.17.08.3.2.38.34.08.14.12.31.12.48,0,.15-.03.28-.08.38-.05.1-.13.19-.22.25s-.2.11-.31.14v.04c.12,0,.24.04.36.12.12.07.21.17.29.31.08.13.11.29.11.48s-.04.35-.13.5c-.09.15-.22.26-.4.35-.18.09-.41.13-.7.13h-1.4ZM272.76,46.19h.73c.12,0,.23-.02.33-.07s.18-.11.23-.2.09-.19.09-.3c0-.15-.05-.27-.16-.38-.1-.1-.26-.15-.48-.15h-.75v1.1ZM272.76,47.77h.79c.26,0,.45-.05.56-.15.11-.1.17-.23.17-.38,0-.12-.03-.22-.09-.32s-.14-.17-.25-.23c-.11-.06-.23-.08-.38-.08h-.81v1.15Z"/>
          <path class="cls-13" d="M275.71,45.11c-.09,0-.17-.03-.24-.09-.07-.06-.1-.14-.1-.22s.03-.17.1-.23c.07-.06.14-.09.24-.09s.17.03.24.09c.07.06.1.14.1.23s-.03.16-.1.22c-.07.06-.15.09-.24.09ZM275.44,48.25v-2.73h.54v2.73h-.54Z"/>
          <path class="cls-13" d="M277.85,48.31c-.26,0-.48-.06-.67-.18s-.34-.28-.45-.49c-.11-.21-.16-.46-.16-.74s.05-.53.16-.74c.11-.21.25-.38.45-.49s.41-.18.67-.18.48.06.67.18.34.28.45.49c.11.21.16.46.16.74s-.05.53-.16.74c-.11.21-.25.38-.45.49s-.42.18-.67.18ZM277.85,47.85c.17,0,.3-.04.41-.13s.19-.2.24-.35c.05-.14.08-.3.08-.47s-.03-.33-.08-.48-.13-.26-.24-.35-.25-.13-.41-.13-.3.04-.41.13-.19.2-.24.35-.08.31-.08.48.03.33.08.47c.05.14.13.26.24.35s.24.13.41.13Z"/>
          <path class="cls-13" d="M280.89,45.52v.44h-1.48v-.44h1.48ZM279.81,44.87h.54v2.64c0,.11.02.19.07.24.05.05.12.08.23.08.03,0,.06,0,.11,0s.08-.01.12-.02l.09.43c-.06.02-.12.03-.18.04s-.13.01-.19.01c-.25,0-.44-.06-.58-.19s-.21-.31-.21-.54v-2.69Z"/>
          <path class="cls-13" d="M281.7,45.11c-.09,0-.17-.03-.24-.09-.07-.06-.1-.14-.1-.22s.03-.17.1-.23c.07-.06.14-.09.24-.09s.17.03.24.09c.07.06.1.14.1.23s-.03.16-.1.22c-.07.06-.15.09-.24.09ZM281.43,48.25v-2.73h.54v2.73h-.54Z"/>
          <path class="cls-13" d="M283.22,46.64v1.62h-.54v-2.73h.51v.67s-.05,0-.05,0c.08-.24.2-.42.35-.54.15-.11.33-.17.55-.17.19,0,.35.04.49.12.14.08.25.19.32.35s.12.34.12.57v1.73h-.54v-1.67c0-.2-.05-.35-.15-.46-.1-.11-.24-.17-.42-.17-.12,0-.23.03-.32.08-.1.05-.17.13-.23.23-.06.1-.08.22-.08.37Z"/>
          <path class="cls-13" d="M271.14,54.25v-3.64h.56v3.16h1.65v.48h-2.21Z"/>
          <path class="cls-13" d="M274.2,51.11c-.09,0-.17-.03-.24-.09-.07-.06-.1-.14-.1-.22s.03-.17.1-.23c.07-.06.14-.09.24-.09s.17.03.24.09c.07.06.1.14.1.23s-.03.16-.1.22c-.07.06-.15.09-.24.09ZM273.93,54.25v-2.73h.54v2.73h-.54Z"/>
          <path class="cls-13" d="M276.33,55.33c-.21,0-.39-.03-.55-.08-.16-.05-.28-.12-.38-.21-.1-.09-.18-.19-.23-.3l.45-.21c.03.05.08.11.13.17s.13.11.22.15c.09.04.21.06.36.06.21,0,.38-.05.51-.15.13-.1.19-.25.19-.46v-.53h-.05c-.03.06-.08.13-.14.2-.06.07-.14.13-.24.18-.1.05-.24.08-.4.08-.21,0-.41-.05-.58-.15-.17-.1-.31-.25-.41-.45-.1-.2-.15-.44-.15-.73s.05-.54.15-.75c.1-.21.24-.37.41-.48.17-.11.37-.17.59-.17.17,0,.3.03.41.08.1.06.19.12.25.2.06.08.1.14.14.2h.04v-.44h.52v2.77c0,.24-.05.44-.16.59-.11.15-.25.27-.44.34-.19.07-.4.11-.63.11ZM276.32,53.76c.15,0,.28-.04.39-.11.11-.07.18-.17.24-.31.05-.13.08-.29.08-.48s-.03-.34-.08-.48-.13-.25-.24-.32c-.1-.08-.23-.12-.39-.12s-.29.04-.4.12-.19.19-.24.33c-.05.14-.08.3-.08.47s.03.33.08.47c.05.13.13.24.24.31s.24.11.39.11Z"/>
          <path class="cls-13" d="M279.05,54.31c-.17,0-.33-.03-.47-.1-.14-.06-.25-.16-.33-.28-.08-.12-.12-.28-.12-.45,0-.15.03-.28.09-.38s.14-.18.24-.24.21-.1.34-.13c.12-.03.25-.05.38-.07.16-.02.29-.04.39-.05.1-.01.18-.03.22-.06s.07-.07.07-.14h0c0-.12-.02-.2-.06-.27-.04-.07-.1-.12-.17-.16s-.17-.06-.29-.06-.22.02-.31.05c-.09.04-.16.08-.21.14-.05.06-.09.12-.12.18l-.5-.13c.06-.16.15-.29.27-.39.12-.1.25-.17.4-.22.15-.05.3-.07.46-.07.11,0,.23.01.35.04.12.03.24.07.35.14s.2.16.27.29.1.29.1.48v1.81h-.52v-.37h-.03c-.04.07-.09.14-.16.21-.07.07-.16.12-.26.16s-.23.06-.38.06ZM279.17,53.88c.15,0,.27-.03.38-.09.1-.06.18-.13.24-.23s.08-.19.08-.3v-.35s-.06.04-.11.05-.12.03-.19.04c-.07.01-.14.02-.2.03-.07,0-.12.02-.16.02-.1.01-.19.04-.28.07s-.15.08-.2.13-.07.13-.07.23c0,.09.02.16.07.22s.11.1.18.13c.08.03.17.04.27.04Z"/>
          <path class="cls-13" d="M282.1,54.31c-.2,0-.37-.03-.53-.09-.15-.06-.28-.14-.38-.25s-.16-.25-.2-.41l.5-.1c.04.14.11.25.21.32.1.07.23.1.39.1.17,0,.31-.04.41-.11s.15-.16.15-.26c0-.09-.03-.16-.09-.22-.06-.06-.16-.1-.29-.13l-.46-.1c-.25-.06-.44-.15-.57-.27s-.19-.29-.19-.48c0-.16.05-.3.14-.43s.22-.22.37-.28c.16-.07.34-.1.55-.1.2,0,.37.03.5.09.14.06.25.14.34.24.09.1.15.22.19.36l-.48.1c-.03-.1-.09-.18-.18-.25s-.21-.11-.37-.11c-.15,0-.27.03-.37.1-.1.07-.15.15-.15.25,0,.09.03.16.1.22.07.06.17.1.32.13l.44.1c.25.06.44.15.56.27s.18.28.18.47c0,.17-.05.31-.14.44-.1.13-.23.23-.4.3-.17.07-.36.11-.59.11Z"/>
          <path class="cls-13" d="M284.99,54.31c-.27,0-.5-.06-.7-.17s-.34-.28-.45-.49c-.1-.21-.16-.46-.16-.74s.05-.53.16-.74.25-.38.44-.5c.19-.12.41-.18.66-.18.16,0,.31.03.45.08.14.05.28.13.39.24s.21.25.27.42c.07.17.1.38.1.63v.19h-2.17v-.4h1.9l-.25.13c0-.17-.03-.32-.08-.44s-.13-.23-.23-.3-.23-.11-.38-.11-.28.04-.39.11c-.11.07-.19.17-.25.29-.06.12-.08.25-.08.39v.27c0,.19.03.35.1.47.06.13.15.23.27.29.12.07.25.1.4.1.1,0,.19-.01.27-.04s.15-.07.21-.13.1-.13.14-.21l.5.12c-.04.14-.12.26-.22.37s-.23.19-.39.25c-.15.06-.33.09-.52.09Z"/>
        </g>
      </g>
      <path class="cls-35" d="M286.75,39.05c1.16.81,1.42,2.2.63,3.34-.78,1.13-2.39,1.43-3.51.64-1.04-.74-1.34-2.38-.62-3.42.79-1.14,2.33-1.39,3.5-.56Z"/>
      <path class="cls-35" d="M251.84,47.06c1.16.81,1.42,2.2.63,3.34-.78,1.13-2.39,1.43-3.51.64-1.04-.74-1.34-2.38-.62-3.42.79-1.14,2.33-1.39,3.5-.56Z"/>
      <path class="cls-35" d="M259.35,55.55c1.16.81,1.42,2.2.63,3.34-.78,1.13-2.39,1.43-3.51.64-1.04-.74-1.34-2.38-.62-3.42.79-1.14,2.33-1.39,3.5-.56Z"/>
      <path class="cls-35" d="M280.02,68.2c1.16.81,1.42,2.2.63,3.34-.78,1.13-2.39,1.43-3.51.64-1.04-.74-1.34-2.38-.62-3.42.79-1.14,2.33-1.39,3.5-.56Z"/>
      <path class="cls-35" d="M275.06,77c1.16.81,1.42,2.2.63,3.34-.78,1.13-2.39,1.43-3.51.64-1.04-.74-1.34-2.38-.62-3.42.79-1.14,2.33-1.39,3.5-.56Z"/>
      <line class="cls-31" x1="285.37" y1="33.42" x2="285.37" y2="38.83"/>
      <text class="cls-40" transform="translate(277.22 32.36)"><tspan x="0" y="0">Biotin</tspan></text>
      <g>
        <path class="cls-15" d="M223.2,20.11v-4.37h.67v3.79h1.98v.57h-2.65Z"/>
        <path class="cls-15" d="M227.46,20.18c-.21,0-.39-.04-.56-.12-.17-.08-.3-.19-.4-.34s-.15-.33-.15-.54c0-.19.04-.34.11-.46s.17-.21.29-.28.26-.12.41-.16.3-.06.46-.08c.19-.02.35-.04.47-.06.12-.02.21-.04.27-.07.06-.03.09-.09.09-.17v-.02c0-.12-.02-.23-.07-.31s-.12-.15-.21-.19-.21-.07-.35-.07-.27.02-.37.07c-.1.04-.19.1-.25.17s-.11.14-.14.21l-.61-.16c.07-.2.18-.35.32-.47s.3-.21.48-.26.37-.08.56-.08c.13,0,.27.02.42.05s.29.09.42.17.24.2.32.35.12.34.12.58v2.17h-.62v-.45h-.03c-.04.08-.11.17-.19.25s-.19.15-.32.2c-.13.05-.28.08-.46.08ZM227.6,19.67c.18,0,.33-.03.45-.1s.22-.16.29-.27.1-.23.1-.36v-.42s-.07.04-.13.06c-.07.02-.14.04-.22.05-.08.01-.17.03-.24.04s-.14.02-.19.02c-.12.02-.23.04-.33.08s-.18.09-.24.16-.09.16-.09.27c0,.1.03.19.08.26s.13.12.22.16.2.05.32.05Z"/>
        <path class="cls-15" d="M231.58,20.18c-.2,0-.36-.03-.48-.1-.13-.07-.22-.15-.3-.24s-.13-.17-.17-.24h-.05v.51h-.63v-4.37h.64v1.62h.04c.04-.07.09-.15.16-.24s.17-.17.29-.24c.12-.07.29-.1.49-.1.26,0,.5.07.7.2s.37.33.49.58.18.56.18.91-.06.65-.18.91c-.12.25-.28.45-.48.58s-.44.2-.71.2ZM231.43,19.63c.19,0,.34-.05.47-.15s.22-.24.29-.41.1-.37.1-.59-.03-.41-.1-.58-.16-.31-.28-.41-.28-.15-.47-.15-.34.05-.47.14c-.13.1-.22.23-.29.4s-.1.37-.1.6.03.43.1.6c.07.17.16.31.29.41s.28.15.46.15Z"/>
        <path class="cls-15" d="M235.07,20.18c-.32,0-.6-.07-.83-.21s-.41-.33-.54-.59-.19-.55-.19-.89.06-.63.19-.89.3-.46.53-.6c.23-.14.49-.21.8-.21.19,0,.37.03.54.09.17.06.33.16.47.29s.25.3.33.51c.08.21.12.46.12.76v.23h-2.61v-.48h2.28l-.3.16c0-.2-.03-.38-.09-.53s-.15-.27-.28-.36-.27-.13-.46-.13-.34.04-.47.13-.23.2-.29.35c-.07.14-.1.3-.1.47v.33c0,.22.04.41.12.57.08.15.19.27.32.35.14.08.3.12.48.12.12,0,.23-.02.33-.05.1-.03.18-.08.25-.15s.13-.16.16-.26l.61.14c-.05.17-.14.32-.27.45s-.28.23-.46.3c-.18.07-.39.11-.63.11Z"/>
        <path class="cls-15" d="M237.83,15.75v4.37h-.64v-4.37h.64Z"/>
        <path class="cls-15" d="M239.34,15.75v4.37h-.64v-4.37h.64Z"/>
        <path class="cls-15" d="M240.53,16.33c-.11,0-.21-.04-.29-.11s-.12-.17-.12-.27.04-.2.12-.27.17-.11.29-.11.21.04.29.11.12.17.12.27-.04.2-.12.27-.18.11-.29.11ZM240.21,20.11v-3.28h.64v3.28h-.64Z"/>
        <path class="cls-15" d="M242.36,18.17v1.94h-.64v-3.28h.62v.8s-.06,0-.06,0c.1-.29.23-.51.42-.64s.4-.2.66-.2c.22,0,.42.05.58.14s.3.23.39.41c.09.18.14.41.14.68v2.08h-.64v-2c0-.24-.06-.42-.18-.55s-.29-.2-.51-.2c-.14,0-.27.03-.39.1s-.21.16-.27.28-.1.27-.1.44Z"/>
        <path class="cls-15" d="M246.7,21.41c-.25,0-.47-.03-.66-.1s-.34-.15-.46-.26-.21-.23-.27-.36l.54-.25c.04.06.09.13.16.2s.15.13.27.18.25.07.43.07c.25,0,.45-.06.61-.18.16-.12.23-.3.23-.56v-.64h-.06c-.04.07-.09.15-.16.23s-.17.16-.29.22c-.12.06-.29.09-.48.09-.26,0-.49-.06-.7-.18s-.37-.3-.49-.54-.18-.53-.18-.88.06-.65.18-.9c.12-.25.28-.44.49-.57s.44-.2.7-.2c.2,0,.36.03.49.1s.22.14.3.24c.07.09.13.17.16.24h.05v-.53h.63v3.32c0,.29-.06.52-.19.71-.13.19-.31.32-.53.41s-.48.13-.76.13ZM246.69,19.52c.18,0,.34-.04.46-.13.13-.09.22-.21.29-.37.06-.16.1-.35.1-.58s-.03-.41-.1-.58-.16-.3-.29-.39-.28-.14-.46-.14-.35.05-.47.15c-.13.1-.22.23-.29.4-.06.17-.1.36-.1.56s.03.4.1.56c.06.16.16.29.29.38s.29.13.47.13Z"/>
        <path class="cls-15" d="M226.48,27.31v-4.37h1.56c.34,0,.62.06.84.17.22.12.39.28.5.49s.17.44.17.71-.06.51-.17.71c-.11.2-.28.36-.51.47s-.51.17-.84.17h-1.17v-.57h1.11c.21,0,.39-.03.52-.09.13-.06.23-.15.29-.27s.09-.25.09-.42-.03-.31-.09-.42-.16-.21-.29-.28-.31-.1-.52-.1h-.82v3.79h-.67ZM228.97,27.31l-1.06-1.97h.74l1.08,1.97h-.76Z"/>
        <path class="cls-15" d="M231.21,27.38c-.21,0-.39-.04-.56-.12-.17-.08-.3-.19-.4-.34s-.15-.33-.15-.54c0-.19.04-.34.11-.46s.17-.21.29-.28.26-.12.41-.16.3-.06.46-.08c.19-.02.35-.04.47-.06.12-.02.21-.04.27-.07.06-.03.09-.09.09-.17v-.02c0-.12-.02-.23-.07-.31s-.12-.15-.21-.19-.21-.07-.35-.07-.27.02-.37.07c-.1.04-.19.1-.25.17s-.11.14-.14.21l-.61-.16c.07-.2.18-.35.32-.47s.3-.21.48-.26.37-.08.56-.08c.13,0,.27.02.42.05s.29.09.42.17.24.2.32.35.12.34.12.58v2.17h-.62v-.45h-.03c-.04.08-.11.17-.19.25s-.19.15-.32.2c-.13.05-.28.08-.46.08ZM231.35,26.87c.18,0,.33-.03.45-.1s.22-.16.29-.27.1-.23.1-.36v-.42s-.07.04-.13.06c-.07.02-.14.04-.22.05-.08.01-.17.03-.24.04s-.14.02-.19.02c-.12.02-.23.04-.33.08s-.18.09-.24.16-.09.16-.09.27c0,.1.03.19.08.26s.13.12.22.16.2.05.32.05Z"/>
        <path class="cls-15" d="M234.92,27.38c-.27,0-.5-.07-.71-.2s-.37-.33-.49-.58c-.12-.25-.18-.55-.18-.91s.06-.66.18-.91.28-.44.49-.58.44-.2.7-.2c.2,0,.37.03.49.1.12.07.22.15.29.24s.12.17.16.24h.04v-1.62h.64v4.37h-.63v-.51h-.05c-.04.07-.09.15-.16.24s-.17.17-.3.24c-.12.07-.29.1-.48.1ZM235.06,26.83c.18,0,.34-.05.46-.15s.22-.23.29-.41c.07-.17.1-.37.1-.6s-.03-.43-.1-.6-.16-.3-.29-.4c-.13-.09-.28-.14-.47-.14s-.35.05-.47.15-.22.24-.28.41-.1.36-.1.58.03.41.1.59.16.31.29.41.28.15.47.15Z"/>
        <path class="cls-15" d="M237.73,23.53c-.11,0-.21-.04-.29-.11s-.12-.17-.12-.27.04-.2.12-.27.17-.11.29-.11.21.04.29.11.12.17.12.27-.04.2-.12.27-.18.11-.29.11ZM237.41,27.31v-3.28h.64v3.28h-.64Z"/>
        <path class="cls-15" d="M240.04,27.35c-.22,0-.42-.05-.59-.14s-.3-.23-.39-.42-.14-.41-.14-.68v-2.08h.64v2c0,.24.06.42.19.55s.29.2.51.2c.15,0,.28-.03.39-.1.11-.06.2-.16.27-.28s.1-.27.1-.44v-1.94h.64v3.28h-.62v-.8s.06,0,.06,0c-.1.3-.24.51-.42.64s-.4.2-.65.2Z"/>
        <path class="cls-15" d="M243.7,27.38c-.24,0-.45-.03-.63-.1s-.34-.17-.45-.3-.2-.3-.24-.49l.61-.13c.04.17.13.3.25.38s.28.12.47.12c.21,0,.37-.04.5-.13s.18-.19.18-.31c0-.11-.04-.19-.11-.26s-.19-.12-.35-.15l-.55-.13c-.3-.07-.53-.18-.68-.33s-.22-.34-.22-.58c0-.2.05-.37.16-.51s.26-.26.45-.34c.19-.08.41-.12.66-.12s.44.03.61.1.3.16.41.29.18.27.22.43l-.58.13c-.04-.12-.11-.22-.21-.3s-.25-.13-.44-.13c-.18,0-.33.04-.45.12s-.18.18-.18.3c0,.11.04.2.12.26.08.07.21.12.39.16l.53.12c.3.07.53.18.67.32s.22.33.22.56c0,.2-.06.38-.17.53-.11.15-.27.27-.47.36-.2.09-.44.13-.7.13Z"/>
      </g>
      <g>
        <path class="cls-2" d="M239.81,106.83v-6.55h2.24c.51,0,.93.09,1.26.28.33.19.57.44.73.75.16.31.24.67.24,1.05s-.08.74-.24,1.06c-.16.32-.4.57-.73.76s-.75.28-1.26.28h-1.59v-.73h1.55c.35,0,.62-.06.83-.18.21-.12.36-.28.46-.49.1-.21.14-.44.14-.7s-.05-.49-.14-.69c-.09-.2-.25-.36-.46-.48-.21-.12-.49-.18-.84-.18h-1.36v5.81h-.83Z"/>
        <path class="cls-2" d="M245.47,106.83v-4.91h.76v.76h.05c.09-.25.25-.45.49-.6.23-.15.5-.23.79-.23.06,0,.13,0,.21,0,.08,0,.14,0,.19,0v.8s-.08-.01-.18-.03-.19-.02-.3-.02c-.23,0-.45.05-.63.15-.19.1-.33.23-.44.4-.11.17-.16.37-.16.59v3.08h-.79Z"/>
        <path class="cls-2" d="M250.7,106.94c-.45,0-.84-.11-1.17-.32-.34-.21-.6-.51-.78-.89s-.28-.82-.28-1.33.09-.96.28-1.34c.19-.38.45-.68.78-.89.33-.21.73-.32,1.17-.32s.84.11,1.18.32.6.51.79.89c.19.38.28.83.28,1.34s-.09.95-.28,1.33-.45.68-.79.89-.73.32-1.18.32ZM250.7,106.23c.33,0,.6-.08.82-.25s.37-.39.47-.67c.1-.28.15-.58.15-.9s-.05-.63-.15-.91c-.1-.28-.26-.51-.47-.68-.21-.17-.49-.26-.82-.26s-.6.09-.81.26c-.21.17-.37.4-.47.67s-.15.58-.15.91.05.62.15.9c.1.28.26.5.47.67s.48.25.81.25Z"/>
        <path class="cls-2" d="M253.49,106.83l1.94-2.83v.61s-1.84-2.69-1.84-2.69h.92l.61.95c.16.25.29.48.41.69.12.21.24.42.36.62h-.41c.13-.2.24-.41.34-.62.1-.21.24-.44.4-.69l.62-.95h.91l-1.84,2.73v-.58l1.92,2.77h-.92l-.72-1.1c-.16-.24-.29-.46-.4-.67-.11-.21-.23-.41-.35-.6h.42c-.12.19-.23.39-.33.6-.1.21-.23.43-.39.67l-.73,1.1h-.91Z"/>
        <path class="cls-2" d="M259.21,101.12c-.15,0-.28-.05-.39-.15s-.16-.23-.16-.37.05-.27.16-.37c.11-.1.24-.15.39-.15s.28.05.39.15c.11.1.16.22.16.37s-.05.27-.16.37-.24.15-.39.15ZM258.81,106.83v-4.91h.79v4.91h-.79Z"/>
        <path class="cls-2" d="M260.99,106.83v-4.91h.77v1.1s-.06,0-.06,0c.07-.27.17-.49.32-.66.15-.17.31-.31.51-.39.19-.09.4-.13.61-.13.36,0,.65.11.87.33.22.22.36.51.43.87h-.11c.06-.25.17-.46.32-.64s.34-.32.57-.41c.22-.1.46-.14.72-.14.28,0,.54.06.78.18s.42.31.56.56c.14.25.21.56.21.95v3.31h-.79v-3.29c0-.35-.1-.61-.3-.76s-.43-.23-.69-.23c-.22,0-.41.05-.57.14-.16.09-.28.22-.37.38-.09.16-.13.35-.13.55v3.21h-.79v-3.37c0-.27-.09-.49-.27-.66s-.41-.25-.69-.25c-.19,0-.37.04-.54.13-.17.09-.3.22-.41.4s-.15.39-.15.66v3.09h-.79Z"/>
        <path class="cls-2" d="M269.28,101.12c-.15,0-.28-.05-.39-.15s-.16-.23-.16-.37.05-.27.16-.37c.11-.1.24-.15.39-.15s.28.05.39.15c.11.1.16.22.16.37s-.05.27-.16.37-.24.15-.39.15ZM268.88,106.83v-4.91h.79v4.91h-.79Z"/>
        <path class="cls-2" d="M272.99,101.92v.68h-2.54v-.68h2.54ZM271.19,100.75h.79v4.81c0,.22.04.38.13.48.09.1.24.15.45.15.05,0,.11,0,.19-.02.08-.01.15-.02.21-.04l.16.67c-.08.03-.17.05-.28.07-.1.01-.21.02-.31.02-.42,0-.76-.11-.99-.34-.24-.22-.36-.54-.36-.94v-4.87Z"/>
        <path class="cls-2" d="M274.1,108.61l.2-.69.08.02c.16.04.31.05.44.03.13-.02.25-.08.36-.2s.2-.28.28-.52l.14-.41-1.88-4.94h.87l1.05,2.91c.11.3.21.61.28.91s.16.59.24.87h-.29c.08-.28.17-.57.24-.87.08-.3.17-.6.28-.9l1.05-2.91h.86l-2.16,5.65c-.1.26-.22.48-.36.64-.14.17-.3.29-.49.37-.18.08-.39.12-.62.12-.14,0-.26-.01-.37-.03s-.17-.04-.21-.06Z"/>
        <path class="cls-2" d="M281.86,106.83v-6.55h.83v5.81h3.03v.74h-3.87Z"/>
        <path class="cls-2" d="M288.23,106.95c-.31,0-.59-.06-.85-.18-.25-.12-.45-.29-.6-.51s-.22-.5-.22-.82c0-.28.06-.51.17-.69s.26-.31.45-.42c.19-.1.39-.18.62-.23s.45-.09.68-.12c.29-.04.53-.07.72-.09s.32-.06.41-.11c.09-.05.13-.13.13-.25v-.03c0-.21-.04-.38-.11-.52-.08-.14-.19-.25-.34-.33s-.34-.11-.57-.11-.43.04-.6.11-.3.17-.41.28c-.1.11-.18.22-.23.34l-.76-.25c.13-.3.3-.53.51-.7.21-.17.45-.29.71-.36s.51-.11.76-.11c.16,0,.35.02.56.06.21.04.41.12.61.23.2.12.36.29.48.52.13.23.19.54.19.92v3.24h-.78v-.67h-.05c-.06.11-.15.23-.27.35-.12.12-.28.22-.48.31s-.43.12-.71.12ZM288.37,106.25c.29,0,.54-.06.74-.17s.36-.26.46-.45c.11-.18.16-.37.16-.57v-.68s-.1.07-.21.1c-.11.03-.23.06-.37.08-.14.02-.27.04-.4.06-.13.02-.23.03-.31.04-.19.02-.37.06-.53.12-.17.06-.3.14-.4.25-.1.11-.15.26-.15.45,0,.17.04.31.13.43s.21.2.36.26.33.09.52.09Z"/>
        <path class="cls-2" d="M294.19,106.94c-.31,0-.56-.05-.75-.16-.19-.11-.34-.23-.44-.37-.1-.14-.18-.25-.24-.34h-.09v.76h-.76v-6.55h.79v2.42h.06c.06-.09.13-.2.23-.33.1-.13.24-.25.43-.36s.44-.16.76-.16c.41,0,.77.1,1.08.31.31.21.56.5.73.88.18.38.27.83.27,1.35s-.09.97-.26,1.35-.42.67-.73.88c-.31.21-.67.31-1.08.31ZM294.07,106.23c.31,0,.56-.08.77-.25.21-.17.36-.39.47-.67.1-.28.16-.59.16-.93s-.05-.65-.15-.92c-.1-.27-.26-.49-.46-.65-.21-.16-.46-.24-.78-.24s-.55.08-.76.23-.36.36-.46.64c-.1.27-.16.59-.16.95s.05.68.16.96.26.5.47.65c.21.16.46.23.75.23Z"/>
        <path class="cls-2" d="M299.48,106.94c-.47,0-.88-.11-1.23-.32-.34-.21-.61-.51-.79-.88-.19-.38-.28-.82-.28-1.32s.09-.95.27-1.33.44-.68.77-.9c.33-.22.72-.33,1.17-.33.26,0,.52.04.77.13.25.09.48.23.69.42.21.19.37.44.49.76s.18.7.18,1.15v.33h-3.81v-.67h3.39l-.37.25c0-.32-.05-.61-.15-.86-.1-.25-.25-.45-.45-.59-.2-.14-.45-.21-.74-.21s-.55.07-.76.22c-.21.14-.37.33-.48.57-.11.23-.17.48-.17.75v.44c0,.36.06.67.19.92.13.25.3.45.53.58.23.13.49.2.79.2.19,0,.37-.03.53-.08s.29-.14.41-.25c.11-.11.2-.25.26-.42l.76.21c-.08.25-.21.46-.39.65s-.41.33-.67.44c-.27.11-.57.16-.91.16Z"/>
        <path class="cls-2" d="M303.46,100.29v6.55h-.79v-6.55h.79Z"/>
        <path class="cls-2" d="M305.64,100.29v6.55h-.79v-6.55h.79Z"/>
        <path class="cls-2" d="M307.42,101.12c-.15,0-.28-.05-.39-.15s-.16-.23-.16-.37.05-.27.16-.37c.11-.1.24-.15.39-.15s.28.05.39.15c.11.1.16.22.16.37s-.05.27-.16.37-.24.15-.39.15ZM307.02,106.83v-4.91h.79v4.91h-.79Z"/>
        <path class="cls-2" d="M309.99,103.89v2.94h-.79v-4.91h.76v1.19s-.11,0-.11,0c.15-.45.36-.78.64-.97.28-.19.6-.29.97-.29.33,0,.62.07.87.2.25.14.44.34.58.62.14.27.21.62.21,1.04v3.12h-.79v-3.05c0-.38-.1-.67-.3-.89-.2-.21-.47-.32-.81-.32-.23,0-.45.05-.63.15s-.33.25-.44.45-.16.44-.16.72Z"/>
        <path class="cls-2" d="M316.51,108.78c-.36,0-.68-.05-.94-.14-.26-.09-.49-.21-.66-.37s-.31-.32-.42-.5l.64-.41c.07.09.16.2.26.31.1.11.25.21.42.29.18.08.41.12.7.12.39,0,.71-.09.97-.28.25-.19.38-.48.38-.89v-.98h-.07c-.06.09-.13.21-.24.33-.1.13-.25.24-.44.34-.19.1-.44.15-.76.15-.39,0-.75-.09-1.06-.28-.31-.19-.56-.46-.74-.82s-.27-.79-.27-1.3.09-.95.27-1.32c.18-.37.42-.66.74-.87.31-.21.68-.31,1.08-.31.32,0,.57.05.76.16.19.1.33.22.44.36s.18.25.24.33h.08v-.79h.77v5.04c0,.42-.09.77-.29,1.04-.19.27-.45.46-.77.59-.32.13-.68.19-1.08.19ZM316.49,106.05c.3,0,.55-.07.76-.2.21-.14.36-.33.47-.59.11-.26.16-.56.16-.92s-.05-.66-.16-.92c-.1-.26-.26-.47-.46-.62-.21-.15-.46-.23-.76-.23s-.57.08-.78.24c-.21.16-.36.37-.47.64-.1.27-.16.56-.16.89s.05.63.16.89.26.46.47.6c.21.15.47.22.77.22Z"/>
        <path class="cls-2" d="M319.91,108.41l.39-2.49h.91l-.69,2.49h-.61ZM320.77,103.34c-.16,0-.3-.06-.42-.17-.12-.12-.17-.26-.17-.42s.06-.3.17-.42c.12-.12.26-.17.42-.17s.3.06.42.17c.12.12.17.25.17.42s-.06.3-.17.42c-.12.12-.25.17-.42.17Z"/>
        <path class="cls-2" d="M270.15,117.63v-6.55h2.32c.46,0,.83.08,1.13.24.3.16.52.37.66.63.15.26.22.55.22.87,0,.28-.05.51-.15.7-.1.18-.23.33-.39.44-.16.11-.34.19-.53.24v.06c.21.01.41.08.61.21.2.13.37.31.51.55.14.24.2.53.2.87s-.08.62-.23.89c-.15.26-.39.47-.71.63-.32.15-.74.23-1.26.23h-2.4ZM270.98,113.96h1.44c.23,0,.45-.05.64-.14.19-.09.34-.22.45-.39.11-.17.17-.37.17-.59,0-.28-.1-.52-.3-.72-.2-.2-.51-.29-.93-.29h-1.47v2.14ZM270.98,116.9h1.54c.51,0,.87-.1,1.09-.29.21-.2.32-.44.32-.72,0-.22-.06-.42-.17-.61s-.27-.33-.47-.44c-.2-.11-.45-.17-.73-.17h-1.58v2.23Z"/>
        <path class="cls-2" d="M276.34,111.92c-.15,0-.28-.05-.39-.15s-.16-.23-.16-.37.05-.27.16-.37c.11-.1.24-.15.39-.15s.28.05.39.15c.11.1.16.22.16.37s-.05.27-.16.37-.24.15-.39.15ZM275.94,117.63v-4.91h.79v4.91h-.79Z"/>
        <path class="cls-2" d="M280.12,117.74c-.45,0-.84-.11-1.17-.32-.33-.21-.6-.51-.78-.89s-.28-.82-.28-1.33.09-.96.28-1.34c.19-.38.45-.68.78-.89.34-.21.73-.32,1.17-.32s.84.11,1.18.32.6.51.79.89c.19.38.28.83.28,1.34s-.09.95-.28,1.33-.45.68-.79.89-.73.32-1.18.32ZM280.12,117.03c.33,0,.6-.08.82-.25s.37-.39.47-.67c.1-.28.15-.58.15-.9s-.05-.63-.15-.91c-.1-.28-.26-.51-.47-.68-.21-.17-.49-.26-.82-.26s-.6.09-.81.26c-.21.17-.37.4-.47.67s-.15.58-.15.91.05.62.15.9c.1.28.26.5.47.67s.48.25.81.25Z"/>
        <path class="cls-2" d="M284.45,111.09v6.55h-.83v-6.55h.83Z"/>
        <path class="cls-2" d="M286.86,111.09v6.55h-.83v-6.55h.83ZM288.07,117.63h-1.58v-.74h1.53c.53,0,.97-.1,1.32-.31.35-.2.61-.5.79-.88s.26-.84.26-1.37-.09-.97-.26-1.35c-.17-.38-.43-.67-.76-.87-.34-.2-.76-.3-1.27-.3h-1.64v-.74h1.7c.64,0,1.18.13,1.64.39.45.26.8.64,1.04,1.12.24.49.36,1.07.36,1.75s-.12,1.27-.36,1.76c-.24.49-.6.87-1.06,1.13s-1.03.4-1.7.4Z"/>
      </g>
      <g>
        <path class="cls-2" d="M166.19,106.83v-6.55h3.99v.74h-3.16v2.14h2.94v.74h-2.94v2.2h3.19v.74h-4.03Z"/>
        <path class="cls-2" d="M172.29,103.89v2.94h-.79v-4.91h.76v1.19s-.11,0-.11,0c.15-.45.36-.78.64-.97.28-.19.6-.29.97-.29.33,0,.62.07.87.2.25.14.44.34.58.62.14.27.21.62.21,1.04v3.12h-.79v-3.05c0-.38-.1-.67-.3-.89-.2-.21-.47-.32-.81-.32-.23,0-.45.05-.63.15s-.34.25-.44.45-.16.44-.16.72Z"/>
        <path class="cls-2" d="M176.82,106.83v-4.91h.76v.76h.05c.09-.25.25-.45.49-.6.23-.15.5-.23.79-.23.06,0,.13,0,.21,0,.08,0,.14,0,.19,0v.8s-.08-.01-.18-.03-.19-.02-.3-.02c-.23,0-.44.05-.63.15-.19.1-.33.23-.44.4-.11.17-.16.37-.16.59v3.08h-.79Z"/>
        <path class="cls-2" d="M180.69,101.12c-.15,0-.28-.05-.39-.15s-.16-.23-.16-.37.05-.27.16-.37c.11-.1.24-.15.39-.15s.28.05.39.15c.11.1.16.22.16.37s-.05.27-.16.37-.24.15-.39.15ZM180.29,106.83v-4.91h.79v4.91h-.79Z"/>
        <path class="cls-2" d="M184.47,106.94c-.45,0-.84-.11-1.17-.32s-.6-.51-.78-.89-.28-.82-.28-1.33.09-.96.28-1.34c.19-.38.45-.68.78-.89s.73-.32,1.17-.32c.24,0,.46.03.67.09s.4.15.58.27c.17.12.32.26.45.43.13.17.22.36.29.57l-.76.22c-.04-.13-.09-.24-.16-.35s-.16-.2-.27-.27c-.1-.08-.22-.14-.36-.18-.13-.04-.28-.06-.44-.06-.33,0-.6.09-.81.26-.21.17-.37.4-.47.67s-.15.58-.15.91.05.62.15.9c.1.28.26.5.47.67s.48.25.81.25c.16,0,.31-.02.45-.07s.26-.11.37-.19c.11-.08.2-.18.27-.29s.13-.23.16-.37l.76.22c-.06.22-.16.42-.29.59-.13.17-.28.32-.45.44-.18.12-.37.21-.58.28s-.44.09-.68.09Z"/>
        <path class="cls-2" d="M188.41,103.89v2.94h-.79v-6.55h.79v2.83h-.14c.15-.45.36-.78.64-.97.28-.19.6-.29.97-.29.33,0,.62.07.87.2.25.14.45.34.58.62.14.27.21.62.21,1.04v3.12h-.8v-3.05c0-.38-.1-.67-.3-.89-.2-.21-.47-.32-.81-.32-.23,0-.45.05-.63.15s-.34.25-.44.45-.16.44-.16.72Z"/>
        <path class="cls-2" d="M192.94,106.83v-4.91h.77v1.1s-.06,0-.06,0c.07-.27.17-.49.32-.66.15-.17.31-.31.51-.39s.4-.13.61-.13c.36,0,.65.11.87.33s.36.51.43.87h-.11c.06-.25.17-.46.32-.64s.34-.32.56-.41c.22-.1.46-.14.72-.14.28,0,.54.06.78.18s.42.31.56.56.21.56.21.95v3.31h-.79v-3.29c0-.35-.1-.61-.3-.76s-.43-.23-.69-.23c-.22,0-.41.05-.57.14-.16.09-.28.22-.37.38s-.13.35-.13.55v3.21h-.79v-3.37c0-.27-.09-.49-.27-.66s-.41-.25-.69-.25c-.19,0-.37.04-.54.13-.17.09-.3.22-.41.4s-.15.39-.15.66v3.09h-.79Z"/>
        <path class="cls-2" d="M202.89,106.94c-.47,0-.88-.11-1.23-.32s-.61-.51-.79-.88c-.19-.38-.28-.82-.28-1.32s.09-.95.27-1.33.44-.68.77-.9c.33-.22.72-.33,1.17-.33.26,0,.52.04.77.13.25.09.48.23.69.42.21.19.37.44.49.76s.18.7.18,1.15v.33h-3.81v-.67h3.39l-.37.25c0-.32-.05-.61-.15-.86-.1-.25-.25-.45-.45-.59-.2-.14-.45-.21-.74-.21s-.55.07-.76.22c-.21.14-.37.33-.48.57-.11.23-.17.48-.17.75v.44c0,.36.06.67.19.92.13.25.3.45.53.58.23.13.49.2.79.2.19,0,.37-.03.53-.08s.29-.14.41-.25c.11-.11.2-.25.26-.42l.76.21c-.08.25-.21.46-.39.65s-.41.33-.67.44c-.27.11-.57.16-.91.16Z"/>
        <path class="cls-2" d="M206.86,103.89v2.94h-.79v-4.91h.76v1.19s-.11,0-.11,0c.15-.45.36-.78.64-.97.28-.19.6-.29.97-.29.33,0,.62.07.87.2.25.14.44.34.58.62.14.27.21.62.21,1.04v3.12h-.79v-3.05c0-.38-.1-.67-.3-.89-.2-.21-.47-.32-.81-.32-.23,0-.45.05-.63.15s-.34.25-.44.45-.16.44-.16.72Z"/>
        <path class="cls-2" d="M213.32,101.92v.68h-2.54v-.68h2.54ZM211.52,100.75h.79v4.81c0,.22.04.38.13.48.09.1.24.15.45.15.05,0,.11,0,.19-.02.08-.01.15-.02.21-.04l.16.67c-.08.03-.18.05-.28.07-.1.01-.21.02-.31.02-.42,0-.76-.11-.99-.34-.24-.22-.36-.54-.36-.94v-4.87Z"/>
        <path class="cls-2" d="M174.52,117.63l2.38-6.55h.97l2.41,6.55h-.88l-1.39-3.88c-.08-.24-.18-.54-.3-.9-.11-.36-.25-.82-.41-1.37h.16c-.16.56-.3,1.03-.41,1.39-.12.36-.21.66-.29.88l-1.35,3.88h-.89ZM175.72,115.81v-.73h3.36v.73h-3.36Z"/>
        <path class="cls-2" d="M182.87,117.74c-.34,0-.64-.05-.9-.15-.26-.1-.48-.24-.65-.44s-.28-.43-.34-.71l.75-.18c.07.27.2.47.4.59.19.13.44.19.73.19.34,0,.62-.07.82-.22s.31-.32.31-.52c0-.17-.06-.31-.18-.42-.12-.11-.3-.2-.54-.25l-.82-.19c-.45-.11-.78-.27-.99-.49-.22-.22-.33-.5-.33-.85,0-.28.08-.53.24-.75.16-.21.37-.38.65-.5.27-.12.58-.18.93-.18s.62.05.86.15c.24.1.43.24.58.42.15.18.26.38.33.61l-.72.18c-.07-.18-.18-.33-.34-.48s-.39-.22-.71-.22c-.29,0-.54.07-.73.2s-.29.3-.29.51c0,.18.07.33.2.44.13.11.34.2.63.27l.74.18c.45.11.77.27.99.49.21.22.32.5.32.84,0,.29-.08.54-.24.77-.16.22-.39.4-.68.53s-.63.19-1.01.19Z"/>
        <path class="cls-2" d="M187.62,117.74c-.34,0-.64-.05-.9-.15-.26-.1-.48-.24-.65-.44s-.28-.43-.34-.71l.75-.18c.07.27.2.47.4.59.19.13.44.19.73.19.34,0,.62-.07.82-.22s.31-.32.31-.52c0-.17-.06-.31-.18-.42-.12-.11-.3-.2-.54-.25l-.82-.19c-.45-.11-.78-.27-.99-.49-.22-.22-.33-.5-.33-.85,0-.28.08-.53.24-.75.16-.21.37-.38.65-.5.27-.12.58-.18.93-.18s.62.05.86.15c.24.1.43.24.58.42.15.18.26.38.33.61l-.72.18c-.07-.18-.18-.33-.34-.48s-.39-.22-.71-.22c-.29,0-.54.07-.73.2s-.29.3-.29.51c0,.18.07.33.2.44.13.11.34.2.63.27l.74.18c.45.11.77.27.99.49.21.22.32.5.32.84,0,.29-.08.54-.24.77-.16.22-.39.4-.68.53s-.63.19-1.01.19Z"/>
        <path class="cls-2" d="M192.08,117.75c-.31,0-.59-.06-.85-.18s-.45-.29-.6-.51-.22-.5-.22-.82c0-.28.06-.51.17-.69s.26-.31.45-.42c.19-.1.39-.18.62-.23s.45-.09.68-.12c.29-.04.53-.07.72-.09s.32-.06.41-.11c.09-.05.13-.13.13-.25v-.03c0-.21-.04-.38-.11-.52-.08-.14-.19-.25-.34-.33s-.34-.11-.57-.11-.44.04-.6.11-.3.17-.41.28c-.1.11-.18.22-.23.34l-.76-.25c.13-.3.3-.53.51-.7.21-.17.45-.29.71-.36s.51-.11.76-.11c.16,0,.35.02.56.06.21.04.41.12.61.23s.36.29.48.52c.13.23.19.54.19.92v3.24h-.78v-.67h-.05c-.06.11-.15.23-.27.35-.12.12-.28.22-.48.31s-.43.12-.71.12ZM192.21,117.05c.29,0,.54-.06.74-.17s.36-.26.46-.45c.11-.18.16-.37.16-.57v-.68s-.1.07-.21.1c-.11.03-.23.06-.37.08-.14.02-.27.04-.4.06-.13.02-.23.03-.31.04-.19.02-.37.06-.53.12-.17.06-.3.14-.4.25-.1.11-.15.26-.15.45,0,.17.04.31.13.43s.21.2.36.26.33.09.52.09Z"/>
        <path class="cls-2" d="M195.54,119.41l.2-.69.08.02c.16.04.31.05.44.03.13-.02.25-.08.36-.2s.2-.28.28-.52l.14-.41-1.88-4.94h.87l1.05,2.91c.11.3.21.61.28.91s.16.59.24.87h-.29c.08-.28.17-.57.24-.87.08-.3.17-.6.28-.9l1.05-2.91h.86l-2.16,5.65c-.1.26-.22.48-.36.64-.14.17-.3.29-.49.37-.18.08-.39.12-.62.12-.14,0-.26-.01-.36-.03s-.17-.04-.22-.06Z"/>
        <path class="cls-2" d="M202.35,117.74c-.34,0-.64-.05-.9-.15-.26-.1-.48-.24-.65-.44s-.28-.43-.34-.71l.75-.18c.07.27.2.47.4.59.19.13.44.19.73.19.34,0,.62-.07.82-.22s.31-.32.31-.52c0-.17-.06-.31-.18-.42-.12-.11-.3-.2-.54-.25l-.82-.19c-.45-.11-.78-.27-.99-.49-.22-.22-.33-.5-.33-.85,0-.28.08-.53.24-.75.16-.21.37-.38.65-.5.27-.12.58-.18.93-.18s.62.05.86.15c.24.1.43.24.58.42.15.18.26.38.33.61l-.72.18c-.07-.18-.18-.33-.34-.48s-.39-.22-.71-.22c-.29,0-.54.07-.73.2s-.29.3-.29.51c0,.18.07.33.2.44.13.11.34.2.63.27l.74.18c.45.11.77.27.99.49.21.22.32.5.32.84,0,.29-.08.54-.24.77-.16.22-.39.4-.68.53s-.63.19-1.01.19Z"/>
      </g>
      <g>
        <path class="cls-2" d="M171.72,75.53v4.37h-.67v-4.37h.67ZM172.47,79.9h-1.08v-.59h1.04c.33,0,.6-.06.82-.18s.38-.3.49-.54c.11-.24.16-.53.16-.87s-.05-.63-.16-.87-.27-.42-.48-.54-.48-.18-.8-.18h-1.1v-.59h1.15c.43,0,.8.09,1.1.26s.54.42.71.75c.16.32.25.71.25,1.17s-.08.85-.25,1.17-.4.58-.72.75-.69.26-1.14.26Z"/>
        <path class="cls-2" d="M175.38,79.9v-4.37h.77l1.64,2.6c.05.09.12.19.18.31s.14.25.22.4c.08.15.15.31.23.49h-.08c-.02-.17-.03-.33-.04-.49,0-.16-.02-.32-.02-.46s0-.26,0-.36v-2.48h.68v4.37h-.77l-1.47-2.32c-.08-.13-.15-.25-.23-.38s-.16-.28-.25-.45c-.09-.17-.2-.37-.33-.62h.11c0,.21.02.42.03.6s.02.35.02.49c0,.14,0,.26,0,.34v2.33h-.68Z"/>
        <path class="cls-2" d="M179.59,79.9l1.55-4.37h.82l1.58,4.37h-.72l-.85-2.43c-.07-.2-.14-.43-.22-.7s-.17-.59-.27-.96h.13c-.1.38-.19.7-.27.97s-.15.5-.21.69l-.82,2.43h-.72ZM180.43,78.75v-.56h2.27v.56h-2.27Z"/>
        <path class="cls-2" d="M184.06,80.99l.26-1.71h.69l-.48,1.71h-.47ZM184.68,77.64c-.12,0-.22-.04-.31-.13s-.13-.19-.13-.31.04-.22.13-.3.19-.12.31-.12.22.04.3.12.13.18.13.3-.04.22-.13.31-.19.13-.3.13Z"/>
        <path class="cls-2" d="M187.67,79.9v-4.37h1.56c.34,0,.62.06.84.17.22.12.39.28.5.49s.17.44.17.71-.06.51-.17.71c-.11.2-.28.36-.51.47s-.51.17-.84.17h-1.17v-.57h1.11c.21,0,.39-.03.52-.09.13-.06.23-.15.29-.27s.09-.25.09-.42-.03-.31-.09-.42-.16-.21-.29-.28-.31-.1-.52-.1h-.82v3.79h-.67ZM190.15,79.9l-1.06-1.97h.74l1.08,1.97h-.76Z"/>
        <path class="cls-2" d="M191.56,79.9v-4.37h.77l1.64,2.6c.05.09.12.19.18.31s.14.25.22.4c.08.15.15.31.23.49h-.08c-.02-.17-.03-.33-.04-.49,0-.16-.02-.32-.02-.46s0-.26,0-.36v-2.48h.68v4.37h-.77l-1.47-2.32c-.08-.13-.15-.25-.23-.38s-.16-.28-.25-.45c-.09-.17-.2-.37-.33-.62h.11c0,.21.02.42.03.6s.02.35.02.49c0,.14,0,.26,0,.34v2.33h-.68Z"/>
        <path class="cls-2" d="M195.76,79.9l1.55-4.37h.82l1.58,4.37h-.72l-.85-2.43c-.07-.2-.14-.43-.22-.7s-.17-.59-.27-.96h.13c-.1.38-.19.7-.27.97s-.15.5-.21.69l-.82,2.43h-.72ZM196.6,78.75v-.56h2.27v.56h-2.27Z"/>
        <path class="cls-2" d="M200.23,80.99l.26-1.71h.69l-.48,1.71h-.47ZM200.85,77.64c-.12,0-.22-.04-.31-.13s-.13-.19-.13-.31.04-.22.13-.3.19-.12.31-.12.22.04.3.12.13.18.13.3-.04.22-.13.31-.19.13-.3.13Z"/>
        <path class="cls-2" d="M203.84,79.9v-4.37h.67v3.79h1.98v.57h-2.65Z"/>
        <path class="cls-2" d="M207.23,79.9v-4.37h.77l1.64,2.6c.05.09.12.19.18.31s.14.25.22.4c.08.15.15.31.23.49h-.08c-.02-.17-.03-.33-.04-.49,0-.16-.02-.32-.02-.46s0-.26,0-.36v-2.48h.68v4.37h-.77l-1.47-2.32c-.08-.13-.15-.25-.23-.38s-.16-.28-.25-.45c-.09-.17-.2-.37-.33-.62h.11c0,.21.02.42.03.6s.02.35.02.49c0,.14,0,.26,0,.34v2.33h-.68Z"/>
        <path class="cls-2" d="M211.77,79.9v-4.37h1.56c.34,0,.62.06.84.19s.39.29.5.51.17.45.17.72-.06.51-.17.72c-.11.21-.28.38-.51.51s-.51.19-.84.19h-1.07v-.57h1c.21,0,.39-.04.52-.11s.23-.18.29-.3.09-.27.09-.44-.03-.31-.09-.44-.16-.23-.29-.3-.31-.11-.53-.11h-.82v3.79h-.67Z"/>
        <path class="cls-2" d="M215.5,80.99l.26-1.71h.69l-.48,1.71h-.47ZM216.12,77.64c-.12,0-.22-.04-.31-.13s-.13-.19-.13-.31.04-.22.13-.3.19-.12.31-.12.22.04.3.12.13.18.13.3-.04.22-.13.31-.19.13-.3.13Z"/>
        <path class="cls-2" d="M167.34,87.1v-4.37h1.56c.34,0,.62.06.84.19s.39.29.5.51.17.45.17.72-.06.51-.17.72c-.11.21-.28.38-.51.51s-.51.19-.84.19h-1.07v-.57h1c.21,0,.39-.04.52-.11s.23-.18.29-.3.09-.27.09-.44-.03-.31-.09-.44-.16-.23-.29-.3-.31-.11-.53-.11h-.82v3.79h-.67Z"/>
        <path class="cls-2" d="M172.51,87.17c-.32,0-.6-.07-.83-.21s-.41-.33-.54-.59-.19-.55-.19-.89.06-.63.19-.89.3-.46.53-.6c.23-.14.49-.21.8-.21.19,0,.37.03.54.09.17.06.33.16.47.29s.25.3.33.51c.08.21.12.46.12.76v.23h-2.61v-.48h2.28l-.3.16c0-.2-.03-.38-.09-.53s-.15-.27-.28-.36-.27-.13-.46-.13-.34.04-.47.13-.23.2-.29.35c-.07.14-.1.3-.1.47v.33c0,.22.04.41.12.57.08.15.19.27.32.35.14.08.3.12.48.12.12,0,.23-.02.33-.05.1-.03.18-.08.25-.15s.13-.16.16-.26l.61.14c-.05.17-.14.32-.27.45s-.28.23-.46.3c-.18.07-.39.11-.63.11Z"/>
        <path class="cls-2" d="M174.62,88.32v-4.5h.63v.53h.05c.04-.07.09-.15.16-.24s.17-.17.29-.24c.12-.07.29-.1.49-.1.26,0,.5.07.7.2s.37.33.49.58.18.56.18.91-.06.65-.18.91c-.12.25-.28.45-.48.58s-.44.2-.71.2c-.2,0-.36-.03-.48-.1-.13-.07-.22-.15-.3-.24s-.13-.17-.17-.24h-.04v1.74h-.64ZM176.1,86.62c.19,0,.34-.05.47-.15s.22-.24.29-.41.1-.37.1-.59-.03-.41-.1-.58-.16-.31-.28-.41-.28-.15-.47-.15-.34.05-.47.14c-.13.1-.22.23-.29.4s-.1.37-.1.6.03.43.1.6c.07.17.16.31.29.41s.28.15.46.15Z"/>
        <path class="cls-2" d="M179.73,83.82v.52h-1.78v-.52h1.78ZM178.43,83.04h.64v3.17c0,.13.03.23.08.29.06.06.15.09.27.09.03,0,.08,0,.13-.01s.1-.02.14-.02l.11.52c-.07.02-.14.04-.22.05s-.16.02-.23.02c-.3,0-.53-.08-.69-.23s-.25-.37-.25-.65v-3.22Z"/>
        <path class="cls-2" d="M180.7,83.32c-.11,0-.21-.04-.29-.11s-.12-.17-.12-.27.04-.2.12-.27.17-.11.29-.11.21.04.29.11.12.17.12.27-.04.2-.12.27-.18.11-.29.11ZM180.37,87.1v-3.28h.64v3.28h-.64Z"/>
        <path class="cls-2" d="M183.1,87.16c-.27,0-.5-.07-.71-.2s-.37-.33-.49-.58c-.12-.25-.18-.55-.18-.91s.06-.66.18-.91.28-.44.49-.58.44-.2.7-.2c.2,0,.37.03.49.1.12.07.22.15.29.24s.12.17.16.24h.04v-1.62h.64v4.37h-.63v-.51h-.05c-.04.07-.09.15-.16.24s-.17.17-.3.24c-.12.07-.29.1-.48.1ZM183.24,86.62c.18,0,.34-.05.46-.15s.22-.23.29-.41c.07-.17.1-.37.1-.6s-.03-.43-.1-.6-.16-.3-.29-.4c-.13-.09-.28-.14-.47-.14s-.35.05-.47.15-.22.24-.28.41-.1.36-.1.58.03.41.1.59.16.31.29.41.28.15.47.15Z"/>
        <path class="cls-2" d="M187.01,87.17c-.32,0-.6-.07-.83-.21s-.41-.33-.54-.59-.19-.55-.19-.89.06-.63.19-.89.3-.46.53-.6c.23-.14.49-.21.8-.21.19,0,.37.03.54.09.17.06.33.16.47.29s.25.3.33.51c.08.21.12.46.12.76v.23h-2.61v-.48h2.28l-.3.16c0-.2-.03-.38-.09-.53s-.15-.27-.28-.36-.27-.13-.46-.13-.34.04-.47.13-.23.2-.29.35c-.07.14-.1.3-.1.47v.33c0,.22.04.41.12.57.08.15.19.27.32.35.14.08.3.12.48.12.12,0,.23-.02.33-.05.1-.03.18-.08.25-.15s.13-.16.16-.26l.61.14c-.05.17-.14.32-.27.45s-.28.23-.46.3c-.18.07-.39.11-.63.11Z"/>
        <path class="cls-2" d="M189.05,88.19l.26-1.71h.69l-.48,1.71h-.47ZM189.67,84.84c-.12,0-.22-.04-.31-.13s-.13-.19-.13-.31.04-.22.13-.3.19-.12.31-.12.22.04.3.12.13.18.13.3-.04.22-.13.31-.19.13-.3.13Z"/>
        <path class="cls-2" d="M193.88,87.16c-.29,0-.55-.05-.76-.16s-.38-.25-.49-.43-.17-.38-.17-.61c0-.19.04-.35.11-.49s.18-.26.31-.38.29-.24.46-.36l.71-.5c.05-.04.11-.08.17-.14s.11-.11.15-.18.06-.15.06-.24c0-.12-.04-.23-.13-.31-.08-.08-.2-.12-.35-.12-.1,0-.19.02-.27.06s-.14.1-.18.17-.06.16-.06.25c0,.11.02.21.07.3s.12.2.2.31c.08.11.18.23.29.36l2.03,2.42h-.73l-1.68-1.97c-.14-.17-.28-.33-.4-.48s-.22-.29-.29-.45c-.07-.15-.11-.32-.11-.49,0-.2.05-.38.14-.53s.22-.28.39-.36.36-.13.58-.13.42.04.58.13c.16.09.29.2.37.35s.13.31.13.49c0,.13-.02.26-.07.37s-.12.22-.2.32-.19.19-.3.28l-.88.64c-.16.12-.27.23-.34.33s-.1.22-.1.35.03.25.1.35.15.18.27.23.24.08.39.08c.17,0,.33-.04.49-.11s.3-.17.43-.3c.13-.13.23-.29.3-.48s.11-.39.11-.62h.58c0,.28-.03.52-.1.71s-.14.35-.23.48-.18.22-.26.29l-.15.13c-.15.15-.33.26-.54.33s-.42.11-.62.11Z"/>
        <path class="cls-2" d="M200,87.16c-.38,0-.71-.09-1.01-.27-.3-.18-.53-.44-.7-.77-.17-.33-.26-.73-.26-1.2s.09-.87.26-1.2c.17-.33.41-.59.7-.77s.64-.27,1.01-.27.71.09,1.01.27.53.44.7.77c.17.34.26.74.26,1.2s-.09.87-.26,1.2c-.17.34-.4.59-.7.77-.3.18-.63.27-1.01.27ZM200,86.55c.25,0,.47-.06.67-.19s.35-.31.47-.55c.11-.24.17-.54.17-.89s-.06-.65-.17-.9c-.11-.24-.27-.43-.47-.55-.2-.12-.42-.19-.67-.19s-.47.06-.67.19-.35.31-.47.55c-.11.24-.17.54-.17.89s.06.65.17.89.27.43.47.55.42.19.67.19Z"/>
        <path class="cls-2" d="M204.13,83.82v.52h-1.78v-.52h1.78ZM202.83,83.04h.64v3.17c0,.13.03.23.08.29.06.06.15.09.27.09.03,0,.08,0,.13-.01s.1-.02.14-.02l.11.52c-.07.02-.14.04-.22.05s-.16.02-.23.02c-.3,0-.53-.08-.69-.23s-.25-.37-.25-.65v-3.22Z"/>
        <path class="cls-2" d="M205.42,85.16v1.94h-.64v-4.37h.64v1.89h-.08c.1-.29.23-.51.42-.64s.4-.2.66-.2c.22,0,.42.05.58.14s.3.23.39.41c.09.18.14.41.14.68v2.08h-.64v-2c0-.24-.06-.42-.18-.55s-.29-.2-.51-.2c-.14,0-.27.03-.39.1s-.21.16-.27.28-.1.27-.1.44Z"/>
        <path class="cls-2" d="M209.8,87.17c-.32,0-.6-.07-.83-.21s-.41-.33-.54-.59-.19-.55-.19-.89.06-.63.19-.89.3-.46.53-.6c.23-.14.49-.21.8-.21.19,0,.37.03.54.09.17.06.33.16.47.29s.25.3.33.51c.08.21.12.46.12.76v.23h-2.61v-.48h2.28l-.3.16c0-.2-.03-.38-.09-.53s-.15-.27-.28-.36-.27-.13-.46-.13-.34.04-.47.13-.23.2-.29.35c-.07.14-.1.3-.1.47v.33c0,.22.04.41.12.57.08.15.19.27.32.35.14.08.3.12.48.12.12,0,.23-.02.33-.05.1-.03.18-.08.25-.15s.13-.16.16-.26l.61.14c-.05.17-.14.32-.27.45s-.28.23-.46.3c-.18.07-.39.11-.63.11Z"/>
        <path class="cls-2" d="M211.91,87.1v-3.28h.62v.53h.04c.06-.18.17-.32.32-.42s.32-.15.51-.15c.04,0,.09,0,.14,0,.05,0,.1,0,.13.01v.62s-.07-.02-.13-.02-.13-.01-.2-.01c-.15,0-.28.03-.4.09s-.21.15-.28.26-.1.24-.1.38v1.99h-.64Z"/>
        <path class="cls-2" d="M215.41,87.17c-.24,0-.45-.03-.63-.1s-.34-.17-.45-.3-.2-.3-.24-.49l.61-.13c.04.17.13.3.25.38s.28.12.47.12c.21,0,.37-.04.5-.13s.18-.19.18-.31c0-.11-.04-.19-.11-.26s-.19-.12-.35-.15l-.55-.13c-.3-.07-.53-.18-.68-.33s-.22-.34-.22-.58c0-.2.05-.37.16-.51s.26-.26.45-.34c.19-.08.41-.12.66-.12s.44.03.61.1.3.16.41.29.18.27.22.43l-.58.13c-.04-.12-.11-.22-.21-.3s-.25-.13-.44-.13c-.18,0-.33.04-.45.12s-.18.18-.18.3c0,.11.04.2.12.26.08.07.21.12.39.16l.53.12c.3.07.53.18.67.32s.22.33.22.56c0,.2-.06.38-.17.53-.11.15-.27.27-.47.36-.2.09-.44.13-.7.13Z"/>
      </g>
      <text class="cls-39" transform="translate(3.46 114.5)"><tspan x="0" y="0">Immunop</tspan><tspan class="cls-42" x="39.73" y="0">r</tspan><tspan x="42.97" y="0">ecipi</tspan><tspan class="cls-43" x="63.23" y="0">t</tspan><tspan x="66.22" y="0">ation</tspan></text>
    </g>
  </g>
</svg>