<?xml version="1.0" encoding="UTF-8"?>
<svg id="Layer_2" data-name="Layer 2" xmlns="http://www.w3.org/2000/svg" viewBox="0 0 319.28 123.83">
  <defs>
    <style>
      .cls-1 {
        fill: #2082b2;
      }

      .cls-1, .cls-2, .cls-3, .cls-4, .cls-5, .cls-6, .cls-7, .cls-8, .cls-9, .cls-10, .cls-11, .cls-12, .cls-13, .cls-14, .cls-15, .cls-16, .cls-17, .cls-18, .cls-19, .cls-20, .cls-21, .cls-22, .cls-23, .cls-24, .cls-25, .cls-26, .cls-27, .cls-28, .cls-29, .cls-30, .cls-31, .cls-32, .cls-33, .cls-34, .cls-35, .cls-36, .cls-37, .cls-38, .cls-39, .cls-40, .cls-41, .cls-42, .cls-43, .cls-44, .cls-45, .cls-46, .cls-47, .cls-48, .cls-49, .cls-50, .cls-51, .cls-52 {
        stroke-width: 0px;
      }

      .cls-2 {
        fill: #2182b5;
      }

      .cls-3 {
        fill: #103052;
      }

      .cls-4 {
        fill: #88bc6d;
      }

      .cls-5 {
        fill: #010101;
      }

      .cls-6 {
        fill: #4c9373;
      }

      .cls-7 {
        fill: #3d1a13;
      }

      .cls-8 {
        fill: #e2edec;
      }

      .cls-9 {
        fill: #3a1712;
      }

      .cls-10 {
        fill: #0a1c2e;
      }

      .cls-11 {
        fill: #040406;
      }

      .cls-12 {
        fill: #fdd9a8;
      }

      .cls-13 {
        fill: #197cb0;
      }

      .cls-14 {
        fill: #529974;
      }

      .cls-15 {
        fill: #da6b50;
      }

      .cls-16 {
        fill: #3c1812;
      }

      .cls-17 {
        fill: #4f9272;
      }

      .cls-18 {
        fill: #040305;
      }

      .cls-19 {
        fill: #1d7fb1;
      }

      .cls-53 {
        fill: #95cb6d;
      }

      .cls-53, .cls-54, .cls-55, .cls-56, .cls-57, .cls-58, .cls-59 {
        stroke-miterlimit: 10;
      }

      .cls-53, .cls-55, .cls-57 {
        stroke: #103052;
        stroke-width: 1.44px;
      }

      .cls-20 {
        fill: #89bd6e;
      }

      .cls-21 {
        fill: #89be6e;
      }

      .cls-22 {
        fill: #4e9371;
      }

      .cls-54 {
        fill: none;
        stroke: #231f20;
      }

      .cls-54, .cls-56, .cls-58, .cls-59 {
        stroke-width: .75px;
      }

      .cls-23 {
        fill: #f7a197;
      }

      .cls-24 {
        fill: #0a192d;
      }

      .cls-25 {
        fill: #401b15;
      }

      .cls-60 {
        font-family: Inter-Regular, Inter;
        font-size: 4px;
        font-variation-settings: 'opsz' 14, 'wght' 400;
      }

      .cls-60, .cls-30 {
        fill: #231f20;
      }

      .cls-26 {
        fill: #e86f58;
      }

      .cls-27 {
        fill: #fbc887;
      }

      .cls-55 {
        fill: #f9ac41;
      }

      .cls-56 {
        fill: #27aae1;
      }

      .cls-56, .cls-58, .cls-59 {
        stroke: #0a3351;
      }

      .cls-28 {
        fill: #4d8f6f;
      }

      .cls-29 {
        fill: #391711;
      }

      .cls-31 {
        fill: #f79228;
      }

      .cls-32 {
        fill: #2f1411;
      }

      .cls-57 {
        fill: #54a0cd;
      }

      .cls-33 {
        fill: #177cb1;
      }

      .cls-34 {
        fill: #0a1d31;
      }

      .cls-35 {
        fill: #b65941;
      }

      .cls-36 {
        fill: #1b7fb3;
      }

      .cls-58 {
        fill: #fbb040;
      }

      .cls-37 {
        fill: #3784b7;
      }

      .cls-38 {
        fill: #1f7eb0;
      }

      .cls-59 {
        fill: #d091bc;
      }

      .cls-39 {
        fill: #5aa1c4;
      }

      .cls-40 {
        fill: #3a1711;
      }

      .cls-41 {
        fill: #311312;
      }

      .cls-42 {
        fill: #207fb1;
      }

      .cls-43 {
        fill: #8bbf70;
      }

      .cls-44 {
        fill: #f0f7f6;
      }

      .cls-45 {
        fill: #623f36;
      }

      .cls-46 {
        fill: #3d1913;
      }

      .cls-47 {
        fill: #c9deda;
      }

      .cls-48 {
        fill: #589e79;
      }

      .cls-49 {
        fill: #3e1914;
      }

      .cls-50 {
        fill: #ea7059;
      }

      .cls-51 {
        fill: #f0882d;
      }

      .cls-52 {
        fill: #177db3;
      }
    </style>
  </defs>
  <g id="Layer_1-2" data-name="Layer 1">
    <g>
      <g>
        <path class="cls-5" d="M227.38,110.22c-.56,0-1.06-.14-1.5-.41-.44-.27-.78-.66-1.03-1.16-.25-.5-.38-1.1-.38-1.79s.12-1.29.38-1.79c.25-.5.59-.89,1.03-1.16s.94-.41,1.5-.41c.33,0,.64.05.94.14.29.1.56.24.79.42.23.19.43.41.59.68.16.26.26.57.32.9h-.83c-.05-.23-.13-.42-.24-.59-.11-.17-.25-.31-.41-.43-.16-.12-.34-.21-.54-.26s-.4-.09-.62-.09c-.39,0-.75.1-1.06.3s-.57.49-.75.88c-.18.38-.28.86-.28,1.42s.09,1.03.28,1.41c.19.38.44.68.75.87.32.2.67.3,1.06.3.21,0,.42-.03.62-.09.2-.06.38-.15.54-.26.16-.12.3-.26.41-.43.11-.17.19-.37.24-.59h.83c-.06.33-.16.63-.32.9-.16.26-.35.49-.59.68s-.5.33-.79.43c-.29.1-.61.15-.94.15Z"/>
        <path class="cls-5" d="M232,103.58v6.55h-.79v-6.55h.79Z"/>
        <path class="cls-5" d="M233.79,104.41c-.15,0-.28-.05-.39-.15s-.16-.23-.16-.37.05-.27.16-.37c.11-.1.24-.15.39-.15s.28.05.39.15c.11.1.16.22.16.37s-.05.27-.16.37-.24.15-.39.15ZM233.39,110.13v-4.91h.79v4.91h-.79Z"/>
        <path class="cls-5" d="M236.36,107.19v2.94h-.79v-4.91h.76v1.19s-.11,0-.11,0c.15-.45.36-.78.64-.97.28-.19.6-.29.97-.29.33,0,.62.07.87.2.25.14.44.34.58.62.14.27.21.62.21,1.04v3.12h-.79v-3.05c0-.38-.1-.67-.3-.89-.2-.21-.47-.32-.81-.32-.23,0-.45.05-.63.15s-.34.25-.44.45-.16.44-.16.72Z"/>
        <path class="cls-5" d="M241.29,104.41c-.15,0-.28-.05-.39-.15s-.16-.23-.16-.37.05-.27.16-.37c.11-.1.24-.15.39-.15s.28.05.39.15c.11.1.16.22.16.37s-.05.27-.16.37-.24.15-.39.15ZM240.89,110.13v-4.91h.79v4.91h-.79Z"/>
        <path class="cls-5" d="M245.07,110.24c-.45,0-.84-.11-1.17-.32s-.6-.51-.78-.89-.28-.82-.28-1.33.09-.96.28-1.34c.19-.38.45-.68.78-.89s.73-.32,1.17-.32c.24,0,.46.03.67.09s.4.15.58.27c.17.12.32.26.45.43.13.17.22.36.29.57l-.76.22c-.04-.13-.09-.24-.16-.35s-.16-.2-.27-.27c-.1-.08-.22-.14-.36-.18-.13-.04-.28-.06-.44-.06-.33,0-.6.09-.81.26-.21.17-.37.4-.47.67s-.15.58-.15.91.05.62.15.9c.1.28.26.5.47.67s.48.25.81.25c.16,0,.31-.02.45-.07s.26-.11.37-.19c.11-.08.2-.18.27-.29s.13-.23.16-.37l.76.22c-.06.22-.16.42-.29.59-.13.17-.28.32-.45.44-.18.12-.37.21-.58.28s-.44.09-.68.09Z"/>
        <path class="cls-5" d="M249.67,110.25c-.31,0-.59-.06-.85-.18s-.45-.29-.6-.51-.22-.5-.22-.82c0-.28.06-.51.17-.69s.26-.31.45-.42c.19-.1.39-.18.62-.23s.45-.09.68-.12c.29-.04.53-.07.72-.09s.32-.06.41-.11c.09-.05.13-.13.13-.25v-.03c0-.21-.04-.38-.11-.52-.08-.14-.19-.25-.34-.33s-.34-.11-.57-.11-.44.04-.6.11-.3.17-.41.28c-.1.11-.18.22-.23.34l-.76-.25c.13-.3.3-.53.51-.7.21-.17.45-.29.71-.36s.51-.11.76-.11c.16,0,.35.02.56.06.21.04.41.12.61.23s.36.29.48.52c.13.23.19.54.19.92v3.24h-.78v-.67h-.05c-.06.11-.15.23-.27.35-.12.12-.28.22-.48.31s-.43.12-.71.12ZM249.81,109.55c.29,0,.54-.06.74-.17s.36-.26.46-.45c.11-.18.16-.37.16-.57v-.68s-.1.07-.21.1c-.11.03-.23.06-.37.08-.14.02-.27.04-.4.06-.13.02-.23.03-.31.04-.19.02-.37.06-.53.12-.17.06-.3.14-.4.25-.1.11-.15.26-.15.45,0,.17.04.31.13.43s.21.2.36.26.33.09.52.09Z"/>
        <path class="cls-5" d="M254.14,103.58v6.55h-.79v-6.55h.79Z"/>
        <path class="cls-5" d="M260.41,103.28l-2.11,7.84h-.73l2.11-7.84h.73Z"/>
        <path class="cls-5" d="M263.57,104.32v-.74h4.95v.74h-2.05v5.81h-.83v-5.81h-2.06Z"/>
        <path class="cls-5" d="M270.05,104.41c-.15,0-.28-.05-.39-.15s-.16-.23-.16-.37.05-.27.16-.37c.11-.1.24-.15.39-.15s.28.05.39.15c.11.1.16.22.16.37s-.05.27-.16.37-.24.15-.39.15ZM269.65,110.13v-4.91h.79v4.91h-.79Z"/>
        <path class="cls-5" d="M273.5,110.24c-.34,0-.64-.05-.9-.15-.26-.1-.48-.24-.65-.44s-.28-.43-.34-.71l.75-.18c.07.27.2.47.4.59.19.13.44.19.73.19.34,0,.62-.07.82-.22.2-.15.31-.32.31-.52,0-.17-.06-.31-.18-.42-.12-.11-.3-.2-.54-.25l-.82-.19c-.45-.11-.78-.27-.99-.49-.22-.22-.33-.5-.33-.85,0-.28.08-.53.24-.75.16-.21.37-.38.65-.5.27-.12.58-.18.93-.18s.62.05.86.15c.24.1.43.24.58.42.15.18.26.38.33.61l-.72.18c-.07-.18-.18-.33-.34-.48-.16-.14-.39-.22-.71-.22-.29,0-.54.07-.73.2-.2.13-.29.3-.29.51,0,.18.07.33.2.44.13.11.34.2.63.27l.74.18c.45.11.78.27.99.49.21.22.32.5.32.84,0,.29-.08.54-.24.77-.16.22-.39.4-.68.53-.29.13-.63.19-1.01.19Z"/>
        <path class="cls-5" d="M278.25,110.24c-.34,0-.64-.05-.9-.15-.26-.1-.48-.24-.65-.44s-.28-.43-.34-.71l.75-.18c.07.27.2.47.4.59.19.13.44.19.73.19.34,0,.62-.07.82-.22.2-.15.31-.32.31-.52,0-.17-.06-.31-.18-.42-.12-.11-.3-.2-.54-.25l-.82-.19c-.45-.11-.78-.27-.99-.49-.22-.22-.33-.5-.33-.85,0-.28.08-.53.24-.75.16-.21.37-.38.65-.5.27-.12.58-.18.93-.18s.62.05.86.15c.24.1.43.24.58.42.15.18.26.38.33.61l-.72.18c-.07-.18-.18-.33-.34-.48-.16-.14-.39-.22-.71-.22-.29,0-.54.07-.73.2-.19.13-.29.3-.29.51,0,.18.07.33.2.44.13.11.34.2.63.27l.74.18c.45.11.77.27.99.49.21.22.32.5.32.84,0,.29-.08.54-.24.77-.16.22-.39.4-.68.53-.29.13-.63.19-1.01.19Z"/>
        <path class="cls-5" d="M282.99,110.19c-.33,0-.62-.07-.87-.2-.25-.14-.45-.34-.58-.62-.14-.28-.21-.62-.21-1.03v-3.12h.79v3.05c0,.38.1.67.3.89s.47.32.81.32c.23,0,.44-.05.63-.15.19-.1.33-.25.44-.45.11-.2.16-.44.16-.71v-2.94h.79v4.91h-.76v-1.19h.11c-.15.46-.37.78-.65.97-.28.19-.6.28-.96.28Z"/>
        <path class="cls-5" d="M288.71,110.24c-.47,0-.88-.11-1.23-.32-.34-.21-.61-.51-.79-.88-.19-.38-.28-.82-.28-1.32s.09-.95.27-1.33.44-.68.77-.9c.33-.22.72-.33,1.17-.33.26,0,.52.04.77.13.25.09.48.23.69.42.21.19.37.44.49.76s.18.7.18,1.15v.33h-3.81v-.67h3.39l-.37.25c0-.32-.05-.61-.15-.86-.1-.25-.25-.45-.45-.59-.2-.14-.45-.21-.74-.21s-.55.07-.76.22c-.21.14-.37.33-.48.57-.11.23-.17.48-.17.75v.44c0,.36.06.67.19.92.13.25.3.45.53.58.23.13.49.2.79.2.19,0,.37-.03.53-.08s.29-.14.41-.25c.11-.11.2-.25.26-.42l.76.21c-.08.25-.21.46-.39.65s-.41.33-.67.44c-.27.11-.57.16-.91.16Z"/>
        <path class="cls-5" d="M242.26,121.05c-.47,0-.88-.08-1.23-.23-.35-.15-.62-.37-.82-.64-.2-.27-.31-.59-.33-.96h.86c.02.25.11.45.25.61.14.16.33.28.55.36.22.08.46.12.72.12.3,0,.56-.05.8-.15s.42-.23.56-.41.21-.38.21-.61c0-.21-.06-.38-.18-.51-.12-.13-.28-.24-.47-.33s-.41-.16-.65-.22l-.79-.22c-.53-.15-.94-.36-1.23-.64s-.44-.63-.44-1.07c0-.37.1-.69.3-.97.2-.28.47-.49.81-.64s.72-.23,1.14-.23.81.08,1.14.23.59.36.78.62c.19.26.29.56.31.89h-.82c-.04-.32-.19-.57-.46-.74-.27-.17-.59-.26-.98-.26-.28,0-.53.05-.74.14-.21.09-.38.22-.49.38-.12.16-.18.34-.18.55,0,.23.07.41.21.55.14.14.31.25.5.33.19.08.37.14.53.18l.65.18c.18.05.37.11.58.19s.42.19.61.33c.19.14.35.31.48.52.12.21.19.47.19.77,0,.36-.09.68-.28.97s-.46.51-.81.68-.78.25-1.29.25Z"/>
        <path class="cls-5" d="M247.22,121.05c-.31,0-.59-.06-.85-.18s-.45-.29-.6-.51-.22-.5-.22-.82c0-.28.06-.51.17-.69s.26-.31.45-.42c.19-.1.39-.18.62-.23s.45-.09.68-.12c.29-.04.53-.07.72-.09s.32-.06.41-.11c.09-.05.13-.13.13-.25v-.03c0-.21-.04-.38-.11-.52-.08-.14-.19-.25-.34-.33s-.34-.11-.57-.11-.44.04-.6.11-.3.17-.41.28c-.1.11-.18.22-.23.34l-.76-.25c.13-.3.3-.53.51-.7.21-.17.45-.29.71-.36s.51-.11.76-.11c.16,0,.35.02.56.06.21.04.41.12.61.23s.36.29.48.52c.13.23.19.54.19.92v3.24h-.78v-.67h-.05c-.06.11-.15.23-.27.35-.12.12-.28.22-.48.31s-.43.12-.71.12ZM247.35,120.35c.29,0,.54-.06.74-.17s.36-.26.46-.45c.11-.18.16-.37.16-.57v-.68s-.1.07-.21.1c-.11.03-.23.06-.37.08-.14.02-.27.04-.4.06-.13.02-.23.03-.31.04-.19.02-.37.06-.53.12-.17.06-.3.14-.4.25-.1.11-.15.26-.15.45,0,.17.04.31.13.43s.21.2.36.26.33.09.52.09Z"/>
        <path class="cls-5" d="M250.9,120.93v-4.91h.77v1.1s-.06,0-.06,0c.07-.27.17-.49.32-.66.15-.17.31-.31.51-.39s.4-.13.61-.13c.36,0,.65.11.87.33s.36.51.43.87h-.11c.06-.25.17-.46.32-.64s.34-.32.56-.41c.22-.1.46-.14.72-.14.28,0,.54.06.78.18s.42.31.56.56.21.56.21.95v3.31h-.79v-3.29c0-.35-.1-.61-.3-.76s-.43-.23-.69-.23c-.22,0-.41.05-.57.14-.16.09-.28.22-.37.38s-.13.35-.13.55v3.21h-.79v-3.37c0-.27-.09-.49-.27-.66s-.41-.25-.69-.25c-.19,0-.37.04-.54.13-.17.09-.3.22-.41.4s-.15.39-.15.66v3.09h-.79Z"/>
        <path class="cls-5" d="M258.78,122.77v-6.75h.76v.79h.09c.06-.09.13-.2.23-.33.1-.13.24-.25.43-.36s.44-.16.76-.16c.41,0,.77.1,1.08.31.31.21.56.5.73.88.18.38.27.83.27,1.35s-.09.97-.26,1.35-.42.67-.73.88c-.31.21-.67.31-1.08.31-.31,0-.56-.05-.75-.16-.19-.11-.34-.23-.44-.37-.1-.14-.18-.25-.24-.34h-.06v2.6h-.79ZM260.94,120.33c.31,0,.56-.08.77-.25.21-.17.36-.39.47-.67.1-.28.16-.59.16-.93s-.05-.65-.15-.92c-.1-.27-.26-.49-.46-.65-.21-.16-.46-.24-.78-.24s-.56.08-.76.23-.36.36-.46.64c-.1.27-.16.59-.16.95s.05.68.16.96.26.5.47.65c.21.16.46.23.75.23Z"/>
        <path class="cls-5" d="M265.08,114.38v6.55h-.79v-6.55h.79Z"/>
        <path class="cls-5" d="M268.54,121.04c-.47,0-.88-.11-1.23-.32-.34-.21-.61-.51-.79-.88-.19-.38-.28-.82-.28-1.32s.09-.95.27-1.33.44-.68.77-.9c.33-.22.72-.33,1.17-.33.26,0,.52.04.77.13.25.09.48.23.69.42.21.19.37.44.49.76s.18.7.18,1.15v.33h-3.81v-.67h3.39l-.37.25c0-.32-.05-.61-.15-.86-.1-.25-.25-.45-.45-.59-.2-.14-.45-.21-.74-.21s-.55.07-.76.22c-.21.14-.37.33-.48.57-.11.23-.17.48-.17.75v.44c0,.36.06.67.19.92.13.25.3.45.53.58.23.13.49.2.79.2.19,0,.37-.03.53-.08s.29-.14.41-.25c.11-.11.2-.25.26-.42l.76.21c-.08.25-.21.46-.39.65s-.41.33-.67.44c-.27.11-.57.16-.91.16Z"/>
        <path class="cls-5" d="M273.39,121.04c-.34,0-.64-.05-.9-.15-.26-.1-.48-.24-.65-.44s-.28-.43-.34-.71l.75-.18c.07.27.2.47.4.59.19.13.44.19.73.19.34,0,.62-.07.82-.22.2-.15.31-.32.31-.52,0-.17-.06-.31-.18-.42-.12-.11-.3-.2-.54-.25l-.82-.19c-.45-.11-.78-.27-.99-.49-.22-.22-.33-.5-.33-.85,0-.28.08-.53.24-.75.16-.21.37-.38.65-.5.27-.12.58-.18.93-.18s.62.05.86.15c.24.1.43.24.58.42.15.18.26.38.33.61l-.72.18c-.07-.18-.18-.33-.34-.48-.16-.14-.39-.22-.71-.22-.29,0-.54.07-.73.2-.2.13-.29.3-.29.51,0,.18.07.33.2.44.13.11.34.2.63.27l.74.18c.45.11.78.27.99.49.21.22.32.5.32.84,0,.29-.08.54-.24.77-.16.22-.39.4-.68.53-.29.13-.63.19-1.01.19Z"/>
      </g>
      <g>
        <path class="cls-5" d="M3.35,110.13l-1.78-6.55h.85l1.04,4.02c.06.21.11.43.16.65.05.22.1.45.15.67.05.23.09.46.13.7h-.1c.04-.24.09-.47.14-.7.05-.23.1-.45.15-.67.05-.22.11-.44.16-.65l1.06-4.02h.95l1.05,4.02c.06.21.11.43.17.65.05.22.1.45.15.67.05.23.1.46.14.7h-.11c.04-.24.09-.47.14-.7.05-.23.1-.45.15-.67.05-.22.11-.44.16-.65l1.03-4.02h.86l-1.79,6.55h-.97l-1.12-4.15c-.07-.27-.14-.56-.21-.88-.07-.32-.13-.68-.2-1.1h.18c-.06.39-.13.74-.19,1.05-.06.31-.13.62-.22.93l-1.12,4.15h-.98Z"/>
        <path class="cls-5" d="M11.69,107.19v2.94h-.79v-6.55h.79v2.83h-.14c.15-.45.36-.78.64-.97.28-.19.6-.29.97-.29.33,0,.62.07.87.2.25.14.45.34.58.62.14.27.21.62.21,1.04v3.12h-.8v-3.05c0-.38-.1-.67-.3-.89-.2-.21-.47-.32-.81-.32-.23,0-.45.05-.63.15-.19.1-.34.25-.44.45s-.16.43-.16.72Z"/>
        <path class="cls-5" d="M18.22,110.24c-.45,0-.84-.11-1.17-.32s-.6-.51-.78-.89-.28-.82-.28-1.33.09-.96.28-1.34c.19-.38.45-.68.78-.89s.73-.32,1.17-.32.84.11,1.18.32.6.51.79.89c.19.38.28.83.28,1.34s-.09.95-.28,1.33-.45.68-.79.89-.73.32-1.18.32ZM18.22,109.53c.33,0,.6-.08.82-.26.21-.17.37-.39.47-.67.1-.28.15-.58.15-.9s-.05-.63-.15-.91c-.1-.28-.26-.51-.47-.68-.21-.17-.49-.26-.82-.26s-.6.09-.81.26c-.21.17-.37.4-.47.67-.1.28-.15.58-.15.91s.05.62.15.9c.1.28.26.5.47.67.21.17.48.26.81.26Z"/>
        <path class="cls-5" d="M22.41,103.58v6.55h-.79v-6.55h.79Z"/>
        <path class="cls-5" d="M25.86,110.24c-.47,0-.88-.11-1.23-.32s-.61-.51-.79-.88c-.19-.38-.28-.82-.28-1.32s.09-.95.27-1.33.44-.68.77-.9c.33-.22.72-.33,1.17-.33.26,0,.52.04.77.13.25.09.48.23.69.42.21.19.37.45.49.76.12.31.18.7.18,1.15v.33h-3.81v-.67h3.39l-.37.25c0-.32-.05-.61-.15-.86-.1-.25-.25-.45-.45-.59-.2-.14-.45-.21-.74-.21s-.55.07-.76.22c-.21.14-.37.33-.48.57-.11.23-.17.48-.17.75v.44c0,.36.06.67.19.92.13.25.3.45.53.58.23.13.49.2.79.2.19,0,.37-.03.53-.08.16-.05.29-.14.41-.25.11-.11.2-.25.26-.42l.76.21c-.08.25-.21.46-.39.65s-.41.33-.67.44c-.27.11-.57.16-.91.16Z"/>
        <path class="cls-5" d="M33.57,110.24c-.45,0-.84-.11-1.17-.32s-.6-.51-.78-.89-.28-.82-.28-1.33.09-.96.28-1.34c.19-.38.45-.68.78-.89s.73-.32,1.17-.32c.24,0,.46.03.67.09.21.06.4.15.58.27.17.12.32.26.45.43.13.17.22.36.29.57l-.76.22c-.04-.13-.09-.24-.16-.35s-.16-.2-.27-.28c-.1-.08-.22-.14-.36-.18-.13-.04-.28-.06-.44-.06-.33,0-.6.09-.81.26-.21.17-.37.4-.47.67-.1.28-.15.58-.15.91s.05.62.15.9c.1.28.26.5.47.67.21.17.48.26.81.26.16,0,.31-.02.45-.07s.26-.11.37-.19c.11-.08.2-.18.27-.29s.13-.23.16-.37l.76.22c-.06.22-.16.42-.29.59-.13.17-.28.32-.45.44-.18.12-.37.21-.58.28-.21.06-.44.09-.68.09Z"/>
        <path class="cls-5" d="M38.78,110.24c-.47,0-.88-.11-1.23-.32s-.61-.51-.79-.88c-.19-.38-.28-.82-.28-1.32s.09-.95.27-1.33.44-.68.77-.9c.33-.22.72-.33,1.17-.33.26,0,.52.04.77.13.25.09.48.23.69.42.21.19.37.45.49.76.12.31.18.7.18,1.15v.33h-3.81v-.67h3.39l-.37.25c0-.32-.05-.61-.15-.86-.1-.25-.25-.45-.45-.59-.2-.14-.45-.21-.74-.21s-.55.07-.76.22c-.21.14-.37.33-.48.57-.11.23-.17.48-.17.75v.44c0,.36.06.67.19.92.13.25.3.45.53.58.23.13.49.2.79.2.19,0,.37-.03.53-.08.16-.05.29-.14.41-.25.11-.11.2-.25.26-.42l.76.21c-.08.25-.21.46-.39.65s-.41.33-.67.44c-.27.11-.57.16-.91.16Z"/>
        <path class="cls-5" d="M42.75,103.58v6.55h-.79v-6.55h.79Z"/>
        <path class="cls-5" d="M44.93,103.58v6.55h-.79v-6.55h.79Z"/>
        <path class="cls-5" d="M46.19,111.71l.39-2.49h.91l-.69,2.49h-.61ZM47.05,106.63c-.16,0-.3-.06-.42-.17-.12-.12-.17-.25-.17-.42s.06-.3.17-.42c.12-.12.26-.17.42-.17s.3.06.42.17c.12.12.17.26.17.42s-.06.3-.17.42c-.12.12-.26.17-.42.17Z"/>
        <path class="cls-5" d="M53.76,110.25c-.47,0-.88-.08-1.23-.23-.35-.15-.62-.37-.82-.64-.2-.27-.31-.59-.33-.96h.86c.02.25.11.45.25.61.14.16.33.28.55.36.22.08.46.12.72.12.3,0,.56-.05.8-.14.24-.1.42-.23.56-.41s.21-.38.21-.61c0-.21-.06-.38-.18-.51-.12-.13-.28-.24-.47-.33s-.41-.16-.65-.22l-.79-.22c-.53-.15-.94-.36-1.23-.64s-.44-.63-.44-1.07c0-.37.1-.69.3-.97.2-.28.47-.49.81-.64s.72-.23,1.14-.23.81.08,1.14.23.59.36.78.62c.19.26.29.56.31.89h-.82c-.04-.32-.19-.57-.46-.74-.27-.17-.59-.26-.98-.26-.28,0-.53.05-.74.14-.21.09-.38.22-.49.38-.12.16-.18.34-.18.55,0,.23.07.41.21.55.14.14.31.25.5.33.19.08.37.14.53.18l.65.18c.18.05.37.11.58.19s.42.19.61.33c.19.14.35.31.48.52.12.21.19.47.19.77,0,.36-.09.68-.28.97s-.46.51-.81.68c-.35.17-.78.25-1.29.25Z"/>
        <path class="cls-5" d="M59.01,110.19c-.33,0-.62-.07-.87-.2-.25-.14-.45-.34-.58-.62-.14-.28-.21-.62-.21-1.03v-3.12h.79v3.05c0,.38.1.67.3.89s.47.32.81.32c.23,0,.44-.05.63-.15.19-.1.33-.25.44-.45.11-.2.16-.44.16-.71v-2.94h.8v4.91h-.76v-1.19h.11c-.15.46-.37.78-.65.97-.28.19-.6.28-.96.28Z"/>
        <path class="cls-5" d="M64.95,110.24c-.31,0-.56-.05-.75-.16-.19-.11-.34-.23-.44-.37-.1-.14-.18-.25-.24-.34h-.09v.76h-.76v-6.55h.79v2.42h.06c.06-.09.13-.2.23-.33.1-.13.24-.25.43-.36s.44-.16.76-.16c.41,0,.77.1,1.08.31.31.21.56.5.73.88.18.38.27.83.27,1.35s-.09.97-.26,1.35-.42.68-.73.88c-.31.21-.67.31-1.08.31ZM64.83,109.53c.31,0,.56-.08.77-.25.21-.17.36-.39.47-.67.1-.28.16-.59.16-.93s-.05-.65-.15-.92c-.1-.27-.26-.49-.46-.65-.21-.16-.46-.24-.78-.24s-.56.08-.76.23c-.21.15-.36.36-.46.64-.1.27-.16.59-.16.95s.05.68.16.96c.11.28.26.5.47.65.21.16.46.24.75.24Z"/>
        <path class="cls-5" d="M70.18,110.24c-.45,0-.84-.11-1.17-.32s-.6-.51-.78-.89-.28-.82-.28-1.33.09-.96.28-1.34c.19-.38.45-.68.78-.89s.73-.32,1.17-.32c.24,0,.46.03.67.09.21.06.4.15.58.27.17.12.32.26.45.43.13.17.22.36.29.57l-.76.22c-.04-.13-.09-.24-.16-.35s-.16-.2-.27-.28c-.1-.08-.22-.14-.36-.18-.13-.04-.28-.06-.44-.06-.33,0-.6.09-.81.26-.21.17-.37.4-.47.67-.1.28-.15.58-.15.91s.05.62.15.9c.1.28.26.5.47.67.21.17.48.26.81.26.16,0,.31-.02.45-.07s.26-.11.37-.19c.11-.08.2-.18.27-.29s.13-.23.16-.37l.76.22c-.06.22-.16.42-.29.59-.13.17-.28.32-.45.44-.18.12-.37.21-.58.28-.21.06-.44.09-.68.09Z"/>
        <path class="cls-5" d="M75.38,110.24c-.47,0-.88-.11-1.23-.32s-.61-.51-.79-.88c-.19-.38-.28-.82-.28-1.32s.09-.95.27-1.33.44-.68.77-.9c.33-.22.72-.33,1.17-.33.26,0,.52.04.77.13.25.09.48.23.69.42.21.19.37.45.49.76.12.31.18.7.18,1.15v.33h-3.81v-.67h3.39l-.37.25c0-.32-.05-.61-.15-.86-.1-.25-.25-.45-.45-.59-.2-.14-.45-.21-.74-.21s-.55.07-.76.22c-.21.14-.37.33-.48.57-.11.23-.17.48-.17.75v.44c0,.36.06.67.19.92.13.25.3.45.53.58.23.13.49.2.79.2.19,0,.37-.03.53-.08.16-.05.29-.14.41-.25.11-.11.2-.25.26-.42l.76.21c-.08.25-.21.46-.39.65s-.41.33-.67.44c-.27.11-.57.16-.91.16Z"/>
        <path class="cls-5" d="M79.36,103.58v6.55h-.79v-6.55h.79Z"/>
        <path class="cls-5" d="M81.54,103.58v6.55h-.79v-6.55h.79Z"/>
        <path class="cls-5" d="M84.59,110.19c-.33,0-.62-.07-.87-.2-.25-.14-.45-.34-.58-.62-.14-.28-.21-.62-.21-1.03v-3.12h.79v3.05c0,.38.1.67.3.89s.47.32.81.32c.23,0,.44-.05.63-.15.19-.1.33-.25.44-.45.11-.2.16-.44.16-.71v-2.94h.8v4.91h-.76v-1.19h.11c-.15.46-.37.78-.65.97-.28.19-.6.28-.96.28Z"/>
        <path class="cls-5" d="M89.04,103.58v6.55h-.79v-6.55h.79Z"/>
        <path class="cls-5" d="M91.8,110.25c-.31,0-.59-.06-.85-.18s-.45-.29-.6-.51c-.15-.22-.22-.5-.22-.82,0-.28.06-.51.17-.69s.26-.31.45-.42c.19-.1.39-.18.62-.23s.45-.09.68-.12c.29-.04.53-.07.72-.09.18-.02.32-.05.41-.11.09-.05.13-.13.13-.25v-.03c0-.2-.04-.38-.11-.52-.08-.14-.19-.25-.34-.33s-.34-.11-.57-.11-.44.04-.6.11-.3.16-.41.27c-.1.11-.18.22-.23.34l-.76-.25c.13-.3.3-.53.51-.7.21-.17.45-.29.71-.36s.51-.11.76-.11c.16,0,.35.02.56.06.21.04.41.12.61.24s.36.29.48.52c.13.23.19.54.19.92v3.24h-.78v-.67h-.05c-.06.11-.15.23-.27.35-.12.12-.28.22-.48.31s-.43.12-.71.12ZM91.94,109.55c.29,0,.54-.06.74-.17s.36-.26.46-.45c.11-.18.16-.37.16-.57v-.68s-.1.07-.21.1c-.11.03-.23.06-.37.08-.14.02-.27.04-.4.06-.13.02-.23.03-.31.04-.19.02-.37.06-.53.12-.17.06-.3.14-.4.25-.1.11-.15.26-.15.45,0,.17.04.31.13.43s.21.2.36.26.33.09.52.09Z"/>
        <path class="cls-5" d="M95.48,110.13v-4.91h.76v.76h.05c.09-.25.25-.45.49-.6.23-.15.5-.23.79-.23.06,0,.13,0,.21,0,.08,0,.14,0,.19,0v.8s-.08-.01-.18-.03-.19-.02-.3-.02c-.23,0-.44.05-.63.15-.19.1-.33.23-.44.4-.11.17-.16.37-.16.59v3.08h-.79Z"/>
        <path class="cls-5" d="M98.74,111.71l.39-2.49h.91l-.69,2.49h-.61ZM99.59,106.63c-.16,0-.3-.06-.42-.17-.12-.12-.17-.25-.17-.42s.06-.3.17-.42c.12-.12.26-.17.42-.17s.3.06.42.17c.12.12.17.26.17.42s-.06.3-.17.42c-.12.12-.26.17-.42.17Z"/>
        <path class="cls-5" d="M3.44,121.02c-.56,0-1.06-.14-1.5-.41-.44-.27-.78-.66-1.03-1.16-.25-.5-.38-1.1-.38-1.79s.12-1.29.38-1.79c.25-.5.59-.89,1.03-1.16.44-.27.94-.41,1.5-.41.33,0,.64.05.94.15.29.1.56.24.79.42.23.19.43.41.59.68.16.26.26.57.32.9h-.83c-.05-.23-.13-.42-.24-.59-.11-.17-.25-.31-.41-.43-.16-.12-.34-.21-.54-.26s-.4-.09-.62-.09c-.39,0-.75.1-1.06.3s-.57.49-.75.88c-.18.38-.28.86-.28,1.42s.09,1.03.28,1.41c.19.38.44.68.75.87.32.2.67.3,1.06.3.21,0,.42-.03.62-.09.2-.06.38-.15.54-.26.16-.12.3-.26.41-.43.11-.17.19-.37.24-.59h.83c-.06.33-.16.63-.32.9-.16.26-.35.49-.59.68-.23.19-.5.33-.79.43-.29.1-.61.15-.94.15Z"/>
        <path class="cls-5" d="M9.33,121.04c-.47,0-.88-.11-1.23-.32s-.61-.51-.79-.88c-.19-.38-.28-.82-.28-1.32s.09-.95.27-1.33.44-.68.77-.9c.33-.22.72-.33,1.17-.33.26,0,.52.04.77.13.25.09.48.23.69.42.21.19.37.45.49.76.12.31.18.7.18,1.15v.33h-3.81v-.67h3.39l-.37.25c0-.32-.05-.61-.15-.86-.1-.25-.25-.45-.45-.59-.2-.14-.45-.21-.74-.21s-.55.07-.76.22c-.21.14-.37.33-.48.57-.11.23-.17.48-.17.75v.44c0,.36.06.67.19.92.13.25.3.45.53.58.23.13.49.2.79.2.19,0,.37-.03.53-.08.16-.05.29-.14.41-.25.11-.11.2-.25.26-.42l.76.21c-.08.25-.21.46-.39.65s-.41.33-.67.44c-.27.11-.57.16-.91.16Z"/>
        <path class="cls-5" d="M13.31,114.38v6.55h-.79v-6.55h.79Z"/>
        <path class="cls-5" d="M15.49,114.38v6.55h-.79v-6.55h.79Z"/>
        <path class="cls-5" d="M21.08,121.04c-.34,0-.64-.05-.9-.15-.26-.1-.48-.24-.65-.44s-.28-.43-.34-.71l.75-.18c.07.27.2.47.4.59.19.13.44.19.73.19.34,0,.62-.07.82-.22s.31-.32.31-.52c0-.17-.06-.31-.18-.42-.12-.11-.3-.2-.54-.25l-.82-.19c-.45-.11-.78-.27-.99-.49-.22-.22-.33-.5-.33-.85,0-.28.08-.53.24-.75.16-.21.37-.38.65-.5.27-.12.58-.18.93-.18s.62.05.86.15c.24.1.43.24.58.42.15.18.26.38.33.61l-.72.19c-.07-.18-.18-.34-.34-.48s-.39-.22-.71-.22c-.29,0-.54.07-.73.2s-.29.3-.29.51c0,.18.07.33.2.44.13.11.34.2.63.27l.74.18c.45.11.77.27.99.49.21.22.32.5.32.84,0,.29-.08.54-.24.77-.16.22-.39.4-.68.53s-.63.19-1.01.19Z"/>
        <path class="cls-5" d="M25.82,120.99c-.33,0-.62-.07-.87-.2-.25-.14-.45-.34-.58-.62-.14-.28-.21-.62-.21-1.03v-3.12h.79v3.05c0,.38.1.67.3.89s.47.32.81.32c.23,0,.44-.05.63-.15.19-.1.33-.25.44-.45.11-.2.16-.44.16-.71v-2.94h.8v4.91h-.76v-1.19h.11c-.15.46-.37.78-.65.97-.28.19-.6.28-.96.28Z"/>
        <path class="cls-5" d="M29.48,120.93v-4.91h.76v.76h.05c.09-.25.25-.45.49-.6.23-.15.5-.23.79-.23.06,0,.13,0,.21,0,.08,0,.14,0,.19,0v.8s-.08-.01-.18-.03-.19-.02-.3-.02c-.23,0-.44.05-.63.15-.19.1-.33.23-.44.4-.11.17-.16.37-.16.59v3.08h-.79Z"/>
        <path class="cls-5" d="M35.29,116.02v.68h-2.89v-.68h2.89ZM33.37,120.93v-5.57c0-.28.07-.52.2-.71.13-.19.31-.33.52-.43.21-.1.44-.14.68-.14.19,0,.34.02.47.05.12.03.21.06.27.09l-.22.68s-.09-.03-.16-.05c-.07-.02-.15-.03-.27-.03-.24,0-.42.06-.53.19-.11.12-.17.31-.17.54v5.39h-.79Z"/>
        <path class="cls-5" d="M37.57,121.05c-.31,0-.59-.06-.85-.18s-.45-.29-.6-.51c-.15-.22-.22-.5-.22-.82,0-.28.06-.51.17-.69s.26-.31.45-.42c.19-.1.39-.18.62-.23s.45-.09.68-.12c.29-.04.53-.07.72-.09.18-.02.32-.05.41-.11.09-.05.13-.13.13-.25v-.03c0-.2-.04-.38-.11-.52-.08-.14-.19-.25-.34-.33s-.34-.11-.57-.11-.44.04-.6.11-.3.16-.41.27c-.1.11-.18.22-.23.34l-.76-.25c.13-.3.3-.53.51-.7.21-.17.45-.29.71-.36s.51-.11.76-.11c.16,0,.35.02.56.06.21.04.41.12.61.24s.36.29.48.52c.13.23.19.54.19.92v3.24h-.78v-.67h-.05c-.06.11-.15.23-.27.35-.12.12-.28.22-.48.31s-.43.12-.71.12ZM37.71,120.35c.29,0,.54-.06.74-.17s.36-.26.46-.45c.11-.18.16-.37.16-.57v-.68s-.1.07-.21.1c-.11.03-.23.06-.37.08-.14.02-.27.04-.4.06-.13.02-.23.03-.31.04-.19.02-.37.06-.53.12-.17.06-.3.14-.4.25-.1.11-.15.26-.15.45,0,.17.04.31.13.43s.21.2.36.26.33.09.52.09Z"/>
        <path class="cls-5" d="M43.25,121.04c-.45,0-.84-.11-1.17-.32s-.6-.51-.78-.89-.28-.82-.28-1.33.09-.96.28-1.34c.19-.38.45-.68.78-.89s.73-.32,1.17-.32c.24,0,.46.03.67.09.21.06.4.15.58.27.17.12.32.26.45.43.13.17.22.36.29.57l-.76.22c-.04-.13-.09-.24-.16-.35s-.16-.2-.27-.28c-.1-.08-.22-.14-.36-.18-.13-.04-.28-.06-.44-.06-.33,0-.6.09-.81.26-.21.17-.37.4-.47.67-.1.28-.15.58-.15.91s.05.62.15.9c.1.28.26.5.47.67.21.17.48.26.81.26.16,0,.31-.02.45-.07s.26-.11.37-.19c.11-.08.2-.18.27-.29s.13-.23.16-.37l.76.22c-.06.22-.16.42-.29.59-.13.17-.28.32-.45.44-.18.12-.37.21-.58.28-.21.06-.44.09-.68.09Z"/>
        <path class="cls-5" d="M48.46,121.04c-.47,0-.88-.11-1.23-.32s-.61-.51-.79-.88c-.19-.38-.28-.82-.28-1.32s.09-.95.27-1.33.44-.68.77-.9c.33-.22.72-.33,1.17-.33.26,0,.52.04.77.13.25.09.48.23.69.42.21.19.37.45.49.76.12.31.18.7.18,1.15v.33h-3.81v-.67h3.39l-.37.25c0-.32-.05-.61-.15-.86-.1-.25-.25-.45-.45-.59-.2-.14-.45-.21-.74-.21s-.55.07-.76.22c-.21.14-.37.33-.48.57-.11.23-.17.48-.17.75v.44c0,.36.06.67.19.92.13.25.3.45.53.58.23.13.49.2.79.2.19,0,.37-.03.53-.08.16-.05.29-.14.41-.25.11-.11.2-.25.26-.42l.76.21c-.08.25-.21.46-.39.65s-.41.33-.67.44c-.27.11-.57.16-.91.16Z"/>
        <path class="cls-5" d="M51.51,122.51l.39-2.49h.91l-.69,2.49h-.61ZM52.37,117.43c-.16,0-.3-.06-.42-.17-.12-.12-.17-.25-.17-.42s.06-.3.17-.42c.12-.12.26-.17.42-.17s.3.06.42.17c.12.12.17.26.17.42s-.06.3-.17.42c-.12.12-.26.17-.42.17Z"/>
        <path class="cls-5" d="M59.08,121.05c-.47,0-.88-.08-1.23-.23-.35-.15-.62-.37-.82-.64-.2-.27-.31-.59-.33-.96h.86c.02.25.11.45.25.61.14.16.33.28.55.36.22.08.46.12.72.12.3,0,.56-.05.8-.14.24-.1.42-.23.56-.41s.21-.38.21-.61c0-.21-.06-.38-.18-.51-.12-.13-.28-.24-.47-.33s-.41-.16-.65-.22l-.79-.22c-.53-.15-.94-.36-1.23-.64s-.44-.63-.44-1.07c0-.37.1-.69.3-.97.2-.28.47-.49.81-.64s.72-.23,1.14-.23.81.08,1.14.23.59.36.78.62c.19.26.29.56.31.89h-.82c-.04-.32-.19-.57-.46-.74-.27-.17-.59-.26-.98-.26-.28,0-.53.05-.74.14-.21.09-.38.22-.49.38-.12.16-.18.34-.18.55,0,.23.07.41.21.55.14.14.31.25.5.33.19.08.37.14.53.18l.65.18c.18.05.37.11.58.19s.42.19.61.33c.19.14.35.31.48.52.12.21.19.47.19.77,0,.36-.09.68-.28.97s-.46.51-.81.68c-.35.17-.78.25-1.29.25Z"/>
        <path class="cls-5" d="M64.73,121.04c-.47,0-.88-.11-1.23-.32s-.61-.51-.79-.88c-.19-.38-.28-.82-.28-1.32s.09-.95.27-1.33.44-.68.77-.9c.33-.22.72-.33,1.17-.33.26,0,.52.04.77.13.25.09.48.23.69.42.21.19.37.45.49.76.12.31.18.7.18,1.15v.33h-3.81v-.67h3.39l-.37.25c0-.32-.05-.61-.15-.86-.1-.25-.25-.45-.45-.59-.2-.14-.45-.21-.74-.21s-.55.07-.76.22c-.21.14-.37.33-.48.57-.11.23-.17.48-.17.75v.44c0,.36.06.67.19.92.13.25.3.45.53.58.23.13.49.2.79.2.19,0,.37-.03.53-.08.16-.05.29-.14.41-.25.11-.11.2-.25.26-.42l.76.21c-.08.25-.21.46-.39.65s-.41.33-.67.44c-.27.11-.57.16-.91.16Z"/>
        <path class="cls-5" d="M69.91,121.04c-.45,0-.84-.11-1.17-.32s-.6-.51-.78-.89-.28-.82-.28-1.33.09-.96.28-1.34c.19-.38.45-.68.78-.89s.73-.32,1.17-.32c.24,0,.46.03.67.09.21.06.4.15.58.27.17.12.32.26.45.43.13.17.22.36.29.57l-.76.22c-.04-.13-.09-.24-.16-.35s-.16-.2-.27-.28c-.1-.08-.22-.14-.36-.18-.13-.04-.28-.06-.44-.06-.33,0-.6.09-.81.26-.21.17-.37.4-.47.67-.1.28-.15.58-.15.91s.05.62.15.9c.1.28.26.5.47.67.21.17.48.26.81.26.16,0,.31-.02.45-.07s.26-.11.37-.19c.11-.08.2-.18.27-.29s.13-.23.16-.37l.76.22c-.06.22-.16.42-.29.59-.13.17-.28.32-.45.44-.18.12-.37.21-.58.28-.21.06-.44.09-.68.09Z"/>
        <path class="cls-5" d="M73.05,120.93v-4.91h.76v.76h.05c.09-.25.25-.45.49-.6.23-.15.5-.23.79-.23.06,0,.13,0,.21,0,.08,0,.14,0,.19,0v.8s-.08-.01-.18-.03-.19-.02-.3-.02c-.23,0-.44.05-.63.15-.19.1-.33.23-.44.4-.11.17-.16.37-.16.59v3.08h-.79Z"/>
        <path class="cls-5" d="M78.35,121.04c-.47,0-.88-.11-1.23-.32s-.61-.51-.79-.88c-.19-.38-.28-.82-.28-1.32s.09-.95.27-1.33.44-.68.77-.9c.33-.22.72-.33,1.17-.33.26,0,.52.04.77.13.25.09.48.23.69.42.21.19.37.45.49.76.12.31.18.7.18,1.15v.33h-3.81v-.67h3.39l-.37.25c0-.32-.05-.61-.15-.86-.1-.25-.25-.45-.45-.59-.2-.14-.45-.21-.74-.21s-.55.07-.76.22c-.21.14-.37.33-.48.57-.11.23-.17.48-.17.75v.44c0,.36.06.67.19.92.13.25.3.45.53.58.23.13.49.2.79.2.19,0,.37-.03.53-.08.16-.05.29-.14.41-.25.11-.11.2-.25.26-.42l.76.21c-.08.25-.21.46-.39.65s-.41.33-.67.44c-.27.11-.57.16-.91.16Z"/>
        <path class="cls-5" d="M83.47,116.02v.68h-2.54v-.68h2.54ZM81.67,114.85h.79v4.81c0,.22.04.38.13.48.09.1.24.15.45.15.05,0,.11,0,.19-.02.08-.01.15-.02.21-.04l.16.67c-.08.03-.18.05-.28.07-.1.01-.21.02-.31.02-.42,0-.76-.11-.99-.34-.24-.22-.36-.54-.36-.94v-4.87Z"/>
        <path class="cls-5" d="M86.39,121.04c-.45,0-.84-.11-1.17-.32s-.6-.51-.78-.89-.28-.82-.28-1.33.09-.96.28-1.34c.19-.38.45-.68.78-.89s.73-.32,1.17-.32.84.11,1.18.32.6.51.79.89c.19.38.28.83.28,1.34s-.09.95-.28,1.33-.45.68-.79.89-.73.32-1.18.32ZM86.39,120.33c.33,0,.6-.08.82-.26.21-.17.37-.39.47-.67.1-.28.15-.58.15-.9s-.05-.63-.15-.91c-.1-.28-.26-.51-.47-.68-.21-.17-.49-.26-.82-.26s-.6.09-.81.26c-.21.17-.37.4-.47.67-.1.28-.15.58-.15.91s.05.62.15.9c.1.28.26.5.47.67.21.17.48.26.81.26Z"/>
        <path class="cls-5" d="M89.79,120.93v-4.91h.77v1.1s-.06,0-.06,0c.07-.27.17-.49.32-.66.15-.17.31-.31.51-.39s.4-.13.61-.13c.36,0,.65.11.87.33.22.22.36.51.43.87h-.11c.06-.25.17-.46.32-.64.16-.18.34-.32.56-.41.22-.1.46-.15.72-.15.28,0,.54.06.78.18s.42.31.56.56.21.56.21.94v3.31h-.79v-3.29c0-.35-.1-.61-.3-.76s-.43-.23-.69-.23c-.22,0-.41.05-.57.14-.16.09-.28.22-.37.38s-.13.35-.13.55v3.21h-.79v-3.37c0-.27-.09-.49-.27-.66-.18-.17-.41-.25-.69-.25-.19,0-.37.04-.54.13-.17.09-.3.22-.41.4s-.15.39-.15.65v3.09h-.79Z"/>
        <path class="cls-5" d="M99.74,121.04c-.47,0-.88-.11-1.23-.32s-.61-.51-.79-.88c-.19-.38-.28-.82-.28-1.32s.09-.95.27-1.33.44-.68.77-.9c.33-.22.72-.33,1.17-.33.26,0,.52.04.77.13.25.09.48.23.69.42.21.19.37.45.49.76.12.31.18.7.18,1.15v.33h-3.81v-.67h3.39l-.37.25c0-.32-.05-.61-.15-.86-.1-.25-.25-.45-.45-.59-.2-.14-.45-.21-.74-.21s-.55.07-.76.22c-.21.14-.37.33-.48.57-.11.23-.17.48-.17.75v.44c0,.36.06.67.19.92.13.25.3.45.53.58.23.13.49.2.79.2.19,0,.37-.03.53-.08.16-.05.29-.14.41-.25.11-.11.2-.25.26-.42l.76.21c-.08.25-.21.46-.39.65s-.41.33-.67.44c-.27.11-.57.16-.91.16Z"/>
      </g>
      <g>
        <path class="cls-5" d="M130.51,110.22c-.58,0-1.09-.14-1.53-.41-.44-.27-.78-.66-1.03-1.16-.25-.5-.37-1.1-.37-1.79s.12-1.29.37-1.79c.25-.5.59-.89,1.02-1.16.43-.27.93-.41,1.49-.41.35,0,.67.05.97.15.3.1.57.25.81.44.24.19.43.42.59.68.16.26.26.55.32.87h-.86c-.07-.21-.16-.4-.27-.57s-.24-.31-.4-.43c-.15-.12-.33-.21-.52-.27-.19-.06-.41-.09-.64-.09-.38,0-.73.1-1.05.3-.31.2-.56.49-.75.87-.18.39-.28.86-.28,1.42s.09,1.03.28,1.41c.19.38.44.68.76.88.32.2.68.3,1.08.3.37,0,.7-.08.98-.24.28-.16.5-.38.66-.67.16-.29.24-.63.24-1.02l.25.05h-1.95v-.73h2.51v.72c0,.54-.12,1.01-.35,1.41s-.55.71-.95.92c-.4.22-.87.33-1.39.33Z"/>
        <path class="cls-5" d="M135.24,103.58v6.55h-.79v-6.55h.79Z"/>
        <path class="cls-5" d="M138.63,110.24c-.45,0-.83-.11-1.17-.32-.33-.21-.6-.51-.78-.89s-.28-.82-.28-1.33.09-.96.28-1.34c.19-.38.45-.68.78-.89.34-.21.73-.32,1.17-.32s.84.11,1.18.32.6.51.79.89c.19.38.28.83.28,1.34s-.09.95-.28,1.33-.45.68-.79.89-.73.32-1.18.32ZM138.63,109.53c.33,0,.6-.08.82-.26.21-.17.37-.39.47-.67.1-.28.15-.58.15-.9s-.05-.63-.15-.91c-.1-.28-.26-.51-.47-.68-.21-.17-.49-.26-.82-.26s-.6.09-.81.26c-.21.17-.37.4-.47.67-.1.28-.15.58-.15.91s.05.62.15.9c.1.28.26.5.47.67.21.17.48.26.81.26Z"/>
        <path class="cls-5" d="M144.31,110.24c-.31,0-.56-.05-.75-.16-.19-.11-.34-.23-.44-.37-.1-.14-.18-.25-.24-.34h-.09v.76h-.76v-6.55h.79v2.42h.06c.06-.09.13-.2.23-.33.1-.13.24-.25.43-.36.19-.11.44-.16.76-.16.41,0,.77.1,1.08.31.31.21.56.5.73.88.18.38.27.83.27,1.35s-.09.97-.26,1.35-.42.68-.73.88c-.31.21-.67.31-1.08.31ZM144.19,109.53c.31,0,.56-.08.77-.25.21-.17.36-.39.47-.67.1-.28.16-.59.16-.93s-.05-.65-.15-.92c-.1-.27-.26-.49-.46-.65-.21-.16-.46-.24-.78-.24s-.56.08-.76.23c-.21.15-.36.36-.46.64-.1.27-.16.59-.16.95s.05.68.16.96c.11.28.26.5.47.65.21.16.46.24.75.24Z"/>
        <path class="cls-5" d="M149,110.25c-.31,0-.59-.06-.85-.18-.25-.12-.45-.29-.6-.51-.15-.22-.22-.5-.22-.82,0-.28.06-.51.17-.69s.26-.31.45-.42c.19-.1.39-.18.62-.23s.45-.09.68-.12c.29-.04.53-.07.72-.09.18-.02.32-.05.41-.11.09-.05.13-.13.13-.25v-.03c0-.2-.04-.38-.11-.52-.08-.14-.19-.25-.34-.33s-.34-.11-.57-.11-.43.04-.6.11c-.17.07-.3.16-.41.27-.1.11-.18.22-.23.34l-.76-.25c.13-.3.3-.53.51-.7.21-.17.45-.29.71-.36.26-.07.51-.11.76-.11.16,0,.35.02.56.06.21.04.41.12.61.24.2.12.36.29.48.52.13.23.19.54.19.92v3.24h-.78v-.67h-.05c-.06.11-.15.23-.27.35-.12.12-.28.22-.48.31s-.43.12-.71.12ZM149.14,109.55c.29,0,.54-.06.74-.17.2-.11.36-.26.46-.45.11-.18.16-.37.16-.57v-.68s-.1.07-.21.1c-.11.03-.23.06-.37.08-.14.02-.27.04-.4.06-.13.02-.23.03-.31.04-.19.02-.37.06-.53.12-.17.06-.3.14-.4.25-.1.11-.15.26-.15.45,0,.17.04.31.13.43s.21.2.36.26c.15.06.33.09.52.09Z"/>
        <path class="cls-5" d="M153.47,103.58v6.55h-.79v-6.55h.79Z"/>
        <path class="cls-5" d="M157.49,110.13v-6.55h2.24c.51,0,.93.09,1.26.28.33.19.57.44.73.75.16.31.24.67.24,1.05s-.08.74-.24,1.06c-.16.32-.4.57-.73.76-.33.19-.75.28-1.26.28h-1.59v-.73h1.55c.35,0,.62-.06.83-.18.21-.12.36-.28.46-.49.1-.21.14-.44.14-.7s-.05-.49-.14-.69c-.09-.2-.25-.36-.46-.48-.21-.12-.49-.18-.84-.18h-1.36v5.81h-.83Z"/>
        <path class="cls-5" d="M162.88,104.32v-.74h4.95v.74h-2.05v5.81h-.83v-5.81h-2.06Z"/>
        <path class="cls-5" d="M169.05,110.13v-6.55h1.19l1.61,4.13c.04.1.08.22.13.36.05.15.1.3.15.47.05.17.11.34.16.51.05.17.09.32.13.47h-.19c.04-.13.09-.29.14-.45.05-.17.1-.33.16-.51.05-.17.11-.33.16-.48.05-.15.09-.27.13-.37l1.59-4.13h1.19v6.55h-.82v-3.74c0-.13,0-.29,0-.46,0-.17,0-.35,0-.54,0-.19,0-.38.01-.58,0-.2,0-.39.01-.57h.07c-.06.2-.13.41-.2.62-.07.21-.14.41-.2.61-.07.2-.13.37-.19.53s-.11.29-.15.4l-1.46,3.74h-.73l-1.49-3.74c-.04-.1-.09-.23-.14-.39-.06-.16-.12-.33-.18-.52-.07-.19-.13-.39-.2-.61-.07-.21-.14-.43-.22-.64h.08c0,.16.01.34.02.53,0,.19,0,.38.01.58,0,.2,0,.38,0,.56,0,.18,0,.34,0,.49v3.74h-.79Z"/>
        <path class="cls-5" d="M136.59,121.04c-.31,0-.59-.06-.85-.18-.25-.12-.45-.29-.6-.51-.15-.22-.22-.5-.22-.82,0-.28.06-.51.17-.69s.26-.31.45-.42c.19-.1.39-.18.62-.23s.45-.09.68-.12c.29-.04.53-.07.72-.09.18-.02.32-.05.41-.11.09-.05.13-.13.13-.25v-.03c0-.2-.04-.38-.11-.52-.08-.14-.19-.25-.34-.33s-.34-.11-.57-.11-.43.04-.6.11c-.17.07-.3.16-.41.27-.1.11-.18.22-.23.34l-.76-.25c.13-.3.3-.53.51-.7.21-.17.45-.29.71-.36.26-.07.51-.11.76-.11.16,0,.35.02.56.06.21.04.41.12.61.24.2.12.36.29.48.52.13.23.19.54.19.92v3.24h-.78v-.67h-.05c-.06.11-.15.23-.27.35-.12.12-.28.22-.48.31s-.43.12-.71.12ZM136.73,120.35c.29,0,.54-.06.74-.17.2-.11.36-.26.46-.45.11-.18.16-.37.16-.57v-.68s-.1.07-.21.1c-.11.03-.23.06-.37.08-.14.02-.27.04-.4.06-.13.02-.23.03-.31.04-.19.02-.37.06-.53.12-.17.06-.3.14-.4.25-.1.11-.15.26-.15.45,0,.17.04.31.13.43s.21.2.36.26c.15.06.33.09.52.09Z"/>
        <path class="cls-5" d="M141.06,117.99v2.94h-.79v-4.91h.76v1.19s-.11,0-.11,0c.15-.45.36-.78.64-.97.28-.19.6-.29.97-.29.33,0,.62.07.87.2.25.14.44.34.58.62.14.27.21.62.21,1.04v3.12h-.79v-3.05c0-.38-.1-.67-.3-.89-.2-.21-.47-.32-.81-.32-.23,0-.45.05-.63.15-.19.1-.34.25-.44.45-.11.2-.16.43-.16.72Z"/>
        <path class="cls-5" d="M146.96,121.04c-.31,0-.59-.06-.85-.18-.25-.12-.45-.29-.6-.51-.15-.22-.22-.5-.22-.82,0-.28.06-.51.17-.69s.26-.31.45-.42c.19-.1.39-.18.62-.23s.45-.09.68-.12c.29-.04.53-.07.72-.09.18-.02.32-.05.41-.11.09-.05.13-.13.13-.25v-.03c0-.2-.04-.38-.11-.52-.08-.14-.19-.25-.34-.33s-.34-.11-.57-.11-.43.04-.6.11c-.17.07-.3.16-.41.27-.1.11-.18.22-.23.34l-.76-.25c.13-.3.3-.53.51-.7.21-.17.45-.29.71-.36.26-.07.51-.11.76-.11.16,0,.35.02.56.06.21.04.41.12.61.24.2.12.36.29.48.52.13.23.19.54.19.92v3.24h-.78v-.67h-.05c-.06.11-.15.23-.27.35-.12.12-.28.22-.48.31s-.43.12-.71.12ZM147.1,120.35c.29,0,.54-.06.74-.17.2-.11.36-.26.46-.45.11-.18.16-.37.16-.57v-.68s-.1.07-.21.1c-.11.03-.23.06-.37.08-.14.02-.27.04-.4.06-.13.02-.23.03-.31.04-.19.02-.37.06-.53.12-.17.06-.3.14-.4.25-.1.11-.15.26-.15.45,0,.17.04.31.13.43s.21.2.36.26c.15.06.33.09.52.09Z"/>
        <path class="cls-5" d="M151.43,114.38v6.55h-.79v-6.55h.79Z"/>
        <path class="cls-5" d="M152.78,122.71l.2-.69.08.02c.16.04.31.05.44.03.13-.02.25-.08.36-.2s.2-.28.28-.52l.14-.41-1.88-4.94h.87l1.04,2.91c.11.31.21.61.28.91s.16.59.24.87h-.29c.08-.28.17-.57.24-.87.08-.3.17-.6.28-.9l1.05-2.91h.86l-2.16,5.65c-.1.26-.22.47-.36.64-.14.17-.3.29-.49.37-.18.08-.39.12-.62.12-.14,0-.26-.01-.37-.03-.1-.02-.17-.04-.21-.06Z"/>
        <path class="cls-5" d="M159.59,121.04c-.34,0-.64-.05-.9-.15-.26-.1-.48-.24-.65-.44s-.28-.43-.34-.71l.75-.18c.07.27.2.47.4.59.19.13.44.19.73.19.34,0,.62-.07.82-.22.2-.15.31-.32.31-.52,0-.17-.06-.31-.18-.42-.12-.11-.3-.2-.54-.25l-.82-.19c-.45-.11-.78-.27-.99-.49-.22-.22-.33-.5-.33-.85,0-.28.08-.53.24-.75.16-.21.37-.38.65-.5.27-.12.58-.18.93-.18s.62.05.86.15c.24.1.43.24.58.42.15.18.26.38.33.61l-.72.19c-.07-.18-.18-.34-.34-.48-.16-.14-.39-.22-.71-.22-.29,0-.54.07-.73.2-.19.13-.29.3-.29.51,0,.18.07.33.2.44.13.11.34.2.63.27l.74.18c.45.11.78.27.99.49.21.22.32.5.32.84,0,.29-.08.54-.24.77-.16.22-.39.4-.68.53-.29.13-.63.19-1.01.19Z"/>
        <path class="cls-5" d="M163.07,115.21c-.15,0-.28-.05-.39-.15s-.16-.23-.16-.37.05-.27.16-.37c.11-.1.24-.15.39-.15s.28.05.39.15c.11.1.16.22.16.37s-.05.27-.16.37-.24.15-.39.15ZM162.67,120.93v-4.91h.79v4.91h-.79Z"/>
        <path class="cls-5" d="M166.52,121.04c-.34,0-.64-.05-.9-.15-.26-.1-.48-.24-.65-.44s-.28-.43-.34-.71l.75-.18c.07.27.2.47.4.59.19.13.44.19.73.19.34,0,.62-.07.82-.22.2-.15.31-.32.31-.52,0-.17-.06-.31-.18-.42-.12-.11-.3-.2-.54-.25l-.82-.19c-.45-.11-.78-.27-.99-.49-.22-.22-.33-.5-.33-.85,0-.28.08-.53.24-.75.16-.21.37-.38.65-.5.27-.12.58-.18.93-.18s.62.05.86.15c.24.1.43.24.58.42.15.18.26.38.33.61l-.72.19c-.07-.18-.18-.34-.34-.48-.16-.14-.39-.22-.71-.22-.29,0-.54.07-.73.2-.19.13-.29.3-.29.51,0,.18.07.33.2.44.13.11.34.2.63.27l.74.18c.45.11.78.27.99.49.21.22.32.5.32.84,0,.29-.08.54-.24.77-.16.22-.39.4-.68.53-.29.13-.63.19-1.01.19Z"/>
      </g>
      <g>
        <g>
          <path class="cls-10" d="M200.39,17.25c-1.46-.23-1.96-1-1.83-2.83.08-1.13.9-1.84,2.16-1.84,3.99,0,7.98,0,11.97,0,1.46,0,2.21.57,2.37,1.81.22,1.64-.29,2.47-1.79,2.89-.08.02-.13.1-.2.16-.21.25-.1.55-.1.82,0,9.74,0,19.47,0,29.21,0,1.99.13,4-.3,5.97-.87,2.58-3.24,4.07-5.79,4.14-2.54.07-4.86-1.56-5.85-3.97-.6-1.78-.46-3.62-.46-5.45,0-10.01,0-20.03-.01-30.04,0-.28.19-.63-.15-.86Z"/>
          <path class="cls-11" d="M200.39,17.25c.43.25.24.67.24,1.01.01,10.64.01,21.28,0,31.92,0,.98.09,1.94.42,2.86.07.2.15.38-.03.55-.48-.97-.57-2.01-.57-3.08,0-10.58,0-21.16,0-31.73,0-.51-.04-1.03-.06-1.54Z"/>
          <path class="cls-18" d="M212.66,53.44c-.14-.14-.16-.32-.1-.48.43-1.11.32-2.26.32-3.4,0-10.43,0-20.85,0-31.28,0-.28.02-.56.04-.85,0-.01.04-.03.07-.03.03,0,.05.02.08.03,0,4.02.02,8.04.02,12.06,0,6.98,0,13.96,0,20.94,0,1.03-.11,2.03-.43,3Z"/>
          <path class="cls-8" d="M211.99,52.58c-.7,2.5-2.8,4.14-5.23,4.09-2.54-.06-4.64-1.79-5.26-4.34-.04-.16-.1-.32-.15-.48-.17-.17-.11-.38-.11-.57,0-11.19-.01-22.39,0-33.58.07-.2.23-.2.39-.16.02.02.06.04.06.06.1,1.34,1.05,1.16,1.99,1.23,2.18.16,4.34-.19,6.51-.11.62.02,1.27-.04,1.75.5.1.37.06.74.06,1.11,0,10.15,0,20.31.01,30.46,0,.6-.19,1.19-.04,1.79Z"/>
          <path class="cls-8" d="M206.85,16.38c-2.01,0-4.02,0-6.03,0-1.04,0-1.38-.36-1.38-1.4,0-1.08.37-1.49,1.4-1.5,3.96,0,7.92,0,11.89,0,1.13,0,1.45.36,1.43,1.52-.02,1.14-.27,1.38-1.45,1.38-1.95,0-3.9,0-5.86,0Z"/>
          <path class="cls-44" d="M201.68,17.59c-.11,0-.22,0-.32,0-.08-.12-.05-.2.08-.24,3.4-.03,6.81,0,10.21-.01.17,0,.35-.03.5.09.01.43.04.86.04,1.29,0,10.56,0,21.13,0,31.69,0,.74-.06,1.46-.2,2.19-.26-.3-.14-.66-.14-.99,0-10.82,0-21.64,0-32.45-.04-.04-.06-.1-.1-.14-.3-.31.11-.93-.44-1.1-.38-.11-.79-.03-1.19-.03-2.4,0-4.8,0-7.2,0-.42,0-.87.05-1.22-.27Z"/>
          <path class="cls-11" d="M201.37,17.41c0,.06-.01.11-.02.17-.01,2.47-.03,4.93-.03,7.4,0,8.58,0,17.16,0,25.74,0,.37.02.75.03,1.12-.05.06-.09.29-.16.15-.09-.18-.03-.45-.03-.68,0-11.04,0-22.08,0-33.11,0-.32-.17-.7.21-.94.04.05.04.11,0,.16Z"/>
          <path class="cls-8" d="M201.37,17.41c-.02-.05-.02-.11,0-.16,3.32.01,6.65.02,9.97.04.26,0,.57-.15.8.12-3.59,0-7.18,0-10.77,0Z"/>
          <path class="cls-31" d="M210.78,52.23c-.59,1.43-1.46,2.62-3,3.09-2.27.68-5.06-1.53-5.06-3.97,0-6.68.03-13.37,0-20.05,0-.66.18-.81.81-.8,2.41.04,4.82.02,7.23.03.21.18.12.43.12.65,0,6.8,0,13.6,0,20.4,0,.22.08.46-.11.66Z"/>
          <path class="cls-47" d="M201.68,17.59c3.06,0,6.13.03,9.19-.02.77-.01,1.18.09.98.97-.04.19,0,.4-.01.6-1.87-.31-3.75-.13-5.62,0-1.32.09-2.63-.23-3.95,0-.44.08-.63-.15-.6-.59.02-.31,0-.63.01-.94Z"/>
          <path class="cls-44" d="M210.78,52.23c0-7.23,0-14.47-.01-21.7.34.22.21.57.21.86,0,6.66,0,13.31,0,19.97,0,.3.13.64-.19.87Z"/>
        </g>
        <g>
          <path class="cls-5" d="M198.16,68.86v-4.36h1.61c.31,0,.57.05.77.15s.35.24.45.41c.1.17.15.37.15.58,0,.18-.03.33-.1.46-.07.12-.16.22-.27.3-.11.08-.24.13-.37.17v.04c.15,0,.29.05.43.14s.25.21.34.37c.09.16.14.35.14.57s-.05.42-.16.6-.27.32-.48.42-.5.16-.83.16h-1.68ZM198.83,66.39h.88c.15,0,.28-.03.4-.08s.21-.14.28-.24c.07-.1.1-.22.1-.36,0-.18-.06-.33-.19-.45-.12-.12-.32-.18-.58-.18h-.89v1.32ZM198.83,68.29h.94c.31,0,.54-.06.67-.18s.21-.27.21-.45c0-.14-.03-.27-.1-.38s-.17-.2-.29-.27c-.13-.07-.28-.1-.45-.1h-.97v1.39Z"/>
          <path class="cls-5" d="M202.69,64.5v4.36h-.64v-4.36h.64Z"/>
          <path class="cls-5" d="M204.94,68.93c-.31,0-.57-.07-.8-.21s-.41-.34-.53-.59-.19-.55-.19-.88.06-.64.19-.89c.13-.26.31-.45.53-.59s.5-.21.8-.21.58.07.81.21.41.34.53.59c.13.25.19.55.19.89s-.06.63-.19.88-.31.45-.53.59-.5.21-.81.21ZM204.94,68.38c.2,0,.36-.05.49-.16.13-.1.23-.24.29-.42.06-.17.1-.36.1-.57s-.03-.4-.1-.58-.16-.31-.29-.42c-.13-.1-.29-.16-.49-.16s-.36.05-.49.16c-.13.11-.23.24-.29.42s-.1.37-.1.58.03.4.1.57c.06.17.16.31.29.42.13.11.29.16.49.16Z"/>
          <path class="cls-5" d="M208.56,68.93c-.31,0-.57-.07-.8-.21s-.41-.34-.53-.59-.19-.55-.19-.88.06-.64.19-.89c.13-.26.31-.45.53-.59s.5-.21.8-.21.58.07.81.21.41.34.53.59c.13.25.19.55.19.89s-.06.63-.19.88-.31.45-.53.59-.5.21-.81.21ZM208.56,68.38c.2,0,.36-.05.49-.16.13-.1.23-.24.29-.42.06-.17.1-.36.1-.57s-.03-.4-.1-.58-.16-.31-.29-.42c-.13-.1-.29-.16-.49-.16s-.36.05-.49.16c-.13.11-.23.24-.29.42s-.1.37-.1.58.03.4.1.57c.06.17.16.31.29.42.13.11.29.16.49.16Z"/>
          <path class="cls-5" d="M212.03,68.93c-.27,0-.5-.07-.71-.2s-.37-.33-.49-.58c-.12-.25-.18-.55-.18-.91s.06-.66.18-.91.28-.44.49-.58.44-.2.7-.2c.2,0,.37.03.49.1.12.07.22.15.29.24s.12.17.16.24h.04v-1.62h.64v4.36h-.63v-.51h-.05c-.04.07-.09.15-.16.24s-.17.17-.3.24c-.12.07-.29.1-.48.1ZM212.17,68.38c.18,0,.34-.05.46-.15s.22-.23.29-.41c.07-.17.1-.37.1-.6s-.03-.43-.1-.6-.16-.3-.29-.4c-.13-.09-.28-.14-.47-.14s-.35.05-.47.15-.22.24-.28.41-.1.36-.1.58.03.41.1.59.16.31.29.41.28.15.47.15Z"/>
          <path class="cls-5" d="M214.45,69.95l.26-1.71h.69l-.48,1.71h-.47ZM215.07,66.6c-.12,0-.22-.04-.31-.13s-.13-.19-.13-.31.04-.22.13-.3.19-.12.31-.12.22.04.3.12.13.18.13.3-.04.22-.13.31-.19.13-.3.13Z"/>
          <path class="cls-5" d="M199.44,76.14c-.33,0-.61-.05-.85-.16s-.43-.25-.56-.44-.21-.42-.22-.69h.67c.01.16.06.29.15.39s.2.18.35.23.3.08.46.08c.19,0,.35-.03.49-.09.14-.06.26-.14.34-.25.08-.11.13-.23.13-.37,0-.13-.04-.23-.11-.31s-.17-.15-.3-.2c-.12-.05-.27-.1-.42-.14l-.51-.14c-.36-.1-.64-.24-.84-.42s-.3-.43-.3-.73c0-.25.07-.47.2-.66.14-.19.32-.33.55-.44.23-.1.5-.16.79-.16s.56.05.79.16c.23.11.41.25.54.43s.2.39.2.62h-.65c-.02-.2-.11-.35-.28-.46s-.37-.16-.62-.16c-.18,0-.33.03-.46.08s-.23.13-.3.23c-.07.1-.11.21-.11.33,0,.14.04.25.13.34.08.08.19.15.31.2.12.05.24.09.35.12l.42.11c.14.04.28.08.43.14s.28.14.41.23c.12.1.23.21.3.35.08.14.12.31.12.51,0,.25-.06.47-.19.66s-.31.35-.55.46c-.24.11-.53.17-.87.17Z"/>
          <path class="cls-5" d="M203.22,76.13c-.32,0-.6-.07-.83-.21s-.41-.33-.54-.59-.19-.55-.19-.89.06-.63.19-.89.3-.46.53-.6c.23-.14.49-.21.8-.21.19,0,.37.03.54.09.17.06.33.16.47.29s.25.3.33.51c.08.21.12.46.12.76v.23h-2.61v-.48h2.28l-.3.16c0-.2-.03-.38-.09-.53s-.15-.27-.28-.36-.27-.13-.46-.13-.34.04-.47.13-.23.2-.29.35c-.07.14-.1.3-.1.47v.33c0,.22.04.41.12.57.08.15.19.27.32.35.14.08.3.12.48.12.12,0,.23-.02.33-.05.1-.03.18-.08.25-.15s.13-.16.16-.26l.61.14c-.05.17-.14.32-.27.45s-.28.23-.46.3c-.18.07-.39.11-.63.11Z"/>
          <path class="cls-5" d="M205.33,76.06v-3.28h.62v.53h.04c.06-.18.17-.32.32-.42s.32-.15.51-.15c.04,0,.09,0,.14,0,.05,0,.1,0,.13.01v.62s-.07-.02-.13-.02-.13-.01-.2-.01c-.15,0-.28.03-.4.09s-.21.15-.28.26-.1.24-.1.38v1.99h-.64Z"/>
          <path class="cls-5" d="M208.77,76.1c-.22,0-.42-.05-.59-.14s-.3-.23-.39-.42-.14-.41-.14-.68v-2.08h.64v2c0,.24.06.42.19.55s.29.2.51.2c.15,0,.28-.03.39-.1.11-.06.2-.16.27-.28s.1-.27.1-.44v-1.94h.64v3.28h-.62v-.8s.06,0,.06,0c-.1.3-.24.51-.42.64s-.4.2-.65.2Z"/>
          <path class="cls-5" d="M211.26,76.06v-3.28h.61l.02.76h-.05c.05-.19.12-.34.22-.46s.21-.21.34-.27c.13-.06.27-.09.41-.09.24,0,.43.07.58.22s.25.35.3.62h-.08c.04-.18.12-.33.22-.46s.23-.22.38-.28.31-.1.48-.1c.19,0,.37.04.53.13s.28.21.37.38.14.37.14.62v2.21h-.64v-2.14c0-.22-.06-.38-.18-.47s-.27-.15-.43-.15c-.13,0-.25.03-.35.08s-.17.14-.23.24c-.05.1-.08.22-.08.35v2.1h-.64v-2.19c0-.18-.06-.32-.17-.42s-.26-.16-.43-.16c-.12,0-.23.03-.33.08-.1.05-.18.14-.25.25-.06.11-.09.24-.09.4v2.04h-.64Z"/>
        </g>
        <g>
          <path class="cls-34" d="M224.7,38.01c0-4.15.02-8.3-.01-12.45,0-.97.34-1.56,1.25-1.96,5.34-2.36,10.7-4.67,15.96-7.19,2.02-.96,3.89-.5,5.81-.16,6.31,1.13,12.6,2.33,18.9,3.5,1.62.3,1.91.65,1.9,2.27-.01,6.37-.04,12.75-.03,19.12,0,.83-.21,1.48-.83,2.07-4.7,4.46-9.39,8.94-14.06,13.43-.68.65-1.38.79-2.31.62-6.19-1.11-12.4-2.16-18.6-3.24-1.99-.35-3.99-.69-5.97-1.08-1.49-.3-1.9-.85-1.9-2.36,0-4.19,0-8.37,0-12.56h-.1Z"/>
          <path class="cls-12" d="M251.99,56.15c-4.37-.74-8.69-1.46-13.01-2.21-4.03-.7-8.05-1.45-12.09-2.12-.73-.12-.88-.41-.88-1.08-.02-8.15-.07-16.3-.13-24.44,0-.79.13-.96,1-.81,7.81,1.38,15.63,2.69,23.44,4.02,1.96.33,1.96.34,1.94,2.27-.07,7.89-.15,15.78-.22,23.66,0,.22-.03.43-.05.71Z"/>
          <path class="cls-27" d="M253.44,55.11c0-7.97,0-15.92,0-23.88,0-1.17.41-1.86,1.53-2.46,4.13-2.19,8.18-4.54,12.41-6.92,0,.41,0,.72,0,1.02-.01,6.11-.02,12.22-.02,18.34,0,.51-.08.91-.47,1.28-4.45,4.18-8.89,8.38-13.33,12.58-.05.04-.13.05-.1.04Z"/>
          <path class="cls-12" d="M266.62,20.98c-4.53,2.53-8.89,4.91-13.2,7.38-.92.53-1.75.17-2.57.03-7.2-1.19-14.39-2.44-21.58-3.66-.61-.1-1.23-.17-2.1-.29.57-.29.92-.49,1.29-.65,4.22-1.9,8.49-3.71,12.65-5.75,2.04-1,3.95-1.16,6.14-.72,5.95,1.21,11.95,2.24,17.92,3.34.42.08.84.18,1.45.32Z"/>
          <path class="cls-24" d="M237.92,30.39c7.15.01,12.67,6.53,11.44,13.54-.96,5.5-7.34,9.25-12.78,7.3-3.95-1.41-7.01-4.01-8.16-8.24-1.28-4.69.69-11.03,7.52-12.46.64-.13,1.33-.1,1.99-.14Z"/>
          <path class="cls-23" d="M229.15,40.34c0-7.69,7.15-10.57,13.04-8.03,4.37,1.88,7.02,6.85,6.16,11.18-1.11,5.62-7.16,8.85-12.35,6.42-3.3-1.55-5.94-3.87-6.74-7.7-.04-.18-.1-.36-.11-.54-.02-.44,0-.89,0-1.33Z"/>
          <path class="cls-26" d="M235.8,41.12c-1.16-.02-2.43-1.36-2.42-2.57.01-1.43,1.44-2.79,2.92-2.78,1.55.02,2.88,1.25,2.86,2.64-.03,1.42-1.65,2.73-3.35,2.71Z"/>
          <path class="cls-50" d="M242.23,45.34c-.69.02-.89-.38-.86-.99.05-.98.85-1.7,1.83-1.69.73,0,.99.46,1.01,1.06.03.72-1.17,1.66-1.98,1.63Z"/>
        </g>
        <path class="cls-32" d="M273.09,43.39c.13.17.08.37.06.56-.15,1.47-.2,2.94-.08,4.42.03.35.1.71-.05,1.06-.15-2.01-.15-4.03.08-6.04Z"/>
        <path class="cls-46" d="M273.3,51.39s.07-.11.07-.1c.21,1.14.57,2.23,1.08,3.27,0,0-.03.04-.05.05-.6-.99-.91-2.09-1.11-3.23Z"/>
        <path class="cls-1" d="M280.3,15.54c-.01.15-.02.3-.04.45-.02,0-.05,0-.07,0v-2.83c.13.18.11.39.11.6,0,.59,0,1.19,0,1.78Z"/>
        <path class="cls-36" d="M278.9,13.4c.13.14.06.32.07.48,0,.63,0,1.25,0,1.88,0,.12.05.26-.08.35,0-.9.01-1.8.02-2.71Z"/>
        <path class="cls-2" d="M274.94,18.85c-.12.6,0,.72.65.75.4.01.82-.1,1.21.07-.5,0-1,.02-1.5,0-.51-.02-.66-.4-.37-.81Z"/>
        <g>
          <path class="cls-45" d="M288.66,53c-.91.34-1.82.67-2.73,1.01-1.01.38-1.97.84-2.94,1.3-.05-.02-.1-.03-.15,0-.71.37-1.43.69-2.15,1.04-1.78.71-3.53.92-5.17-.36-.47-.37-.84-.83-1.12-1.36-.14-.46-.42-.87-.57-1.33-.2-.62-.37-1.25-.49-1.89,0,0,0-.02-.02-.02-.01,0-.02,0-.04,0-.17-.64-.25-1.3-.28-1.97.07-.28,0-.56,0-.84-.08-1.45-.05-2.91.04-4.36.02-.28.14-.55.05-.84.52-4.37,1.83-8.47,4.56-11.97,2.73-3.51,6.13-6.14,10.55-7.24.46.03.88-.15,1.32-.22,1.33-.23,2.67-.32,4.03-.3.48,0,.95,0,1.43,0,.43.16.89.06,1.34.12.81.12,1.63.22,2.43.4.08.02.15.02.22-.02.4.07.8.14,1.18.29,1.08.35,2.19.62,3.26.98.51.17,1.03.32,1.54.49h-.01c1.39.45,2.76.95,4.16,1.38.08.03.16.1.25.03.02-.01.04-.01.07-.01.06,0,.12-.01.18,0,.37.11.77.15,1.09.4.34.12.68.24,1.02.36.57.27,1.2.4,1.8.6,1.08.36,2.15.74,3.16,1.27.09.05.18.11.28.1.84.46,1.56,1.05,2.01,1.91.53,1,.4,1.99-.18,2.92-.59.96-1.41,1.68-2.4,2.21-.85.39-1.67.83-2.51,1.24-.07.03-.14.06-.16.15-1.74,1.12-3.24,2.54-4.93,3.72-.19.13-.39.24-.59.36-.67.23-1.26.61-1.93.84-1.12.38-2.28.57-3.45.68-.05,0,.02-.01-.03,0-.03.01-.02.04.02.05-.58.1-1.16.2-1.74.31-1.11.2-1.92.79-2.46,1.8-1.58,2.97-4.12,4.75-7.22,5.85-.35,0-.66.17-.98.29-.57.2-1.17.32-1.72.59Z"/>
          <path class="cls-39" d="M310.58,56.86c-.24.4-.5.53-.92.43-.39-.09-.61-.36-.61-.82,0-.93,0-1.85,0-2.88-.4.52-.75.97-1.1,1.41-.09.11-.18.23-.28.32-.22.2-.48.26-.74.08-.25-.17-.27-.43-.16-.69.28-.61.57-1.2.87-1.83-.88.47-1.75.93-2.62,1.39-.48.26-.92.18-1.15-.2-.25-.41-.12-.85.35-1.15.73-.46,1.47-.91,2.2-1.37.06-.04.16-.04.16-.19-.51,0-1.02,0-1.53,0-.13,0-.26-.01-.38-.04-.27-.07-.48-.22-.49-.52-.01-.3.19-.47.46-.54.51-.14,1.02-.25,1.53-.38.12-.03.25-.06.45-.11-.42-.21-.78-.39-1.14-.58-.42-.22-.86-.42-1.27-.66-.43-.24-.57-.74-.36-1.13.22-.41.64-.53,1.13-.3.85.41,1.69.82,2.6,1.27-.29-.54-.55-1.01-.81-1.49-.08-.15-.16-.3-.2-.46-.06-.25-.04-.5.21-.65.24-.14.48-.11.68.07.21.19.41.39.6.6.33.34.65.69.98,1.04.1-.22.05-.45.04-.68,0-.8.03-1.61-.02-2.41.22-.42.56-.58,1.02-.47.34.08.57.39.58.86.01.65,0,1.29,0,1.94,0,.21,0,.41,0,.53.4-.36.83-.76,1.26-1.15.1-.1.2-.21.31-.29.25-.17.52-.17.75.02.22.19.21.44.09.67-.3.59-.61,1.18-.95,1.82.77-.33,1.47-.7,2.16-1.07.15-.08.29-.16.45-.23.42-.19.83-.07,1.04.29.22.39.14.89-.25,1.13-.46.28-.95.52-1.42.77-.33.17-.66.34-1.07.56.56.14,1.03.25,1.5.37.11.03.22.06.33.1.32.1.62.23.61.64,0,.27-.34.54-.75.55-.54.02-1.08,0-1.75,0,.46.29.83.52,1.21.75.46.28.93.55,1.39.84.32.21.39.55.29.89-.09.34-.35.53-.7.59-.22.04-.4-.07-.58-.17-.8-.44-1.59-.89-2.46-1.37.27.56.52,1.06.76,1.57.06.13.11.26.13.4.03.23-.04.43-.27.55-.25.12-.47.1-.67-.1-.42-.43-.73-.93-1.1-1.39-.09-.11-.17-.22-.27-.36-.09.3.02.59-.09.85-.1-.17-.02-.35-.04-.42,0-.15-.08-.08-.03-.1,0,.97.07,1.93.04,2.9Z"/>
          <path class="cls-39" d="M280.28,24.54c-.15.44-.4.61-.83.56-.37-.05-.61-.31-.62-.76-.02-.79,0-1.57,0-2.46-.26.33-.48.61-.7.88-.13.16-.27.31-.41.46-.18.19-.4.25-.63.1-.24-.17-.32-.4-.19-.67.24-.48.47-.97.74-1.52-.66.37-1.27.7-1.87,1.04-.17.09-.33.2-.5.29-.42.22-.81.12-1.03-.26-.21-.36-.12-.76.27-1.01.67-.44,1.35-.85,2.02-1.28.1-.07.25-.1.27-.25-.45-.08-.89-.02-1.34-.04-.58-.02-.74-.25-.52-.78.22-.24.53-.23.81-.3.33-.09.67-.16,1.09-.26-.41-.23-.77-.43-1.12-.64-.37-.21-.74-.42-1.1-.64-.43-.26-.55-.61-.35-.96.23-.4.6-.5,1.05-.27.78.41,1.57.82,2.4,1.25-.26-.51-.49-.97-.72-1.44-.14-.29-.19-.58.12-.79.32-.22.57-.04.78.19.29.31.55.65.82.98.05.06.08.13.17.13.09-.9.06-1.8.02-2.71.23-.63.85-.74,1.29-.23.11.64.03,1.28.05,1.92,0,.22,0,.44,0,.65.01-.06-.02-.14.05-.19.1.15.02.33.07.48.32-.31.64-.61.96-.92.1-.1.21-.2.32-.28.2-.14.4-.17.6,0,.21.17.24.39.14.63-.22.49-.48.97-.83,1.53.84-.46,1.57-.86,2.31-1.26.48-.26.89-.16,1.13.26.22.39.11.79-.33,1.05-.7.42-1.43.82-2.16,1.24.43.11.85.21,1.27.31.55.13.81.35.77.66-.04.33-.36.5-.93.5-.41,0-.82,0-1.29,0,.62.37,1.22.73,1.82,1.09.2.12.41.22.59.36.37.26.46.69.25,1.05-.21.37-.63.49-1.04.27-.75-.41-1.48-.84-2.29-1.3.19.38.35.71.51,1.03.07.15.15.3.21.45.1.26.05.49-.19.64-.24.16-.48.11-.66-.1-.33-.38-.64-.78-.96-1.17-.09-.11-.16-.24-.29-.3-.09.51-.03,1.02-.04,1.52,0,.42-.04.84.03,1.26Z"/>
          <path class="cls-39" d="M310.68,27.74c-.41-.06-.78-.23-1.17-.35-.09-.63-.01-1.26-.04-1.89,0-.16.04-.33-.04-.49-.38.27-.61.68-.95,1-.21.2-.41.38-.7.18-.3-.21-.25-.48-.11-.75.19-.35.38-.69.6-1.09-.72.4-1.38.78-2.05,1.15-.46.26-.84.21-1.08-.16-.23-.37-.1-.81.34-1.08.64-.39,1.29-.75,2.03-1.19-.29,0-.49,0-.68,0-.21,0-.42.01-.62-.01-.27-.04-.57-.1-.6-.44-.04-.37.25-.48.53-.55.42-.11.84-.2,1.32-.32-.65-.37-1.26-.71-1.87-1.05-.23-.13-.44-.29-.5-.56-.07-.3.02-.57.26-.76.25-.2.52-.18.79-.02.68.38,1.36.77,2.13,1.2-.24-.44-.44-.78-.62-1.12-.07-.14-.14-.28-.2-.42-.1-.23-.05-.44.16-.58.21-.15.42-.11.6.05.33.29.61.63.9.96.09.1.15.24.3.29.1-.76.02-1.53.04-2.29,0-.19,0-.38.06-.57.19-.31.49-.3.77-.24.27.06.42.26.44.54-.05.82-.05,1.64,0,2.47.11.11.12-.02.15-.07.25-.29.49-.6.76-.88.22-.23.45-.53.82-.29.4.26.16.59.02.89-.18.37-.37.72-.52,1.14.63-.36,1.26-.72,1.9-1.07.29-.16.58-.22.86.03.39.34.37.89-.08,1.18-.51.33-1.04.63-1.56.93-.12.07-.23.14-.4.23.44.11.82.21,1.21.3.29.07.59.18.56.53-.03.35-.34.47-.65.49-.4.02-.8,0-1.28,0,.58.43,1.13.73,1.68,1.06.17.1.34.18.5.29.33.24.4.61.18.95-.19.31-.51.41-.87.23-.35-.17-.68-.36-1.02-.55-.33-.19-.66-.38-1.02-.59.19.36.36.7.54,1.03.16.29.19.59-.12.79-.31.2-.53,0-.72-.23-.23-.28-.46-.56-.7-.83-.08-.09-.12-.24-.29-.23-.08.88-.06,1.76,0,2.63,0,.03,0,.06.01.09Z"/>
          <path class="cls-41" d="M295.01,23.7c-.76,0-1.52-.01-2.28,0-1.4.02-2.78.18-4.14.49-.14.03-.27.1-.4-.02,2.24-.57,4.52-.66,6.81-.54.02.01.02.03.02.04,0,.01-.01.02-.02.02Z"/>
          <path class="cls-49" d="M302.78,44.17c-.05,0-.1-.02-.15-.03,0-.01,0-.03,0-.04.27-.03.54-.06.81-.11.28-.04.55-.1.83-.14,1.26-.17,2.43-.59,3.55-1.17.11-.06.21-.21.37-.09-1.66,1-3.49,1.42-5.4,1.58Z"/>
          <path class="cls-16" d="M316.94,30.07c-.05.06-.11.05-.17.01-1.53-.83-3.18-1.31-4.83-1.81-.09-.03-.18-.07-.28-.11,0,0,0-.02,0-.03,0-.01.02-.02.03-.03,1.8.52,3.6,1.04,5.24,1.97Z"/>
          <path class="cls-9" d="M304.95,25.94c-.43-.04-.82-.21-1.22-.34-1.19-.38-2.38-.74-3.58-1.05-.18-.04-.08-.06,0-.09,1.34.28,2.63.73,3.93,1.14.3.09.63.11.88.34Z"/>
          <path class="cls-25" d="M309.35,27.35c-.07.09-.15.05-.24.03-1.37-.4-2.7-.91-4.06-1.36-.04-.01-.08-.06-.11-.09.46.03.86.25,1.28.38,1.05.34,2.09.69,3.13,1.04Z"/>
          <path class="cls-40" d="M295.01,23.7s0-.04,0-.07c.7.09,1.4.08,2.09.2.62.11,1.24.2,1.86.34-.37.17-.72-.05-1.07-.1-.9-.13-1.79-.29-2.7-.3-.06,0-.11-.04-.17-.07Z"/>
          <path class="cls-2" d="M310.58,56.86c-.09-.08-.06-.19-.06-.29,0-.96,0-1.92.05-2.88.01.26.02.52.03.78-.05.79.14,1.59-.03,2.38Z"/>
          <path class="cls-7" d="M313.7,38.51c-.09-.07-.02-.11.03-.14.83-.42,1.66-.83,2.49-1.24.04-.02.1-.01.15-.01-.79.54-1.71.85-2.55,1.32-.04.02-.09.05-.13.08Z"/>
          <path class="cls-16" d="M288.66,53s-.03,0-.04-.01c-.02-.01-.03-.03-.05-.04.09-.04.18-.08.28-.11.74-.24,1.49-.48,2.24-.72.1-.03.19-.11.28,0-.89.32-1.79.62-2.7.87Z"/>
          <path class="cls-29" d="M280.7,56.34c-.09-.09,0-.1.05-.12.67-.24,1.3-.58,1.94-.89.09-.05.19-.15.31-.02-.76.36-1.5.78-2.3,1.04Z"/>
          <path class="cls-19" d="M309.06,44.4c.12.2.05.43.05.64.01.68,0,1.37,0,2.05,0,.14.05.29-.08.4,0-.89-.01-1.78-.02-2.67,0-.14.03-.28.04-.42Z"/>
          <path class="cls-52" d="M309.52,16.89c0,.87,0,1.75-.02,2.62,0,.09.01.18-.08.24,0-.72-.02-1.44-.02-2.15,0-.24-.04-.49.12-.71Z"/>
          <path class="cls-42" d="M280.28,24.54c-.13-.14-.06-.32-.06-.48,0-.64,0-1.28,0-1.91,0-.13-.05-.28.08-.4,0,.93,0,1.86-.01,2.78Z"/>
          <path class="cls-13" d="M310.67,27.65c-.09-.06-.07-.16-.07-.24,0-.72,0-1.43,0-2.15,0-.09-.01-.18.08-.24,0,.88,0,1.76,0,2.63Z"/>
          <path class="cls-38" d="M310.73,19.66c-.14-.59-.04-1.2-.06-1.79,0-.22-.08-.46.06-.67,0,.82,0,1.64,0,2.47Z"/>
          <path class="cls-33" d="M309.43,25.02c.12.1.07.23.08.36,0,.67,0,1.35,0,2.02-.03-.02-.06-.04-.09-.05,0-.77,0-1.55.01-2.32Z"/>
          <path class="cls-15" d="M277.4,54.69c-.85-.51-1.28-1.35-1.61-2.23-.47-1.25-.67-2.56-.76-3.89-.07-.98-.09-1.97-.06-2.95.07-3.11.74-6.08,1.92-8.96,1.64-4.02,4.43-7.03,8.11-9.23,1.68-1.01,3.54-1.58,5.48-1.86,3.69-.53,7.28.02,10.82,1.01,2.85.8,5.62,1.86,8.45,2.74,1.54.48,3.1.88,4.59,1.51.78.33,1.54.71,2.15,1.33.94.96.96,1.97.05,2.97-.65.71-1.41,1.29-2.28,1.68-1.44.64-2.76,1.46-3.97,2.46-.07.05-.14.1-.21.15-1.49,1.11-3.19,1.6-5.01,1.8-1.19.13-2.38.15-3.56.29-1.33.16-2.52.6-3.5,1.56-.86.85-1.57,1.83-2.44,2.67-1.44,1.4-3.11,2.43-4.92,3.29-1.48.7-3.03,1.25-4.55,1.85-1.52.61-2.87,1.51-4.2,2.45-.92.65-1.85,1.27-2.99,1.48-.52.1-1.02.11-1.52-.11Z"/>
          <path class="cls-35" d="M276.94,54.52c1.77.36,3.18-.46,4.5-1.44,1.85-1.38,3.85-2.45,6.02-3.23,2.25-.82,4.44-1.77,6.4-3.17,1.16-.83,2.15-1.81,3.07-2.89.8-.95,1.59-1.93,2.78-2.44.73-.32,1.48-.51,2.27-.59,1.99-.19,4-.17,5.94-.75.87-.26,1.67-.67,2.45-1.14.12-.07.23-.16.38-.17-1.81,1.66-3.75,3.09-6.26,3.52-1.18.2-2.37.28-3.54.52-1.44.3-2.47,1.07-3.16,2.39-1.13,2.18-2.96,3.63-5.15,4.65-1.31.61-2.69,1-4.06,1.43-2.22.7-4.34,1.61-6.41,2.65-1.06.54-2.15.98-3.35,1.09-.67.06-1.31-.04-1.89-.43Z"/>
        </g>
        <g>
          <path class="cls-5" d="M230.45,69.36v-4.36h2.72v.57h-2.05v1.4h1.85v.57h-1.85v1.82h-.67Z"/>
          <path class="cls-5" d="M233.98,69.36v-4.36h2.72v.57h-2.05v1.4h1.85v.57h-1.85v1.82h-.67Z"/>
          <path class="cls-5" d="M237.52,69.36v-4.36h1.56c.34,0,.62.06.84.19s.39.29.5.51.17.45.17.72-.06.51-.17.72c-.11.21-.28.38-.51.51s-.51.19-.84.19h-1.07v-.57h1c.21,0,.39-.04.52-.11s.23-.18.29-.3.09-.27.09-.44-.03-.31-.09-.44c-.06-.13-.16-.23-.29-.3s-.31-.11-.53-.11h-.82v3.79h-.67Z"/>
          <path class="cls-5" d="M241.37,69.36v-4.36h2.75v.57h-2.08v1.3h1.93v.57h-1.93v1.34h2.1v.57h-2.77Z"/>
          <path class="cls-5" d="M247.94,66.09v.52h-1.78v-.52h1.78ZM246.64,65.31h.64v3.17c0,.13.03.23.08.29.06.06.15.09.27.09.03,0,.08,0,.13-.01s.1-.02.14-.02l.11.52c-.07.02-.14.04-.22.05s-.16.02-.23.02c-.3,0-.53-.08-.69-.23s-.25-.37-.25-.65v-3.22Z"/>
          <path class="cls-5" d="M248.9,65.59c-.11,0-.21-.04-.29-.11s-.12-.17-.12-.27.04-.2.12-.27.17-.11.29-.11.21.04.29.11.12.17.12.27-.04.2-.12.27-.18.11-.29.11ZM248.58,69.36v-3.28h.64v3.28h-.64Z"/>
          <path class="cls-5" d="M251.26,69.43c-.24,0-.45-.03-.63-.1s-.34-.17-.45-.3-.2-.3-.24-.49l.61-.13c.04.17.13.3.25.38s.28.12.47.12c.21,0,.37-.04.5-.13s.18-.19.18-.31c0-.11-.04-.19-.11-.26s-.19-.12-.35-.15l-.55-.13c-.3-.07-.53-.18-.68-.33s-.22-.34-.22-.58c0-.2.05-.37.16-.51s.26-.26.45-.34c.19-.08.41-.12.66-.12s.44.03.61.1.3.16.41.29.18.27.22.43l-.58.13c-.04-.12-.11-.22-.21-.3s-.25-.13-.44-.13c-.18,0-.33.04-.45.12s-.18.18-.18.3c0,.11.04.2.12.26.08.07.21.12.39.16l.53.12c.3.07.53.18.67.32s.22.33.22.56c0,.2-.06.38-.17.53-.11.15-.27.27-.47.36-.2.09-.44.13-.7.13Z"/>
          <path class="cls-5" d="M254.5,69.43c-.24,0-.45-.03-.63-.1s-.34-.17-.45-.3-.2-.3-.24-.49l.61-.13c.04.17.13.3.25.38s.28.12.47.12c.21,0,.37-.04.5-.13s.18-.19.18-.31c0-.11-.04-.19-.11-.26s-.19-.12-.35-.15l-.55-.13c-.3-.07-.53-.18-.68-.33s-.22-.34-.22-.58c0-.2.05-.37.16-.51s.26-.26.45-.34c.19-.08.41-.12.66-.12s.44.03.61.1.3.16.41.29.18.27.22.43l-.58.13c-.04-.12-.11-.22-.21-.3s-.25-.13-.44-.13c-.18,0-.33.04-.45.12s-.18.18-.18.3c0,.11.04.2.12.26.08.07.21.12.39.16l.53.12c.3.07.53.18.67.32s.22.33.22.56c0,.2-.06.38-.17.53-.11.15-.27.27-.47.36-.2.09-.44.13-.7.13Z"/>
          <path class="cls-5" d="M257.67,69.4c-.22,0-.42-.05-.59-.14s-.3-.23-.39-.42-.14-.41-.14-.68v-2.08h.64v2c0,.24.06.42.19.55s.29.2.51.2c.15,0,.28-.03.39-.1.11-.06.2-.16.27-.28s.1-.27.1-.44v-1.94h.64v3.28h-.62v-.8s.06,0,.06,0c-.1.3-.24.51-.42.64s-.4.2-.65.2Z"/>
          <path class="cls-5" d="M261.57,69.43c-.32,0-.6-.07-.83-.21s-.41-.33-.54-.59-.19-.55-.19-.89.06-.63.19-.89.3-.46.53-.6c.23-.14.49-.21.8-.21.19,0,.37.03.54.09.17.06.33.16.47.29s.25.3.33.51c.08.21.12.46.12.76v.23h-2.61v-.48h2.28l-.3.16c0-.2-.03-.38-.09-.53s-.15-.27-.28-.36-.27-.13-.46-.13-.34.04-.47.13-.23.2-.29.35c-.07.14-.1.3-.1.47v.33c0,.22.04.41.12.57.08.15.19.27.32.35.14.08.3.12.48.12.12,0,.23-.02.33-.05.1-.03.18-.08.25-.15s.13-.16.16-.26l.61.14c-.05.17-.14.32-.27.45s-.28.23-.46.3c-.18.07-.39.11-.63.11Z"/>
          <path class="cls-5" d="M237.77,75.71v-.54l1.88-2.98h.43v.79h-.27l-1.34,2.12v.04h2.58v.57h-3.28ZM239.84,76.56v-1.26s0-3.11,0-3.11h.64v4.37h-.64Z"/>
          <path class="cls-5" d="M243.31,76.62c-.34,0-.63-.09-.86-.26s-.42-.43-.55-.76c-.13-.33-.19-.74-.19-1.21s.06-.88.19-1.21.31-.59.55-.77.53-.27.86-.27.62.09.86.27.42.43.55.77.19.74.19,1.21-.06.88-.19,1.21-.31.59-.55.76-.53.26-.87.26ZM243.31,76.05c.2,0,.37-.07.51-.2.14-.13.25-.32.32-.57s.11-.55.11-.9-.04-.66-.11-.91-.18-.44-.32-.57c-.14-.13-.31-.2-.51-.2s-.37.07-.51.2-.25.32-.32.57c-.07.25-.11.55-.11.9s.04.65.11.9.18.44.32.57c.14.13.31.2.51.2Z"/>
          <path class="cls-5" d="M247.28,77.79v-4.5h.64v1.97c0,.19.03.34.1.46.07.12.15.21.27.26.11.05.24.08.37.08s.26-.03.37-.08.19-.14.26-.26.09-.27.09-.46v-1.97h.64v2.47c0,.1.02.17.07.21.04.04.12.06.23.06h.1v.53h-.19c-.28,0-.48-.07-.62-.2s-.2-.32-.2-.57v-.3h.13c0,.22-.03.4-.08.54-.06.14-.13.25-.22.33s-.18.14-.28.17c-.1.03-.19.05-.28.05s-.18-.02-.28-.05c-.1-.03-.19-.09-.28-.17s-.16-.19-.22-.33c-.06-.14-.08-.32-.08-.54h.13v2.29h-.64Z"/>
          <path class="cls-5" d="M250.88,76.56v-3.28h.61l.02.76h-.05c.05-.19.12-.34.22-.46s.21-.21.34-.27c.13-.06.27-.09.41-.09.24,0,.43.07.58.22s.25.35.3.62h-.08c.04-.18.12-.33.22-.46s.23-.22.38-.28.31-.1.48-.1c.19,0,.37.04.53.13s.28.21.37.38.14.37.14.62v2.21h-.64v-2.14c0-.22-.06-.38-.18-.47s-.27-.15-.43-.15c-.13,0-.25.03-.35.08s-.17.14-.23.24c-.05.1-.08.22-.08.35v2.1h-.64v-2.19c0-.18-.06-.32-.17-.42s-.26-.16-.43-.16c-.12,0-.23.03-.33.08-.1.05-.18.14-.25.25-.06.11-.09.24-.09.4v2.04h-.64Z"/>
        </g>
        <g>
          <path class="cls-5" d="M278.37,69.36v-4.36h2.72v.57h-2.05v1.4h1.85v.57h-1.85v1.82h-.67Z"/>
          <path class="cls-5" d="M282.5,65v4.36h-.64v-4.36h.64Z"/>
          <path class="cls-5" d="M284.29,69.44c-.21,0-.39-.04-.56-.12-.17-.08-.3-.19-.4-.34s-.15-.33-.15-.54c0-.19.04-.34.11-.46s.17-.21.29-.28.26-.12.41-.16.3-.06.46-.08c.19-.02.35-.04.47-.06.12-.02.21-.04.27-.07.06-.03.09-.09.09-.17v-.02c0-.12-.02-.23-.07-.31s-.12-.15-.21-.19-.21-.07-.35-.07-.27.02-.37.07c-.1.04-.19.1-.25.17s-.11.14-.14.21l-.61-.16c.07-.2.18-.35.32-.47s.3-.21.48-.26.37-.08.56-.08c.13,0,.27.02.42.05s.29.09.42.17.24.2.32.35.12.34.12.58v2.17h-.62v-.45h-.03c-.04.08-.11.17-.19.25s-.19.15-.32.2c-.13.05-.28.08-.46.08ZM284.43,68.92c.18,0,.33-.03.45-.1s.22-.16.29-.27.1-.23.1-.36v-.42s-.07.04-.13.06c-.07.02-.14.04-.22.05-.08.01-.17.03-.24.04s-.14.02-.19.02c-.12.02-.23.04-.33.08s-.18.09-.24.16-.09.16-.09.27c0,.1.03.19.08.26s.13.12.22.16.2.05.32.05Z"/>
          <path class="cls-5" d="M287.95,69.43c-.24,0-.45-.03-.63-.1-.18-.07-.34-.17-.45-.3s-.2-.3-.24-.49l.61-.13c.04.17.13.3.25.38s.28.12.47.12c.21,0,.37-.04.5-.13s.18-.19.18-.31c0-.11-.04-.19-.11-.26-.08-.07-.19-.12-.35-.15l-.55-.13c-.3-.07-.53-.18-.68-.33s-.22-.34-.22-.58c0-.2.05-.37.16-.51s.26-.26.45-.34c.19-.08.41-.12.66-.12s.44.03.61.1.3.16.41.29c.1.12.18.27.22.43l-.58.13c-.04-.12-.11-.22-.21-.3s-.25-.13-.44-.13c-.18,0-.33.04-.45.12s-.18.18-.18.3c0,.11.04.2.12.26.08.07.21.12.39.16l.53.12c.3.07.53.18.67.32s.22.33.22.56c0,.2-.06.38-.17.53-.11.15-.27.27-.47.36-.2.09-.44.13-.71.13Z"/>
          <path class="cls-5" d="M290.65,67.42v1.94h-.64v-4.36h.64v1.89h-.08c.1-.29.23-.51.42-.64s.4-.2.66-.2c.22,0,.42.05.58.14.17.09.3.23.39.41.09.18.14.41.14.68v2.08h-.64v-2c0-.24-.06-.42-.18-.55s-.29-.2-.51-.2c-.14,0-.27.03-.39.1s-.21.16-.27.28-.1.27-.1.44Z"/>
          <path class="cls-5" d="M295.54,67.25v.56h-1.94v-.56h1.94Z"/>
          <path class="cls-5" d="M298.01,66.09v.52h-2v-.52h2ZM296.64,69.36v-3.65c0-.2.04-.37.14-.51.09-.14.21-.24.36-.31s.31-.1.48-.1c.13,0,.24.01.33.03s.16.04.2.06l-.15.52s-.07-.02-.12-.03c-.05,0-.1-.02-.17-.02-.15,0-.26.04-.33.11s-.1.19-.1.33v3.56h-.64Z"/>
          <path class="cls-5" d="M298.67,69.36v-3.28h.62v.53h.04c.06-.18.17-.32.32-.42s.32-.15.51-.15c.04,0,.09,0,.14,0,.05,0,.1,0,.13.01v.62s-.07-.02-.13-.02-.13-.01-.2-.01c-.15,0-.28.03-.4.09s-.21.15-.28.26-.1.24-.1.38v1.99h-.64Z"/>
          <path class="cls-5" d="M302.25,69.43c-.31,0-.58-.07-.8-.21s-.41-.34-.53-.59-.19-.55-.19-.88.06-.64.19-.89c.13-.26.3-.45.53-.59s.5-.21.8-.21.58.07.81.21.41.34.54.59c.13.25.19.55.19.89s-.06.63-.19.88-.31.45-.54.59-.5.21-.81.21ZM302.25,68.89c.2,0,.36-.05.49-.16.13-.1.23-.24.29-.42.06-.17.1-.36.1-.57s-.03-.4-.1-.58-.16-.31-.29-.42c-.13-.1-.29-.16-.49-.16s-.36.05-.49.16c-.13.11-.23.24-.29.42-.06.17-.1.37-.1.58s.03.4.1.57c.06.17.16.31.29.42.13.11.29.16.49.16Z"/>
          <path class="cls-5" d="M304.33,69.36v-.44l1.76-2.24v-.03h-1.71v-.56h2.51v.47l-1.7,2.21v.03h1.75v.56h-2.63Z"/>
          <path class="cls-5" d="M309.06,69.43c-.32,0-.6-.07-.83-.21s-.42-.33-.54-.59c-.13-.25-.19-.55-.19-.89s.06-.63.19-.89.3-.46.53-.6c.23-.14.49-.21.8-.21.19,0,.37.03.54.09.17.06.33.16.47.29s.25.3.33.51c.08.21.12.46.12.76v.23h-2.61v-.48h2.28l-.3.16c0-.2-.03-.38-.09-.53s-.16-.27-.28-.36-.27-.13-.46-.13-.34.04-.47.13-.23.2-.29.35c-.07.14-.1.3-.1.47v.33c0,.22.04.41.12.57.08.15.18.27.32.35.14.08.3.12.48.12.12,0,.23-.02.33-.05.1-.03.18-.08.25-.15.07-.07.12-.16.16-.26l.61.14c-.05.17-.14.32-.26.45-.12.13-.28.23-.46.3-.19.07-.39.11-.63.11Z"/>
          <path class="cls-5" d="M311.82,67.42v1.94h-.64v-3.28h.62v.8s-.06,0-.06,0c.1-.29.23-.51.42-.64s.4-.2.66-.2c.22,0,.42.05.58.14s.3.23.39.41c.09.18.14.41.14.68v2.08h-.64v-2c0-.24-.06-.42-.18-.55s-.29-.2-.51-.2c-.14,0-.27.03-.39.1s-.21.16-.27.28-.1.27-.1.44Z"/>
          <path class="cls-5" d="M278.07,73.29v.52h-1.78v-.52h1.78ZM276.77,72.51h.64v3.17c0,.13.03.23.08.29.06.06.15.09.27.09.03,0,.08,0,.13-.01s.1-.02.14-.02l.11.52c-.07.02-.14.04-.22.05s-.16.02-.23.02c-.3,0-.53-.08-.69-.23s-.25-.37-.25-.65v-3.22Z"/>
          <path class="cls-5" d="M279.04,72.79c-.11,0-.21-.04-.29-.11s-.12-.17-.12-.27.04-.2.12-.27.17-.11.29-.11.21.04.29.11.12.17.12.27-.04.2-.12.27-.18.11-.29.11ZM278.71,76.56v-3.28h.64v3.28h-.64Z"/>
          <path class="cls-5" d="M281.4,76.63c-.24,0-.45-.03-.63-.1s-.34-.17-.45-.3-.2-.3-.24-.49l.61-.13c.04.17.13.3.25.38s.28.12.47.12c.21,0,.37-.04.5-.13s.18-.19.18-.31c0-.11-.04-.19-.11-.26s-.19-.12-.35-.15l-.55-.13c-.3-.07-.53-.18-.68-.33s-.22-.34-.22-.58c0-.2.05-.37.16-.51s.26-.26.45-.34c.19-.08.41-.12.66-.12s.44.03.61.1.3.16.41.29.18.27.22.43l-.58.13c-.04-.12-.11-.22-.21-.3s-.25-.13-.44-.13c-.18,0-.33.04-.45.12s-.18.18-.18.3c0,.11.04.2.12.26.08.07.21.12.39.16l.53.12c.3.07.53.18.67.32s.22.33.22.56c0,.2-.06.38-.17.53-.11.15-.27.27-.47.36-.2.09-.44.13-.7.13Z"/>
          <path class="cls-5" d="M284.63,76.63c-.24,0-.45-.03-.63-.1s-.34-.17-.45-.3-.2-.3-.24-.49l.61-.13c.04.17.13.3.25.38s.28.12.47.12c.21,0,.37-.04.5-.13s.18-.19.18-.31c0-.11-.04-.19-.11-.26s-.19-.12-.35-.15l-.55-.13c-.3-.07-.53-.18-.68-.33s-.22-.34-.22-.58c0-.2.05-.37.16-.51s.26-.26.45-.34c.19-.08.41-.12.66-.12s.44.03.61.1.3.16.41.29.18.27.22.43l-.58.13c-.04-.12-.11-.22-.21-.3s-.25-.13-.44-.13c-.18,0-.33.04-.45.12s-.18.18-.18.3c0,.11.04.2.12.26.08.07.21.12.39.16l.53.12c.3.07.53.18.67.32s.22.33.22.56c0,.2-.06.38-.17.53-.11.15-.27.27-.47.36-.2.09-.44.13-.7.13Z"/>
          <path class="cls-5" d="M287.8,76.6c-.22,0-.42-.05-.59-.14s-.3-.23-.39-.42-.14-.41-.14-.68v-2.08h.64v2c0,.24.06.42.19.55.12.13.29.2.51.2.15,0,.28-.03.39-.1.12-.06.21-.16.27-.28s.1-.27.1-.44v-1.94h.64v3.28h-.62v-.8s.06,0,.06,0c-.1.3-.24.51-.42.64s-.4.2-.65.2Z"/>
          <path class="cls-5" d="M291.71,76.63c-.32,0-.6-.07-.83-.21s-.42-.33-.54-.59c-.13-.25-.19-.55-.19-.89s.06-.63.19-.89.3-.46.53-.6c.23-.14.49-.21.8-.21.19,0,.37.03.54.09.17.06.33.16.47.29s.25.3.33.51c.08.21.12.46.12.76v.23h-2.61v-.48h2.28l-.3.16c0-.2-.03-.38-.09-.53s-.16-.27-.28-.36-.27-.13-.46-.13-.34.04-.47.13-.23.2-.29.35c-.07.14-.1.3-.1.47v.33c0,.22.04.41.12.57.08.15.18.27.32.35.14.08.3.12.48.12.12,0,.23-.02.33-.05.1-.03.18-.08.25-.15.07-.07.12-.16.16-.26l.61.14c-.05.17-.14.32-.26.45-.12.13-.28.23-.46.3-.19.07-.39.11-.63.11Z"/>
          <path class="cls-5" d="M298.49,75.09l-2.84,1.37v-.66l2.09-.94-.02.03v-.09l.02.04-2.09-.95v-.67l2.84,1.37v.49Z"/>
          <path class="cls-5" d="M301,72.2v4.37h-.66v-3.76h-.03l-1.04.76v-.67l.96-.69h.77Z"/>
          <path class="cls-5" d="M303.42,76.62c-.34,0-.63-.09-.86-.26s-.42-.43-.55-.76c-.13-.33-.19-.74-.19-1.21s.06-.88.19-1.21c.13-.33.31-.59.55-.77s.53-.27.86-.27.62.09.86.27.42.43.55.77.19.74.19,1.21-.06.88-.19,1.21c-.13.33-.31.59-.55.76s-.53.26-.87.26ZM303.42,76.05c.2,0,.37-.07.51-.2.14-.13.25-.32.32-.57.07-.25.11-.55.11-.9s-.04-.66-.11-.91c-.07-.25-.18-.44-.32-.57-.14-.13-.31-.2-.51-.2s-.37.07-.51.2-.25.32-.32.57c-.07.25-.11.55-.11.9s.04.65.11.9.18.44.32.57c.14.13.31.2.51.2Z"/>
          <path class="cls-5" d="M307.39,76.56v-3.28h.61l.02.76h-.05c.05-.19.12-.34.22-.46s.21-.21.34-.27c.13-.06.27-.09.41-.09.24,0,.43.07.58.22s.25.35.3.62h-.08c.04-.18.12-.33.22-.46s.23-.22.38-.28c.15-.06.31-.1.48-.1.19,0,.37.04.53.13.16.08.28.21.37.38s.14.37.14.62v2.21h-.64v-2.14c0-.22-.06-.38-.18-.47-.12-.1-.27-.15-.43-.15-.13,0-.25.03-.35.08s-.17.14-.23.24c-.05.1-.08.22-.08.35v2.1h-.64v-2.19c0-.18-.06-.32-.17-.42s-.25-.16-.43-.16c-.12,0-.23.03-.33.08-.1.05-.18.14-.25.25-.06.11-.09.24-.09.4v2.04h-.64Z"/>
          <path class="cls-5" d="M314.09,77.86c-.25,0-.47-.03-.66-.1s-.34-.15-.46-.26c-.12-.11-.21-.23-.27-.36l.54-.25c.04.06.09.13.16.2.06.07.15.13.26.18s.25.07.43.07c.25,0,.45-.06.61-.18.15-.12.23-.3.23-.56v-.64h-.06c-.04.07-.09.15-.16.23s-.17.16-.29.22c-.12.06-.29.09-.49.09-.26,0-.49-.06-.7-.18s-.37-.3-.49-.54-.18-.53-.18-.88.06-.65.18-.9c.12-.25.29-.44.49-.57.21-.13.44-.2.71-.2.2,0,.37.03.49.1.13.07.22.14.3.24.07.09.12.17.16.24h.05v-.53h.63v3.32c0,.29-.07.52-.19.71-.13.19-.31.32-.53.41s-.48.13-.76.13ZM314.08,75.98c.18,0,.34-.04.46-.13.12-.09.22-.21.29-.37.06-.16.1-.35.1-.58s-.03-.41-.1-.58-.16-.3-.29-.39c-.13-.09-.28-.14-.46-.14s-.35.05-.47.15c-.13.1-.22.23-.29.4-.06.17-.1.36-.1.56s.03.4.1.56c.06.16.16.29.29.38.13.09.29.13.47.13Z"/>
        </g>
      </g>
      <g>
        <g>
          <circle class="cls-55" cx="49.97" cy="47.56" r="34.15"/>
          <path class="cls-51" d="M60.08,24.65c-.55,2.78-2.05,4.94-4.37,6.51-.7.47-1.59.5-2.42.34-1.65-.32-3.07.2-4.1,1.43-1.64,1.96-3.67,3.21-6.09,3.86-1.28.34-2.07,1.13-2.69,2.28-1.45,2.71-3.79,4.27-6.73,5.02-.54.14-1.07.1-1.6.06-.66-.05-1.14-.26-1.12-1.05.02-.71.48-.97,1.05-.98,3.36-.1,5.54-1.97,7.11-4.72.93-1.63,2.06-2.69,4.1-2.83,2.19-.16,3.37-2.06,4.71-3.5,1.07-1.15,2.37-1.84,3.75-1.71,3.69.35,4.99-1.78,6.3-4.78.16-.36.23-.75.41-1.09.26-.48.61-1.01,1.23-.82.54.17.55.75.54,1.25,0,.24-.04.49-.06.73Z"/>
          <path class="cls-51" d="M58.07,19.92c-1.58,1.66-.96,4.33-2.42,6.21-.78,1.01-1.61,1.78-3.01,1.81-1.07.02-2.13.32-3.19.39-1.45.1-2.24,1.16-3.05,2.1-1.55,1.8-3.34,2.98-5.8,2.96-.97,0-1.6.62-2.08,1.43-1,1.69-1.94,3.42-3.6,4.6-.65.47-1.35.81-2.13.92-.99.14-1.23-.53-1.38-1.33-.15-.83.29-1,.98-1.07,1.85-.2,2.84-1.23,3.47-3.03.74-2.1,2.13-3.73,4.75-3.66,1.66.04,3.06-.65,4-2.07,1.5-2.27,3.75-3,6.28-3.21,2.57-.21,3.21-.76,3.72-3.26.28-1.37.85-2.6,1.73-3.68.28-.34.66-.65,1.15-.36.39.24.67.58.57,1.25Z"/>
          <path class="cls-51" d="M54.63,19.18c-.03.13-.02.26-.08.32-1.92,2.12-2.5,5.52-6.04,6.1-2.08.34-4.02,1-5.29,2.98-.64.99-1.89,1.15-3.05,1.19-3.52.12-3.8.45-5.2,3.6-.95,2.13-2.37,3.92-5.04,4.17-1.28.12-1.22-.47-.92-1.28.21-.57.65-1.11,1.2-1.24,1.63-.37,2.23-1.69,2.83-2.96,1.32-2.75,3.28-4.47,6.48-4.42,1.03.02,1.92-.33,2.63-1.09,1.53-1.64,3.44-2.58,5.59-3.05,1.76-.39,3.05-1.21,3.56-3.05.29-1.06,1.21-1.53,2.14-1.85.48-.16,1.12-.21,1.18.59Z"/>
          <path class="cls-51" d="M71.44,51.72c.71.11,1.41,0,1.53.8.13.84-.58.83-1.11,1.06-1.62.7-1.95,2.26-2.17,3.74-.58,3.81-.88,4.18-4.81,4.83-1.2.2-2.27.65-2.56,1.88-.89,3.83-3.3,5.62-7.15,5.49-2.05-.07-2.97,1.03-3.53,2.82-.16.52,0,1.77-1.2,1.35-1.15-.4-1.1-1.24-.65-2.26.52-1.19,1.33-2.16,2.11-3.16.36-.46.88-.59,1.44-.63,1.21-.1,2.43-.18,3.64-.3,1.87-.19,2.52-1.65,3.17-3.1.36-.8.56-1.7,1.04-2.41.72-1.08,1.9-1.39,3.17-1.55,2.87-.36,2.88-.44,3.26-3.3.19-1.43.7-2.76,1.53-3.93.57-.8,1.26-1.55,2.29-1.32Z"/>
          <path class="cls-51" d="M72.42,59.59c.05,2.66-1.89,4.04-3.79,4.43-2.13.44-3.34,1.57-3.61,3.45-.43,2.98-2.75,3.79-4.89,4.91-1.31.68-2.74.59-4.14.72-.67.06-1.04-.31-1.19-.86-.18-.68.19-1.18.83-1.35.61-.16,1.25-.19,1.88-.23,2.52-.14,4.5-1.2,5.36-3.64.87-2.49,2.49-4.04,4.94-4.82,1.33-.42,2.02-1.46,2.57-2.64.16-.36.29-.74.52-1.05.29-.4.36-1.19,1.07-1.01.78.2.5.94.49,1.5,0,.2-.03.39-.05.59Z"/>
          <path class="cls-3" d="M23.98,49.97c.59.12.59.6.68,1.1.73,4.21,2.2,8.12,4.92,11.47,1.87,2.31,4.03,4.27,6.63,5.75.38.22.74.48,1.08.75.26.21.28.52.11.8-.15.24-.42.28-.65.2-.41-.14-.83-.29-1.2-.51-6.88-4.14-10.99-10.16-12.26-18.1-.16-1,.08-1.5.69-1.47Z"/>
          <path class="cls-3" d="M76.43,47.53c-.02.5-.02,1.09-.71,1.06-.74-.04-.71-.71-.73-1.23-.18-3.51-1.03-6.85-2.57-10.01-1.17-2.39-2.79-4.49-4.43-6.57-.24-.31-.53-.61-.11-1.01.46-.44.79-.18,1.12.17,4.59,4.97,7.15,10.8,7.44,17.6Z"/>
          <path class="cls-3" d="M27.42,48.77c.63.13.75.58.83,1.01,1.21,6,4.45,10.67,9.26,14.34.43.33.97.79.58,1.33-.42.59-.97.1-1.39-.2-5.22-3.72-8.45-8.74-9.8-14.99-.13-.59-.34-1.28.51-1.49Z"/>
          <path class="cls-3" d="M71.6,44.48c0,.33-.19.6-.57.69-.32.07-.61-.08-.73-.36-.16-.4-.26-.84-.36-1.26-.87-3.67-2.38-7.04-4.72-10.02-.09-.12-.19-.22-.28-.34-.31-.41-.58-.88-.11-1.31.55-.5.9.06,1.2.4,1.83,2.09,3.1,4.51,4.14,7.07.67,1.64,1.09,3.34,1.44,5.13Z"/>
          <g>
            <circle class="cls-57" cx="50.92" cy="51.64" r="11.66"/>
            <g>
              <path class="cls-37" d="M54.17,52.87c-2.07-.19-3.64-2.01-3.47-4,.17-1.98,2.32-3.81,4.31-3.61,2.31.23,3.32,1.85,3.28,4.11-.03,2.12-2.01,3.7-4.12,3.51Z"/>
              <path class="cls-37" d="M47.89,53.84c-.13,1.31-.96,1.97-2.28,1.83-1.49-.16-2.18-1.27-1.95-3.14.1-.82,1.41-1.94,2.16-1.85.93.1,2.18,2.02,2.07,3.17Z"/>
              <path class="cls-37" d="M50.77,55.53c.69.22,2.1.02,2.1,1.25,0,1.41-1.32,1.37-2.43,1.41-1.06.04-2.27.36-2.5-1.16-.16-1.07.98-1.68,2.83-1.51Z"/>
            </g>
          </g>
        </g>
        <path class="cls-53" d="M37.71,20.88l-.42.21c-.8.41-1.77.08-2.18-.71l-3.71-7.33s-.04-.08-.05-.11l-6.42-2.21c-.85-.29-1.3-1.21-1-2.06l.13-.37c.29-.85,1.21-1.3,2.06-1.01l5.33,1.84,1.62-5.66c.25-.86,1.15-1.36,2.01-1.11l.54.15c.86.25,1.36,1.15,1.11,2.01l-1.98,6.91,3.69,7.29c.4.8.08,1.78-.71,2.18Z"/>
        <path class="cls-53" d="M64.42,23.11l-.41-.24c-.78-.45-1.04-1.44-.59-2.22l4.11-7.12s.04-.07.07-.11l-1.66-6.59c-.22-.87.31-1.75,1.18-1.97l.38-.09c.87-.22,1.75.31,1.97,1.18l1.37,5.47,5.63-1.74c.86-.27,1.76.22,2.03,1.08l.17.54c.26.86-.22,1.76-1.07,2.03l-6.87,2.12-4.09,7.07c-.45.78-1.44,1.04-2.22.59Z"/>
        <path class="cls-53" d="M77.21,37.5l-.15-.45c-.28-.85.18-1.77,1.03-2.05l7.81-2.57s.08-.03.12-.03l3.15-6.02c.41-.79,1.4-1.1,2.19-.68l.34.18c.79.42,1.1,1.4.69,2.19l-2.61,4.99,5.35,2.45c.82.37,1.17,1.34.8,2.15l-.23.51c-.37.81-1.34,1.17-2.15.8l-6.53-2.99-7.76,2.55c-.85.28-1.77-.18-2.05-1.03Z"/>
        <path class="cls-53" d="M76.95,57.28l.12-.46c.22-.87,1.1-1.39,1.97-1.17l7.97,2.03s.08.02.12.04l5.89-3.38c.77-.45,1.77-.18,2.21.6l.19.34c.45.78.18,1.77-.6,2.22l-4.89,2.8,3.19,4.95c.49.75.27,1.76-.49,2.25l-.47.31c-.75.49-1.76.27-2.24-.49l-3.9-6.04-7.92-2.02c-.87-.22-1.39-1.11-1.17-1.97Z"/>
        <path class="cls-53" d="M63.86,71.36l.41-.24c.78-.45,1.77-.19,2.22.59l4.13,7.11s.04.08.06.11l6.54,1.84c.86.24,1.36,1.14,1.12,2l-.11.37c-.24.86-1.14,1.36-2,1.12l-5.42-1.53-1.3,5.74c-.2.88-1.07,1.42-1.94,1.22l-.55-.12c-.87-.2-1.42-1.07-1.22-1.94l1.58-7.01-4.1-7.07c-.45-.77-.19-1.77.59-2.22Z"/>
        <path class="cls-53" d="M44.57,73.64l.46.09c.88.17,1.45,1.02,1.28,1.9l-1.56,8.07s-.02.08-.03.12l3.72,5.69c.49.75.28,1.75-.47,2.25l-.33.21c-.75.49-1.75.28-2.25-.47l-3.09-4.72-4.75,3.48c-.72.53-1.74.37-2.27-.35l-.33-.45c-.53-.72-.37-1.74.35-2.27l5.8-4.24,1.55-8.02c.17-.88,1.02-1.46,1.9-1.29Z"/>
        <path class="cls-53" d="M25.28,62.04l.23.41c.45.78.18,1.77-.6,2.21l-7.13,4.09s-.08.04-.11.06l-1.87,6.53c-.25.86-1.15,1.36-2.01,1.11l-.37-.11c-.86-.25-1.36-1.15-1.11-2.01l1.55-5.42-5.74-1.32c-.88-.2-1.42-1.07-1.22-1.95l.13-.55c.2-.87,1.07-1.42,1.95-1.21l7,1.62,7.09-4.07c.78-.45,1.77-.18,2.22.6Z"/>
        <path class="cls-53" d="M24.87,39.56l-.14.45c-.26.86-1.16,1.34-2.02,1.08l-7.87-2.38s-.08-.03-.12-.04l-6.04,3.12c-.79.41-1.77.1-2.19-.7l-.18-.35c-.41-.8-.1-1.77.7-2.19l5.01-2.59-2.97-5.08c-.45-.78-.19-1.77.58-2.22l.48-.28c.77-.45,1.77-.19,2.22.58l3.63,6.2,7.82,2.37c.86.26,1.34,1.17,1.08,2.02Z"/>
      </g>
      <g>
        <g>
          <path class="cls-30" d="M186.57,45.93c-.22-.69-.61-1.33-1.26-1.75-1.6-1.03-3.2-2.08-5.1-2.46-1.19-.24-2.46-.5-3.59.27-2.59,1.76-3.4,6.95-1.51,9.47.94,1.26,1.92,2.49,2.79,3.8,2.13,3.2,1.68,6.65-1.25,9.42-.43-1.88-1.49-3.35-2.72-4.72-1.13-1.25-2.29-2.49-3.29-3.84-1.79-2.39-2.88-4.94-2.34-8.13.45-2.64.63-5.36.49-8.07-.28-5.67-3.97-11.5-11.51-11.54-3.79-.02-7.08,1.33-10.21,3.34-3.04,1.96-5.71,4.45-9.04,6.31.15-2.51.1-4.81-.91-7.04-2.33-5.14-8.48-5.37-12.64-3.31-3.73,1.84-5.39,7.36-3.4,10.73.57.96,1.26,2.08,2.6,1.62,1.33-.46,1.21-1.56.93-2.8-.77-3.45,1.23-5.97,4.8-6.1,1.56-.06,2.77.55,3.36,2.22.6,1.7.37,3.44.56,5.16.21,1.88-.59,2.76-2.24,3.36-2.9,1.05-5.59,2.55-8.12,4.31-4.27,2.96-6.56,6.92-6.24,12.27.28,4.59,3.58,7.47,7.49,6.34,1.85-.53,3.48-1.54,4.84-2.93,4.33-4.42,7.18-9.66,8.68-15.66.14-.57.14-1.23.88-1.5,4.18-1.51,7.61-4.17,10.95-7.03,2.52-2.16,5.48-1.95,8.74-.84-2.37.98-3.33,2.78-4,4.78-.28.84-.62,1.71-.68,2.58-.13,1.75-.89,2.28-2.65,2.14-1.75-.14-3.69-.33-5.2.88-3.47,2.78-4.73,6.54-3.87,10.79.36,1.79-.31,1.53-1.4,1.42-3.62-.38-5.61.64-7.28,3.85-.74,1.43-1.41,2.93-1.9,4.46-.71,2.26-.78,4.52.76,6.57.37.49.64,1.06.86,1.63.23.6.71,1.27.06,1.87-.63.58-1.37.37-2.02,0-1.32-.72-2.63-1.47-3.92-2.24-1.48-.88-3.18-.85-3.99.2-1.12,1.45-.14,2.55.81,3.5,2.54,2.54,5.72,3.55,9.22,3.16,4.66-.52,6.94-4.4,5.36-8.81-.24-.68-.5-1.36-.78-2.02-.41-.98-1.18-2.24-.69-2.96.47-.68,1.82.04,2.78.24,5.17,1.04,9.33-1.9,10.21-7.13.37-2.22-.6-4.16-1.05-6.24.72-.2,1.4.02,2.12.16,4.32.88,6.83-.4,8.59-4.48.61-1.42.94-2.97,1.45-4.44.18-.52.09-1.3,1.26-.92,1.01.33,1,.61.79,1.47-1.22,4.97.09,9.19,3.88,12.64,1,.91,1.94,1.88,2.85,2.88.98,1.08,1.84,2.24,2.37,3.64.28.73.36.99-.6,1.2-1.88.42-3.67.21-5.47-.29-2.56-.7-5.13-1.14-7.79-.45-3.78.99-6.19,3.7-6.72,7.72-.44,3.33,1.16,6.31,4.46,8.17,2.68,1.52,5.56,1.4,8.51,1.07,7.23-.8,11.52-4.91,12.31-12.07.11-1.01.52-1.52,1.38-2.02,2.97-1.72,4.84-4.27,5.31-7.74.55-4.06-.58-7.65-3.06-10.85-.59-.75-1.22-1.46-1.84-2.19-.75-.87-.63-1.77,0-2.62.63-.85,1.32-.2,1.96.03,1.22.45,1.99,1.63,3.25,2.06.84.29,1.53.17,2.18-.4.69-.61.7-1.4.46-2.17ZM125.62,58.85c-.88.82-2.01,1.5-3.2.83-1.18-.67-1.13-1.97-.99-3.17.19-1.64,1.12-2.9,2.19-4.06,2.54-2.74,5.7-4.49,9.57-5.86-1.89,4.76-4.01,8.96-7.57,12.27ZM163.71,79.38c-1.08.19-2.18.44-3.33.19-2.53-.53-4.14-2.16-4-4.21.16-2.42,1.96-4.17,4.49-4.39.85-.07,1.67.08,2.48.31,2.84.82,5.73,1.33,8.91.99-1.56,4.22-4.49,6.38-8.55,7.1Z"/>
          <path class="cls-4" d="M137.28,45.26c-2.06,7.11-4.98,13.49-11.18,17.78-2.73,1.88-5.06,1.67-6.87-.25-.8-.85-1.22-1.87-1.46-2.99-1.08-4.95.8-8.82,4.47-11.97,2.15-1.84,4.59-3.22,7.2-4.32,5.36-2.27,10.31-5.23,14.88-8.85,2.97-2.35,6.13-4.49,9.93-5.17,8.04-1.44,13.06,2.78,13.85,10.93.2,2.03.03,4.11-.4,6.05-1.19,5.32.95,9.38,4.58,12.85,2.5,2.39,4.01,5.18,4.09,8.59.07,2.96.23,6.02-1.32,8.73-2.22,3.9-5.8,5.84-10.11,6.51-2.63.41-5.27.51-7.78-.68-3.51-1.67-5.07-4.4-4.65-8.14.36-3.25,2.82-5.9,6.22-6.75,1.9-.48,3.75-.44,5.64.15,2.21.69,4.46,1.12,6.81.64.52-.1,1.56-.63,1.5.57-.04.97.62,2.46-1.15,2.69-2.44.32-4.81-.2-7.15-.83-1.64-.44-3.27-.73-4.97-.18-2.49.81-3.9,2.73-3.76,5.33.12,2.18,1.77,4.06,4.23,4.35,8.28.98,15.13-5.35,13.29-13.56-.44-1.97-1.68-3.41-2.96-4.82-1.21-1.33-2.52-2.57-3.77-3.88-2.18-2.28-3.24-4.96-2.82-8.15.21-1.62.3-3.27.71-4.83.69-2.64-.14-4.77-1.9-6.61-3.67-3.84-10.04-4.42-13.9-.85-4.62,4.27-10.16,6.54-15.95,8.42-4,1.3-7.47,3.33-10.18,6.6-1.19,1.44-1.91,3.06-1.87,4.94.05,2.88,2.32,4.1,4.77,2.54,1.19-.76,2.14-1.82,3.01-2.93,2.09-2.68,3.91-5.56,4.94-8.78.66-2.07,1.95-2.77,4.04-3.13Z"/>
          <path class="cls-4" d="M152.84,55.15c-.37-.07-1.2-.19-2.03-.36-2.52-.51-5.03-.44-7.5.23-.84.23-1.01-.05-.84-.8.8-3.54,2.53-7.45,7.96-7.31,2.85.07,5.59.37,8.24,1.41.73.29,1.07.54.69,1.44-.55,1.3-1.09,2.58-2.05,3.65-1.2,1.33-2.24,1.79-4.47,1.75Z"/>
          <path class="cls-21" d="M131.87,68.09c1.1-2.53,1.8-4.91,3.64-6.7.68-.65,1.45-1.11,2.35-1.19,3.43-.3,6.81-.11,10.08,1.18,1.21.48,1.32,1.07.9,2.16-1.3,3.39-4.74,5.27-8.57,4.59-2.7-.48-5.4-.93-8.41-.04Z"/>
          <path class="cls-21" d="M178.18,64.46c2.72-5.01,2.59-7.49-1.25-11.89-2.07-2.38-2.85-4.67-1.53-7.63.96-2.16,1.44-2.56,3.81-2.36.44.04.89.04,1.33.06-.4.8-.6,1.53.29,2.21.29.22.18.61-.35.51-1.02-.09-2.02-.21-2.57,1-.59,1.27-.45,2.34.48,3.41,1.51,1.74,2.87,3.59,3.75,5.75,1.85,4.53.76,9.38-2.86,12.56-.08-1.3-.65-2.44-1.1-3.62Z"/>
          <path class="cls-20" d="M121.02,35.89c-.76-4.01,2.73-8.08,7.3-8.5,5.21-.49,8.61,2.5,9,7.92.24,3.4.15,3.55-3.27,5.1,0-.76,0-1.45,0-2.14,0-.9.03-1.8,0-2.7-.13-3.54-1.44-5.12-4.21-5.16-3.68-.05-6.06,1.96-6.27,5.32.08.21.17.44.04.63-.15.22-.47.21-.51-.02-.36-1.78-1.27-.8-2.06-.44Z"/>
          <path class="cls-43" d="M136.3,70.35c.43,1.04.87,2.07,1.27,3.12,1.81,4.65-.87,8.46-5.9,8.27-2.66-.1-5.06-1.04-7.06-2.83-.76-.68-1.6-1.6-.81-2.59.78-.98,1.82-.68,2.85.01,1.3.87,2.7,1.62,4.12,2.29.92.43,2.01.68,2.85-.16.85-.85.47-1.87.13-2.84-.45-1.28-1.5-2.24-1.84-3.57,1.21-1.22,2.55-2.11,4.39-1.68Z"/>
          <path class="cls-17" d="M157.93,44.67c.3.5.8.55,1.2.51,1.66-.13,1.49.76,1.14,1.86-.23.7-.45.98-1.29.67-1.36-.51-2.75-.99-4.22-1.09-.64-.04-.92-.42-.76-1.03.58-2.16.8-4.44,2.22-6.3,1.61-2.11,3.48-2.34,5.46-.58,1.59,1.41,2.1,3.27,1.94,5.33-.08.96-.43,1.42-1.52,1.01-1.32-.5-2.73-.53-4.18-.38Z"/>
          <path class="cls-22" d="M146.47,55.03c1.25-.21,1.86.32,2.07,1.56.2,1.15.59,2.27.83,3.42.18.85-.13,1.13-1,.77-1.35-.56-2.76-.87-4.22-1.02-1.17-.12-2.45-3.16-1.77-4.1.2-.27.49-.2.76-.23,1.11-.13,2.22-.27,3.33-.4Z"/>
          <path class="cls-48" d="M180.49,45.36c.24-.18.17-.31-.05-.48-1.5-1.18-1.49-1.39.11-2.24,1.55.4,2.84,1.29,4.19,2.09.62.37.98.91,1.08,1.62.07.54-.06,1-.47,1.37-.47.42-.96.25-1.39-.04-1.17-.76-2.32-1.55-3.47-2.33Z"/>
          <path class="cls-6" d="M136.3,70.35c-1.63.14-2.9,1.2-4.39,1.68-.47-1.08-.72-2.38.16-3.11.91-.76,2.34-.86,3.53-.58.96.22.37,1.36.7,2.01Z"/>
          <path class="cls-28" d="M178.18,64.46c1.23.94,1.52,2.18,1.1,3.62-.5.7-1.21,1.12-2.19,1.6.17-1.89-1.1-3.86,1.09-5.22Z"/>
          <path class="cls-14" d="M121.02,35.89c.14-.16.39-.32.39-.49,0-.95.69-.57,1.16-.65.81-.14.51.48.61.84.05.19-.13,1.14.37.13.37.66.26,1.41.36,2.11.08.55.18,1.19-.52,1.4-.63.19-1.01-.31-1.36-.75-.6-.76-.91-1.64-1.01-2.6Z"/>
        </g>
        <line class="cls-54" x1="125.74" y1="80.4" x2="125.74" y2="84.93"/>
        <circle class="cls-56" cx="125.74" cy="89.67" r="4.46"/>
        <text class="cls-60" transform="translate(124.46 90.75)"><tspan x="0" y="0">P</tspan></text>
        <line class="cls-54" x1="137.06" y1="80.2" x2="137.06" y2="84.72"/>
        <circle class="cls-56" cx="137.06" cy="89.37" r="4.46"/>
        <text class="cls-60" transform="translate(135.78 90.54)"><tspan x="0" y="0">P</tspan></text>
        <line class="cls-54" x1="179.21" y1="41.76" x2="179.21" y2="37.23"/>
        <circle class="cls-59" cx="179.21" cy="32.5" r="4.46"/>
        <circle class="cls-59" cx="179.21" cy="23.28" r="4.46"/>
        <circle class="cls-59" cx="179.21" cy="14.12" r="4.46"/>
        <circle class="cls-59" cx="179.21" cy="4.84" r="4.46"/>
        <text class="cls-60" transform="translate(176.49 6.41)"><tspan x="0" y="0">Ub</tspan></text>
        <line class="cls-54" x1="141.74" y1="35.91" x2="141.74" y2="31.39"/>
        <circle class="cls-58" cx="141.74" cy="27.84" r="4.46"/>
        <text class="cls-60" transform="translate(139.22 29.57)"><tspan x="0" y="0">Ac</tspan></text>
        <circle class="cls-58" cx="141.54" cy="18.39" r="4.46"/>
        <text class="cls-60" transform="translate(139.02 20.12)"><tspan x="0" y="0">Ac</tspan></text>
        <circle class="cls-58" cx="141.73" cy="9.06" r="4.46"/>
        <text class="cls-60" transform="translate(139.2 10.79)"><tspan x="0" y="0">Ac</tspan></text>
        <line class="cls-54" x1="130.85" y1="26.88" x2="130.85" y2="22.35"/>
        <circle class="cls-58" cx="130.85" cy="18.8" r="4.46"/>
        <text class="cls-60" transform="translate(128.33 20.53)"><tspan x="0" y="0">Ac</tspan></text>
        <text class="cls-60" transform="translate(176.66 15.55)"><tspan x="0" y="0">Ub</tspan></text>
        <text class="cls-60" transform="translate(176.68 24.82)"><tspan x="0" y="0">Ub</tspan></text>
        <text class="cls-60" transform="translate(176.63 33.86)"><tspan x="0" y="0">Ub</tspan></text>
      </g>
    </g>
  </g>
</svg>