<?xml version="1.0" encoding="UTF-8"?>
<svg id="Layer_2" data-name="Layer 2" xmlns="http://www.w3.org/2000/svg" xmlns:xlink="http://www.w3.org/1999/xlink" viewBox="0 0 364.14 80.02">
  <defs>
    <style>
      .cls-1 {
        fill: #8490c8;
      }

      .cls-1, .cls-2, .cls-3, .cls-4, .cls-5, .cls-6, .cls-7, .cls-8 {
        stroke-width: 0px;
      }

      .cls-2 {
        fill: #f68b1f;
      }

      .cls-9 {
        clip-path: url(#clippath);
      }

      .cls-3, .cls-10 {
        fill: none;
      }

      .cls-4 {
        fill: #004282;
      }

      .cls-10 {
        stroke: #1b4580;
        stroke-miterlimit: 10;
      }

      .cls-5 {
        fill: #03bfd7;
      }

      .cls-6 {
        fill: #231f20;
      }

      .cls-7 {
        fill: #602d1a;
      }

      .cls-8 {
        fill: #fff;
      }
    </style>
    <clipPath id="clippath">
      <rect class="cls-3" x="206.74" width="157.4" height="80.02"/>
    </clipPath>
  </defs>
  <g id="Layer_1-2" data-name="Layer 1">
    <g>
      <g>
        <polygon class="cls-4" points="69.25 46.42 70.82 46.42 74.38 52.92 74.41 52.92 74.41 46.42 75.56 46.42 75.56 54.49 74.08 54.49 70.43 47.86 70.4 47.86 70.4 54.49 69.25 54.49 69.25 46.42 69.25 46.42"/>
        <path class="cls-4" d="M81.01,52.2c0,.88-.57,1.55-1.64,1.55-.5,0-1.1-.34-1.1-.96,0-1.04,1.46-1.13,2.05-1.13.23,0,.46.02.69.02v.52h0ZM77.84,49.94c.44-.37,1.1-.6,1.71-.6,1.09,0,1.46.52,1.46,1.54-.43-.02-.73-.02-1.16-.02-1.12,0-2.74.46-2.74,1.94,0,1.28.89,1.84,2.16,1.84.99,0,1.57-.55,1.83-.9h.02v.76h1.02c-.02-.17-.05-.49-.05-1.16v-2.44c0-1.61-.68-2.44-2.37-2.44-.75,0-1.4.23-1.94.56l.06.92h0Z"/>
        <path class="cls-4" d="M87.07,49.47h-1.56v3.23c0,.68.42,1.05.91,1.05.34,0,.58-.1.74-.21v.93c-.24.07-.58.16-.93.16-1.12,0-1.82-.53-1.82-1.71v-3.45h-1.33v-.88h1.33v-1.37l1.09-.34v1.71h1.56v.88h0Z"/>
        <path class="cls-4" d="M88.57,54.49h1.09v-5.9h-1.09v5.9h0ZM89.73,46.05h-1.23v1.23h1.23v-1.23h0Z"/>
        <path class="cls-4" d="M92.41,51.54c0-1.12.68-2.21,1.85-2.21s1.84,1.09,1.84,2.21c0,1.05-.57,2.21-1.84,2.21s-1.85-1.16-1.85-2.21h0ZM91.26,51.54c0,1.69,1.23,3.09,3.01,3.09s3-1.4,3-3.09c0-1.79-1.2-3.09-3-3.09s-3.01,1.3-3.01,3.09h0Z"/>
        <path class="cls-4" d="M98.72,48.59h1.05v.94h.02c.32-.67,1.11-1.08,1.93-1.08,1.53,0,2.21.95,2.21,2.53v3.5h-1.09v-3.05c0-1.38-.3-2.05-1.25-2.11-1.24,0-1.79.99-1.79,2.43v2.73h-1.09v-5.9h0Z"/>
        <path class="cls-4" d="M109.29,52.2c0,.88-.57,1.55-1.64,1.55-.5,0-1.1-.34-1.1-.96,0-1.04,1.46-1.13,2.05-1.13.23,0,.46.02.69.02v.52h0ZM106.12,49.94c.44-.37,1.1-.6,1.71-.6,1.09,0,1.46.52,1.46,1.54-.43-.02-.73-.02-1.16-.02-1.12,0-2.74.46-2.74,1.94,0,1.28.89,1.84,2.16,1.84,1,0,1.57-.55,1.83-.9h.02v.76h1.02c-.02-.17-.05-.49-.05-1.16v-2.44c0-1.61-.68-2.44-2.37-2.44-.75,0-1.4.23-1.94.56l.06.92h0Z"/>
        <polygon class="cls-4" points="112.35 45.82 113.44 45.82 113.44 54.49 112.35 54.49 112.35 45.82 112.35 45.82"/>
        <path class="cls-4" d="M124.71,51.15c0,2.27-1.14,3.48-3.13,3.48s-3.13-1.22-3.13-3.48v-4.73h1.16v4.58c0,1.55.48,2.61,1.98,2.61s1.98-1.06,1.98-2.61v-4.58h1.16v4.73h0Z"/>
        <path class="cls-4" d="M126.68,48.59h1.05v.94h.02c.32-.67,1.11-1.08,1.93-1.08,1.53,0,2.21.95,2.21,2.53v3.5h-1.09v-3.05c0-1.38-.3-2.05-1.25-2.11-1.24,0-1.79.99-1.79,2.43v2.73h-1.09v-5.9h0Z"/>
        <path class="cls-4" d="M133.88,48.59h1.09v5.9h-1.09v-5.9h0ZM135.04,47.28h-1.23v-1.23h1.23v1.23h0Z"/>
        <polygon class="cls-4" points="139.57 54.49 138.28 54.49 136.16 48.59 137.35 48.59 138.95 53.41 138.97 53.41 140.6 48.59 141.69 48.59 139.57 54.49 139.57 54.49"/>
        <path class="cls-4" d="M143.5,50.98c.08-.76.52-1.64,1.58-1.64.94,0,1.47.74,1.47,1.64h-3.05ZM147.26,53.16c-.27.22-1.1.59-1.81.59-1.03,0-1.94-.8-1.94-1.97h4.21c0-1.9-.64-3.33-2.6-3.33-1.67,0-2.77,1.24-2.77,2.99,0,1.92.96,3.19,3.05,3.19.97,0,1.45-.23,1.86-.38v-1.09h0Z"/>
        <path class="cls-4" d="M149.17,48.59h1.02v.91h.02c.29-.61.91-1.05,1.54-1.05.32,0,.48.03.72.08v.97c-.2-.08-.42-.1-.6-.1-.97,0-1.61.93-1.61,2.41v2.68h-1.09v-5.9h0Z"/>
        <path class="cls-4" d="M153.23,53.34c.43.28,1.04.42,1.35.42.5,0,1.11-.21,1.11-.84,0-1.08-2.56-.98-2.56-2.64,0-1.23.91-1.82,2.08-1.82.51,0,.92.1,1.35.23l-.09.95c-.24-.15-.89-.3-1.14-.3-.55,0-1.04.23-1.04.72,0,1.2,2.56.86,2.56,2.74,0,1.26-1.01,1.84-2.06,1.84-.55,0-1.12-.06-1.62-.32l.06-.97h0Z"/>
        <path class="cls-4" d="M158.31,48.59h1.09v5.9h-1.09v-5.9h0ZM159.47,47.28h-1.23v-1.23h1.23v1.23h0Z"/>
        <path class="cls-4" d="M164.52,49.47h-1.56v3.23c0,.68.41,1.05.91,1.05.34,0,.58-.1.74-.21v.93c-.24.07-.58.16-.92.16-1.12,0-1.82-.53-1.82-1.71v-3.45h-1.33v-.88h1.33v-1.37l1.09-.34v1.71h1.56v.88h0Z"/>
        <path class="cls-4" d="M165.45,56.09c.14.05.32.09.51.09.97,0,1.3-1.34,1.3-1.46,0-.13-.14-.43-.21-.62l-2-5.51h1.19l1.58,4.88h.02l1.62-4.88h1.1l-2.18,6.03c-.4,1.13-.83,2.44-2.27,2.44-.35,0-.55-.05-.74-.08l.07-.89h0Z"/>
        <path class="cls-4" d="M69.92,65.21c0-1.12.68-2.21,1.85-2.21s1.84,1.09,1.84,2.21c0,1.05-.57,2.21-1.84,2.21s-1.85-1.16-1.85-2.21h0ZM68.76,65.21c0,1.69,1.23,3.09,3.01,3.09s3-1.4,3-3.09c0-1.79-1.2-3.09-3-3.09s-3.01,1.3-3.01,3.09h0Z"/>
        <path class="cls-4" d="M76.92,63.14h-1.39v-.88h1.39v-.55c0-1.43.37-2.37,1.98-2.37.28,0,.51.03.73.07l-.04.88c-.13-.05-.34-.07-.52-.07-.94,0-1.05.6-1.05,1.4v.64h1.56v.88h-1.56v5.02h-1.09v-5.02h0Z"/>
        <path class="cls-4" d="M87.38,61.3c-.59-.23-.91-.34-1.51-.34-.65,0-1.41.23-1.41,1.08,0,1.55,3.47,1.19,3.47,3.85,0,1.72-1.33,2.41-2.95,2.41-.57,0-1.12-.16-1.65-.34l.11-1.07c.39.16,1.09.39,1.68.39.66,0,1.58-.37,1.58-1.32,0-1.8-3.47-1.3-3.47-3.81,0-1.44,1.13-2.2,2.59-2.2.53,0,1.17.09,1.72.29l-.16,1.07h0Z"/>
        <path class="cls-4" d="M89.53,62.26h1.09v5.9h-1.09v-5.9h0ZM90.69,60.94h-1.23v-1.22h1.23v1.22h0Z"/>
        <path class="cls-4" d="M92.61,62.26h1.05v.94h.02c.32-.67,1.11-1.08,1.93-1.08,1.53,0,2.21.95,2.21,2.54v3.5h-1.09v-3.05c0-1.38-.3-2.05-1.25-2.1-1.24,0-1.79,1-1.79,2.43v2.73h-1.09v-5.9h0Z"/>
        <path class="cls-4" d="M102.09,67.28c-1.02,0-1.64-.97-1.64-2.08,0-1.01.54-2.2,1.64-2.2,1.16,0,1.72,1.05,1.72,2.28,0,1.1-.7,2-1.72,2h0ZM104.9,62.26h-1.01v.88h-.02c-.32-.64-.9-1.02-1.94-1.02-1.78,0-2.64,1.62-2.64,3.14s.83,2.9,2.52,2.9c.75,0,1.52-.3,1.98-.91h.02v.58c0,1.25-.68,2.02-1.83,2.02-.8,0-1.29-.15-2.13-.53l-.12,1.01c.95.32,1.49.4,2.12.4,2.12,0,3.04-1.03,3.04-2.82v-5.64h0Z"/>
        <path class="cls-4" d="M110.25,65.87c0,.88-.57,1.55-1.64,1.55-.5,0-1.1-.34-1.1-.96,0-1.04,1.46-1.13,2.05-1.13.23,0,.46.02.69.02v.52h0ZM107.08,63.6c.44-.37,1.1-.6,1.71-.6,1.09,0,1.46.52,1.46,1.54-.43-.02-.73-.02-1.16-.02-1.12,0-2.74.46-2.74,1.94,0,1.28.89,1.84,2.16,1.84.99,0,1.57-.54,1.83-.9h.02v.76h1.02c-.02-.17-.04-.48-.04-1.16v-2.44c0-1.61-.68-2.44-2.37-2.44-.75,0-1.4.23-1.94.56l.06.92h0Z"/>
        <path class="cls-4" d="M117.63,65.19c.02.93-.46,2.23-1.63,2.23s-1.73-1.22-1.73-2.2c0-1.1.57-2.22,1.75-2.22s1.64,1.12,1.62,2.18h0ZM113.18,70.59h1.09v-3.24h.02c.34.54.92.95,1.97.95,1.78,0,2.53-1.57,2.53-3.19s-.83-2.98-2.54-2.98c-1.04,0-1.71.53-2,.97h-.02v-.83h-1.04v8.33h0Z"/>
        <path class="cls-4" d="M121.01,65.21c0-1.12.68-2.21,1.85-2.21s1.84,1.09,1.84,2.21c0,1.05-.57,2.21-1.84,2.21s-1.85-1.16-1.85-2.21h0ZM119.85,65.21c0,1.69,1.23,3.09,3.01,3.09s2.99-1.4,2.99-3.09c0-1.79-1.2-3.09-2.99-3.09s-3.01,1.3-3.01,3.09h0Z"/>
        <path class="cls-4" d="M127.31,62.26h1.02v.91h.02c.29-.61.91-1.05,1.54-1.05.32,0,.48.04.72.08v.97c-.2-.08-.42-.1-.6-.1-.97,0-1.61.93-1.61,2.41v2.68h-1.09v-5.9h0Z"/>
        <path class="cls-4" d="M132.57,64.65c.08-.76.52-1.64,1.59-1.64.94,0,1.47.74,1.47,1.64h-3.05ZM136.33,66.83c-.27.22-1.1.59-1.82.59-1.03,0-1.94-.8-1.94-1.97h4.21c0-1.9-.63-3.33-2.6-3.33-1.66,0-2.76,1.24-2.76,2.98,0,1.92.96,3.19,3.05,3.19.97,0,1.45-.23,1.86-.38v-1.09h0Z"/>
        <path class="cls-4" d="M144.01,30.33c2.21,2.04,6.58,3.91,11.91,3.99,4.67.08,8.44-1.33,8.67-5.2.5-8.39-21.01-5.03-20.18-19.19.41-7.08,7.45-9.43,15.04-9.3,4.1.07,8.2,1.04,10.45,2.18v5.03c-2.73-1.88-6.56-3.08-9.72-3.14-4.81-.09-8.64.8-8.7,4.32-.13,7.34,21.56,5.58,20.74,19.62-.46,7.91-8.15,10.33-16.19,10.18-4.63-.06-9.16-1-12.01-2.46v-6.03h-.01Z"/>
        <path class="cls-4" d="M123.67,38.86c-9.99,0-15.74-4.49-15.74-13.72V1.71h7.49v23.43c0,5.74,2.76,9.22,8.25,9.22s8.25-3.48,8.25-9.22V1.71h7.49v23.43c0,9.23-5.75,13.72-15.74,13.72h0Z"/>
        <path class="cls-4" d="M95.76,1.71v26.39L78.6,3.58c-.81-1.13-2.15-1.87-3.65-1.87h-5.68v35.99h4.99V11.29l17.13,24.45c.81,1.17,2.16,1.96,3.71,1.96h5.65V1.71h-4.99Z"/>
        <path class="cls-4" d="M60.67,39.11V1.87H0v37.27s0,.13,0,.29c0,1.76.38,11.07,7.87,22.86,8.18,12.9,21.67,16.89,22.24,17.05l.2.06.2-.06c.57-.16,14.11-4.15,22.29-17.05,8.16-12.86,7.88-22.76,7.86-23.18h0Z"/>
        <path class="cls-8" d="M51.49,61.17c-7.35,11.59-19.55,15.82-21.24,16.36-1.69-.54-13.85-4.77-21.2-16.36h0C1.69,49.57,1.42,40.26,1.42,38.99c0-.09,0-.14,0-.15v-13.18h57.7v13.16s0,.06,0,.15c0,1.3-.27,10.6-7.63,22.2h0Z"/>
        <path class="cls-7" d="M42.35,31.1h.01s0,0-.01,0h0Z"/>
        <path class="cls-2" d="M28.42,6.16c-.1-.02-2.57-.45-5.52-.45-2.34,0-4.45.7-5.37,1.06-.93-.36-3.04-1.06-5.37-1.06-2.95,0-5.42.44-5.52.45l-.33.06v15.7l.49-.11s2.06-.44,5.07-.44c2.26,0,4.6.63,5.53.96l.14.05.14-.05c.92-.33,3.26-.96,5.53-.96,3.01,0,5.05.44,5.07.44l.49.11V6.22l-.33-.06h0Z"/>
        <path class="cls-8" d="M17.14,7.49c-.93-.35-2.86-.96-4.97-.96-2.28,0-4.29.27-5.05.39v11.87c.79-.13,2.49-.37,4.75-.37,2.03,0,4.07.46,5.26.83V7.49h0Z"/>
        <path class="cls-8" d="M22.92,6.53c-2.13,0-4.08.63-5,.97v11.76c1.19-.37,3.24-.85,5.3-.85,2.27,0,3.96.24,4.75.37V6.92c-.75-.12-2.77-.39-5.05-.39h0Z"/>
        <path class="cls-4" d="M9.36,8.51c-.29.08-.45.35-.36.6.09.25.4.39.69.32.02,0,1.52-.27,2.81-.27,1.17,0,2.47.53,2.49.54.28.09.6-.03.71-.28.11-.25-.04-.52-.32-.62-.06-.02-1.5-.59-2.87-.59-1.46,0-3.07.29-3.13.31h0Z"/>
        <path class="cls-4" d="M9.36,10.87c-.29.08-.45.35-.36.6.09.25.4.39.69.31.02,0,1.52-.27,2.81-.27,1.17,0,2.47.53,2.49.53.28.09.6-.03.71-.28.11-.25-.04-.52-.32-.61-.06-.02-1.5-.6-2.87-.6-1.46,0-3.07.3-3.13.31h0Z"/>
        <path class="cls-4" d="M9.36,13.23c-.29.08-.45.35-.36.6.09.25.4.39.69.32.02,0,1.52-.27,2.81-.27,1.17,0,2.47.53,2.49.53.28.09.6-.03.71-.28.11-.25-.04-.52-.32-.61-.06-.02-1.5-.6-2.87-.6-1.46,0-3.07.29-3.13.31h0Z"/>
        <path class="cls-4" d="M9.36,15.59c-.29.08-.45.35-.36.6.09.25.4.39.69.32.02,0,1.52-.27,2.81-.27,1.17,0,2.47.53,2.49.54.28.09.6-.03.71-.28.11-.25-.04-.52-.32-.62-.06-.02-1.5-.6-2.87-.6-1.46,0-3.07.3-3.13.31h0Z"/>
        <path class="cls-4" d="M25.77,8.51c.29.08.45.35.36.6-.09.25-.4.39-.69.32-.02,0-1.52-.27-2.81-.27-1.17,0-2.47.53-2.49.54-.28.09-.6-.03-.71-.28-.11-.25.04-.52.32-.62.06-.02,1.51-.59,2.87-.59,1.46,0,3.07.29,3.13.31h0Z"/>
        <path class="cls-4" d="M25.77,10.87c.29.08.45.35.36.6-.09.25-.4.39-.69.31-.02,0-1.52-.27-2.81-.27-1.17,0-2.47.53-2.49.53-.28.09-.6-.03-.71-.28-.11-.25.04-.52.32-.61.06-.02,1.51-.6,2.87-.6,1.46,0,3.07.3,3.13.31h0Z"/>
        <path class="cls-4" d="M25.77,13.23c.29.08.45.35.36.6-.09.25-.4.39-.69.32-.02,0-1.52-.27-2.81-.27-1.17,0-2.47.53-2.49.53-.28.09-.6-.03-.71-.28-.11-.25.04-.52.32-.61.06-.02,1.51-.6,2.87-.6,1.46,0,3.07.29,3.13.31h0Z"/>
        <path class="cls-4" d="M25.77,15.59c.29.08.45.35.36.6-.09.25-.4.39-.69.32-.02,0-1.52-.27-2.81-.27-1.17,0-2.47.53-2.49.54-.28.09-.6-.03-.71-.28-.11-.25.04-.52.32-.62.06-.02,1.51-.6,2.87-.6,1.46,0,3.07.3,3.13.31h0Z"/>
        <path class="cls-4" d="M56.52,36.38c-.3-1.09-.85-1.57-1.57-1.95-2.01-1.07-4.64-.32-6.94.47-1.74.59-2.26.77-4.23,1.07-1.49.23-6.47.87-8.04-.43-.23-.19-.45-.59-.48-.86-.04-.54.2-1.19.39-1.4.4-.43,1.32-.65,2.83-.65l3.85.06c.24.31.86.81,2.42,1.14,2.49.53,5.23-.33,5.23-.33,0,0-.45-.09-.83-.37-.33-.25-.3-.62-.3-.62,0,0,.55.27,1.35.24,1-.03,1.46-.5,2.39-.74.93-.24,1.96-.04,1.96-.04,0,0-.94-1-1.87-1.18-.93-.18-2.09.06-2.09.06,0,0,.29-.13.64-.44.28-.25.33-.68.33-.68,0,0-1.11.43-2.24.37-1.13-.06-1.05-.47-3.24-.53-1.66-.04-3.03.94-3.6,1.42-1.78-.12-3.17-.18-3.99-.18-2.26,0-3.56.37-4.36,1.24-.67.72-.95,1.66-.86,2.78.07.87.46,1.61,1.16,2.18,2.11,1.74,7.76,1.21,9.76.85,2.24-.4,2.91-.57,4.21-1l.07-.02c1-.34,4.06-1.36,5.34-.68.26.14.44.39.55.79.05.18.07.34.07.48,0,.26-.08.49-.25.69-1.17,1.43-5.55,1.67-7.45,1.77-.21-.05-1.48-.34-3.17-.35-1.13,0-2.08.07-3.08.14-1.83.14-3.72.28-6.87-.08-1.46-.17-2.82-.43-3.85-.74-.05-.39-.23-.76-.62-1.2.75.24,1.73-.58,2.01-1,0-.04-1.34-.39-1.42-1.26,0-.03.95.08,1.34-1.22-.95-.51-.65-.7-1.1-1.34-.4-.56-.98-.84-1.7-.83.29-.04.31,0,.63-.16.41-.21.7-.77,1.1-.75-.82-1.29-3.03-1.46-3.95-1.19.24-.29.6-.62.6-1.02-1.22.34-2.42-.3-3.65-.07-1.02.19-1.6.61-1.92,1.58h-.05c-.32-.97-.9-1.39-1.93-1.58-1.23-.23-2.43.4-3.65.07,0,.4.37.73.6,1.02-.92-.27-3.13-.1-3.95,1.19.41-.02.69.54,1.1.75.36.18.44.15.63.16-.71-.02-1.29.27-1.7.83-.46.64-.16.83-1.1,1.34.39,1.3,1.34,1.19,1.34,1.22-.08.87-1.42,1.22-1.42,1.26.28.41,1.26,1.24,2.01,1-.62.69-.72,1.22-.58,1.92-.96-.73-1.91-1.53-2.42-2.2-.12-.17-.5-1.41-.75-2.24l-.2-.67s-.1-.36-.1-.36c-.3-1.11-.59-2.03-1.09-2.16-.28-.07-.52-.08-.74-.07-.17-.27-.41-.56-.7-.65-.58-.18-.87-.05-.87-.05,0,0,.47.34.63.69.04.09.07.17.08.25-.11.06-.2.13-.28.19l-.04.03c-.06.05-.14.12-.23.19-.04-.01-.08-.02-.12-.03-.61-.08-.86.1-.86.1,0,0,.33.16.57.38-.21.29-.38.67-.38,1.13,0,.05,0,.09,0,.14-.58.04-.79.25-.79.25,0,0,.56.15.83.42.03.03.06.06.08.09-.03.03-.05.05-.05.05-.12.18-.17.39-.17.61,0,.5.28,1.05.67,1.4,0,0,1.04.86,1.13.94.41.92.86,1.72,1.16,2.06.09.12.73,1.21,1.4,2.36.09.15.18.31.27.47.14.71.31,1.59.38,2.28.13,1.25,0,2.64,0,2.64,0,0,.81-.04,1.17-.57,0-.01.3.86.26,1.85-.03.73-.23,1.74-.23,1.74,0,0,.79-.42,1.38-.94.3-.26.6-.7.78-.99.65.42,2.52-.25,3.45-.62.18.37.43.78.77,1.24.14-.56.73-.84,1.01-1.28.08,0,.17,0,.25,0,.03.61-.14,1.19.44,2.33.16.32.97,1.52,1.55,2.13-.22,1.03-.64,2.92-1.07,4.47-.5,1.77-.9,2.65-1.13,3.05-.66.03-1.88.07-2.27.06-.93-.04-1.61.15-2.04.58-.03.03-.06.06-.08.1-.32.04-.69.15-.89.37-.4.46-.41.77-.41.77,0,0,.5-.29.89-.29.03,0,.05,0,.08,0,0,.03,0,.06,0,.08,0,.09.06.23.14.41-.06.05-.12.1-.16.15-.37.48-.35.79-.35.79,0,0,.47-.32.85-.35.12.19.25.38.39.57-.02.02-.03.04-.05.06-.33.51-.29.82-.29.82,0,0,.38-.29.73-.39.12.14.24.26.35.36.56.49,1.94.17,3.69-.29l1.09-.27c.77-.14,1.24-.45,1.59-1.02.08-.14.16-.36.28-.71l.1-.31c.24-.68.43-1.11.91-1.89.01-.02.48-.78,1.12-1.82.57-.47,1.25-1.02,1.75-1.35.76-.51,2.27-1.28,2.27-1.28,0,0-.4-.65-1-.74-.01,0,.76-.79,1.41-1.07.73-.32,1.68-.49,1.68-.49,0,0-.34-.71-.88-1.05.22-.07.42-.2.68-.37,1.27-.83,2.21-.8,3.1-.55.04-.57-.11-.93-.61-1.26.42-.18.85-.33,1.31-.44.29.5.62,1.05.77,1.26.66.93,1.64,2.21,2.44,3.01.02.02.03.06.03.11,0,.34-.41,1.26-.64,1.79l-.2.46s-.8,1.89-1.04,2.44c-.47.03-1.83.1-2.3.08-.9-.04-1.57.15-1.99.56-.05.05-.1.11-.14.16-.34.06-.74.18-.94.44-.38.48-.36.79-.36.79,0,0,.49-.32.87-.34.06,0,.11,0,.17,0,.02.1.07.25.16.42-.09.06-.17.14-.22.22-.33.51-.29.82-.29.82,0,0,.46-.36.84-.41.01,0,.03,0,.04,0,.09.14.19.28.29.42-.04.04-.07.07-.1.12-.33.51-.29.82-.29.82,0,0,.44-.35.81-.41.12.13.23.25.34.34.53.47,1.67.19,3.22-.26l1.1-.29c.75-.14,1.21-.44,1.56-1,0,0,.29-.63.29-.63.14-.32.29-.68.41-.86.18-.28.37-.62.56-.99.26-.22.5-.43.67-.56.49-.38,1.75-1.07,1.75-1.07,0,0-.25-.55-.76-.6,0,0,.5-.56,1.1-.91.43-.25,1.28-.4,1.28-.4,0,0-.59-.5-1.03-.69-.18-.08-.42-.13-.64-.17-.03-.26-.16-.54-.41-.92-.44-.68.2-2.14.67-2.97.23.33.65.87,1.35,1.65,0,0,2.24,2.45,2.73,2.99-.1.39-.41,1.61-.91,2.96-.36.98-.87,2-1.13,2.5-.54.03-1.76.09-2.2.07-.9-.04-1.57.15-1.99.56-.07.07-.12.14-.17.21-.3.07-.63.2-.8.42-.37.49-.35.8-.35.8,0,0,.37-.34.86-.36.02,0,.04,0,.06,0,.02.11.08.25.17.41-.09.06-.16.13-.22.22-.33.51-.29.82-.29.82,0,0,.46-.36.83-.42.01,0,.03,0,.04,0,.12.18.25.36.38.53,0,0,0,0,0,.01-.33.51-.29.82-.29.82,0,0,.34-.27.67-.38.1.11.19.21.28.28.53.47,1.68.19,3.23-.26l1.09-.29c.75-.14,1.21-.44,1.56-1,.15-.25.83-1.83,1.02-2.29.34-.82.71-1.67,1.08-2.45.18-.16.36-.3.5-.39.61-.42,1.92-1.17,1.92-1.17,0,0-.26-.56-.76-.6,0,0,.51-.5,1.03-.83.48-.31,1.35-.48,1.35-.48,0,0-.63-.48-1.07-.67-.26-.11-.63-.19-.9-.23-.08-.37-.26-.5-.55-.64-.25-.13-.59-.3-1.12-.92-.67-.79-.77-2.3-.77-3.81,0-.33,0-.66.01-.99v-1.45c-.04-1.7-.29-2.89-.53-3.67,2.22-.2,6.28-.65,7.94-2.69.5-.61.75-1.33.75-2.11,0-.35-.05-.71-.15-1.08h0Z"/>
        <path class="cls-2" d="M25.41,34.71c.35-.24,1.18-.93.73-1.76-.47-.88-1.55-.52-1.87-.39-.04-.05-2.43-1.08-2.47-1.07.02-.02-.93,1.11-.93,1.11,0,0-.95-1.12-.93-1.11-.03-.02-2.42,1.02-2.47,1.07-.32-.13-1.4-.49-1.87.39-.44.84.38,1.52.73,1.76,0,.01,0,.02,0,.02,0,0-.78,1.38-.77,1.36.01-.02,2.25,2.71,2.25,2.71,0,0,0,1.76,0,1.77,0,0,.89.6.96.62.14.67.19,1.02.34,1.38.05.12.9.37,1.73.38h.07c.83-.01,1.68-.26,1.73-.38.16-.36.2-.71.34-1.38.07-.02.95-.62.95-.62,0,0,0-1.76,0-1.77,0,0,2.24-2.73,2.25-2.71,0,.02-.77-1.36-.77-1.36,0,0,0,0-.01-.02h0ZM17.66,34.85l2-.02h.08s-.07,1.16-.07,1.16l-2-1.14h0ZM22.33,36.02c.01.09.32,2.79.32,2.79,0,0-1.46.79-1.54.83,0,.08,0,.93,0,.99.07.05.33.25.6.37.49.21.99.09.99.08l.12-.03-.11.37h-.04s-.58.11-1.03-.02c-.39-.12-.6-.27-.65-.31h-.24c-.05.04-.27.19-.67.31-.45.14-1.01.03-1.03.03h-.04s-.11-.38-.11-.38l.12.03s.5.12.99-.08c.27-.12.54-.31.6-.37,0-.07,0-.94,0-1-.06-.04-1.53-1.09-1.53-1.09,0,0,2.6,0,2.74,0v-3.65l2.16-.02h.27s-1.86,1.1-1.94,1.15h0Z"/>
        <path class="cls-2" d="M40.62,54.87c.29-.27.44-.42.44-.62,0-.17-.11-.37-.33-.71-.17-.26-.23-.57-.23-.89,0-1.09.73-2.4,1.01-2.88-.08-.1-.2-.25-.34-.45-.08-.05-.14-.09-.18-.12-.19-.13-.66-.53-.96-.92-.04-.06-.08-.12-.13-.2-.61-.02-2.05-.06-3.53.39.46.26.56.6.58,1.04-.97-.21-1.79-.22-2.53-.12.26.44.52.88.65,1.05.64.91,1.61,2.16,2.38,2.94.13.13.18.29.18.5,0,.48-.3,1.17-.68,2.02l-.2.45-1.17,2.76h-.17c-.08.02-1.93.13-2.53.1-.66-.03-1.16.08-1.47.32.04.13.06.29.02.45-.06.21-.19.31-.29.36.01.03.03.06.05.09.36-.12.71-.16.71-.16,0,0,.2.26.12.59-.06.25-.19.38-.27.45.03.03.05.07.08.1.41-.17.86-.21.86-.21,0,0,.21.32.14.67-.04.19-.13.3-.22.36.5.16,1.77-.21,2.57-.44l1.15-.3c.59-.11.93-.32,1.18-.74l.26-.56c.15-.34.31-.72.45-.94.36-.56.76-1.38,1.15-2.17.51-1.03.94-1.92,1.27-2.22h0Z"/>
        <path class="cls-2" d="M18.55,47.76s0,.02,0,.03h0s0-.02-.01-.03h0Z"/>
        <path class="cls-2" d="M16.17,44.57c-.36.54-1.01.79-1.85.89.16-.84.01-1.41-.3-2.08-.27-.59-1.01-1.73-1.23-2.39-.06-.18-.12-.36-.17-.52-1.17-.85-2.46-1.89-3.1-2.74-.15-.2-.38-.92-.83-2.41l-.2-.67-.11-.37c-.3-1.09-.53-1.69-.7-1.76-.11-.03-.22-.04-.32-.05h0s-.05.34-.61.31c-.13,0-.24-.05-.33-.1-.05.03-.09.06-.13.09l-.05.04s-.06.05-.08.07c.33.3.57.68.57.68,0,0-.13.34-.55.42-.31.05-.55-.17-.55-.17,0,0,0-.11-.04-.26-.13.25-.19.54-.12.89.44.22.81.63.81.63,0,0-.01.32-.46.55-.17.09-.34.04-.45-.02-.06.33.13.8.47,1.12l1.21,1,.03.06c.39.87.84,1.68,1.1,1.98.1.11.46.73,1.46,2.45,1.33,2.29,3.34,5.75,3.86,6.32.2.19,1.57-.13,2.92-.67-.48-1.34-.06-2.15-.25-3.3h0Z"/>
        <path class="cls-2" d="M55.99,36.52c-.25-.9-.66-1.27-1.3-1.61-1.82-.96-4.31-.25-6.5.5-1.87.64-2.38.8-4.33,1.1-1.98.3-6.77.86-8.48-.55-.34-.28-.64-.82-.67-1.24-.05-.68.23-1.49.53-1.82.52-.57,1.52-.83,3.24-.83,0,0,2.58.04,4.01.06l.3-.27-.29-.31c-1.79-.12-3.19-.18-4.01-.18-2.09,0-3.27.32-3.95,1.06-.56.6-.8,1.4-.72,2.36.06.72.38,1.33.96,1.8,1.79,1.48,7.04,1.14,9.31.74,2.2-.39,2.86-.56,4.13-.98l.07-.02c1.17-.39,4.28-1.43,5.77-.64.4.21.67.58.82,1.13.18.67.09,1.21-.28,1.67-1.33,1.62-5.59,1.85-7.89,1.97h-.05s-.04,0-.04,0c-.01,0-1.34-.33-3.09-.34-1.11,0-2.04.06-3.04.14-1.86.14-3.77.29-6.97-.08-1.42-.16-2.76-.42-3.8-.72-.07.43-.24.91-.45,1.55-.22.65-.96,1.8-1.23,2.39-.31.66-.45,1.24-.3,2.08-.84-.1-1.49-.36-1.85-.89-.25,1.58.64,2.53-1.24,5.05-.19-.76-1.24-1-1.15-1.87-.33.9.2,1.42-.55,2.91-.19.38-1.24,1.92-1.81,2.38-.23,1.07-.64,2.88-1.05,4.37-.57,2.03-1.04,2.95-1.26,3.32l-.08.12h-.15c-.6.04-2.02.09-2.47.07-.62-.03-1.11.07-1.44.27.03.16.05.38-.05.54-.11.19-.27.28-.35.31.01.03.03.07.05.11.4-.12.81-.12.81-.12,0,0,.17.34,0,.75-.07.17-.17.25-.24.29.04.06.08.11.12.17.43-.19.93-.24.93-.24,0,0,.19.25.07.77-.04.16-.13.24-.2.29.56.18,2.15-.25,3.04-.48,0,0,1.13-.28,1.13-.28.61-.11.96-.33,1.22-.77.05-.09.14-.36.22-.6,0,0,.11-.31.11-.31.25-.71.46-1.19.96-2,1.15-1.85,4.57-7.42,4.7-7.87,0-.02,0-.05,0-.08,0-.29-.14-.95-.26-1.36l-.07-.26s11.05-3.23,11.68-3.42c-.22-.38-.68-1.17-.68-1.17l.4-.36s.88.64,1.35,1.11c.41.41.8,1.04,1.22,1.71l.21.34c.47.75.94,1.3.94,1.31l.02.02v.02s.39.65,1.54,1.93l2.92,3.2-.03.14s-.35,1.5-.96,3.16c-.4,1.09-.99,2.26-1.23,2.71l-.07.14h-.16c-.56.04-1.92.11-2.42.09-.62-.03-1.1.07-1.41.28.04.15.08.37,0,.55-.1.2-.24.3-.32.35.01.03.03.05.04.08.37-.12.72-.16.72-.16,0,0,.18.29.12.65-.04.24-.17.36-.26.41.04.05.07.1.11.15.44-.21.99-.27.99-.27,0,0,.18.25.12.65-.03.18-.15.31-.25.38.57.07,1.71-.26,2.44-.47,0,0,1.15-.3,1.15-.3.59-.11.92-.32,1.18-.74.11-.18.74-1.63.98-2.21.69-1.7,1.72-3.85,2.38-5l.37-.58c.22-.32.4-.6.39-.79-.02-.26-.04-.27-.27-.39-.28-.14-.69-.35-1.29-1.05-.95-1.12-.92-3.27-.89-5.16v-1.42c-.05-1.87-.35-3.12-.59-3.84l-.11-.33.35-.03c2.05-.18,6.3-.56,7.9-2.52.6-.74.78-1.67.5-2.69h0Z"/>
        <path class="cls-8" d="M44.96,14.56c.24.31.44.66.59,1.03-.19.03-.39.04-.59.04s-.4-.02-.59-.04c.15-.37.35-.72.59-1.03h0Z"/>
        <path class="cls-2" d="M51.55,11.41c0-.07.01-.14.01-.21,0-3.64-2.96-6.6-6.6-6.6s-6.6,2.96-6.6,6.6v.21c-2.08,1.11-3.51,3.31-3.51,5.84,0,3.64,2.96,6.6,6.6,6.6,1.26,0,2.47-.35,3.52-1.02,1.02.64,2.22,1.02,3.51,1.02,3.64,0,6.6-2.96,6.6-6.6,0-2.44-1.38-4.7-3.53-5.84h0ZM44.45,17.76l.51.04c.17,0,.34-.01.51-.03-.07.53-.24,1.04-.51,1.5-.26-.46-.44-.97-.51-1.51h0ZM48.04,17.03c1.26-.67,2.27-1.73,2.88-3.02,1.01.77,1.61,1.94,1.61,3.23,0,2.24-1.82,4.06-4.06,4.06-.56,0-1.1-.12-1.59-.32.76-1.1,1.16-2.38,1.16-3.74v-.21h0ZM41.45,10.65c-.17,0-.34.01-.51.03.26-2.01,1.95-3.54,4.03-3.54s3.77,1.55,4.02,3.55l-.51-.04c-1.25,0-2.46.35-3.51,1.01-1.03-.65-2.24-1.01-3.52-1.01h0ZM48.48,13.19h.02c-.27.48-.64.9-1.08,1.24-.15-.32-.32-.63-.52-.92.5-.21,1.04-.32,1.58-.32h0ZM39,14.02c.61,1.29,1.62,2.34,2.89,3.01,0,.07,0,.14,0,.22,0,1.39.43,2.67,1.16,3.73-.5.21-1.04.33-1.59.33-2.24,0-4.06-1.82-4.06-4.06,0-1.32.63-2.49,1.61-3.23h0ZM42.51,14.43c-.44-.34-.81-.76-1.08-1.24,0,0,.02,0,.02,0,.56,0,1.1.12,1.59.32-.2.29-.38.6-.53.92h0Z"/>
        <path class="cls-8" d="M46.22,17.71c.37-.07.73-.18,1.08-.31-.02,1.19-.39,2.31-1.07,3.27-.3-.2-.57-.44-.8-.71.45-.67.73-1.44.8-2.25h0Z"/>
        <path class="cls-8" d="M44.96,5.37c3.23,0,5.86,2.63,5.86,5.86s-2.63,5.86-5.86,5.86l-.54-.04c.02-.36.08-.71.19-1.05l.34.02c2.65,0,4.8-2.15,4.8-4.8s-2.15-4.8-4.8-4.8-4.56,1.9-4.78,4.37c-.37.07-.73.18-1.08.31.06-3.18,2.66-5.75,5.86-5.75h0Z"/>
        <path class="cls-8" d="M48.48,11.42l.54.04c-.02.36-.09.71-.2,1.05l-.34-.02c-.71,0-1.41.17-2.04.47-.25-.29-.52-.55-.81-.79.87-.49,1.84-.74,2.85-.74h0Z"/>
        <path class="cls-8" d="M41.45,23.15c-3.23,0-5.86-2.63-5.86-5.86s2.63-5.86,5.86-5.86c2.33,0,4.39,1.34,5.34,3.44-.31.16-.65.28-1.01.35-.8-1.67-2.46-2.73-4.33-2.73-2.65,0-4.8,2.15-4.8,4.8s2.15,4.8,4.8,4.8c.71,0,1.42-.17,2.06-.47.25.28.51.55.81.79-.87.49-1.85.75-2.86.75h0Z"/>
        <path class="cls-8" d="M40.63,13.31c.36.74.91,1.39,1.59,1.87-.12.36-.21.72-.27,1.1-1.03-.61-1.83-1.52-2.33-2.61.31-.16.65-.28,1-.35h0Z"/>
        <path class="cls-8" d="M48.48,23.15c-3.23,0-5.86-2.63-5.86-5.86,0-1.23.38-2.39,1.08-3.39.3.2.57.43.8.7-.54.79-.82,1.71-.82,2.68,0,2.65,2.15,4.8,4.8,4.8s4.8-2.15,4.8-4.8c0-1.59-.77-3.04-2.07-3.93.12-.35.21-.72.27-1.1,1.75,1.05,2.86,2.97,2.86,5.03,0,3.23-2.63,5.86-5.86,5.86h0Z"/>
      </g>
      <g>
        <g class="cls-9">
          <path class="cls-1" d="M268.78,13.88c4.34,9.92,1.93,21.73,1.93,21.73,0,0-.96,8.98-9.15,17.01-2.25,2.21-6.31,4.85-10.12,6.14-5.47,1.86-11.08,1.89-11.08,1.89,0,0-5.24.18-11.56-1.89-5.78-1.89-9.98-4.95-12.52-6.61-1.45-.94-4.82-4.73-6.25-7.43-.88-1.65-3.87-8.63-1.46-15.25,3.94-10.84,12.34-17.93,16.38-20.79,3-2.12,11.5-6.63,17.82-8.03,3.4-.76,8.94-1.14,13.49.47,5.37,1.9,9.72,6.33,12.52,12.76"/>
        </g>
        <path class="cls-6" d="M246.15,4.52c-4.75.18-10.49,2.1-14.45,4.34-3.53,1.99-8.4,5.44-11.56,9.15-2.24,2.63-4.5,5.56-5.78,8.67-1.15,2.78-1.43,5.79-1.44,7.23-.03,2.81.79,5.85,1.93,7.71.69,1.13,2.58,3.83,5.3,6.26,1.9,1.7,4.23,3.16,6.74,4.34,6.16,2.88,13.66,2.78,16.86,2.41,3.39-.39,8.67-1.45,13.97-5.78,3.93-3.22,6.53-8.13,7.71-11.08,1.85-4.64,1.79-11.02,1.44-14.45-.35-3.43-1.78-8.24-4.82-12.04-1.02-1.27-2.18-2.44-3.46-3.41-1.7-1.28-4.21-2.34-6.17-2.86-2.6-.67-4.99-.53-6.26-.48"/>
        <path class="cls-8" d="M234.58,16.08c-1.81.9-4,2.58-5.78,4.34-1.93,1.9-3.37,3.86-3.37,3.86,0,0-2.21,3.52-2.99,6.93-.54,2.36.13,4.51.58,6.07.46,1.61,2.05,4.15,3.85,5.78.29.26,4.34,4.3,11.08,4.82,6.26.48,11.27-3.2,11.56-3.37,2.28-1.36,5.45-4.82,6.74-8.19,1.85-4.82,1.31-9.85.96-11.56-.19-.93-.69-3.35-1.93-5.3-1.21-1.92-3.15-3.38-4.82-4.34-1.42-.81-2.67-1.13-4.33-1.44-4.48-.85-9.68,1.47-11.56,2.41"/>
        <path class="cls-5" d="M240.85,16.08c-2.5.4-5.17,1.63-7.23,2.89-2.37,1.45-5.56,4.33-7.22,7.71-1.54,3.12-1.64,6.74-1.45,8.19.29,2.12,1.5,4.39,2.89,5.78,1.87,1.87,5.28,4.82,11.56,4.82,4.82,0,9.83-3.33,12.04-5.78,4.3-4.75,3.85-12.04,3.85-12.04,0,0-.48-4.82-2.89-7.71-1.25-1.5-3.48-3.2-5.78-3.86-2.12-.6-4.31-.23-5.78,0"/>
        <path class="cls-6" d="M211,75.08c-.21-.27-.47-.47-.78-.59-.31-.12-.63-.18-.97-.18-.37,0-.71.07-1.01.2-.31.14-.57.32-.8.55-.22.23-.4.51-.52.83-.12.31-.18.65-.18,1.02s.06.73.19,1.04c.13.32.3.59.53.82.22.23.49.41.8.54.31.13.64.19.99.19.39,0,.75-.07,1.07-.21.31-.14.58-.36.81-.66l-.44-.37c-.18.22-.39.39-.62.51-.24.12-.51.18-.81.18-.28,0-.53-.05-.76-.16-.23-.11-.43-.25-.6-.44-.16-.18-.29-.4-.39-.65-.09-.25-.14-.52-.14-.81,0-.27.05-.53.14-.78.09-.25.22-.47.39-.66.17-.19.37-.34.6-.45.23-.11.48-.17.76-.17.24,0,.47.05.68.15.22.1.4.25.55.45l.51-.37h0ZM211.61,79.38h.66l.51-1.22h2.47l.5,1.22h.68l-2.1-4.95h-.55l-2.18,4.95h0ZM215.03,77.62h-2.02l1.03-2.44h.01l.98,2.44h0ZM217.35,79.38h.59v-4.11h.01l2.86,4.11h.74v-4.95h-.59v4.11h-.01l-2.86-4.11h-.74v4.95h0ZM227,75.08c-.21-.27-.47-.47-.78-.59-.31-.12-.63-.18-.97-.18-.37,0-.71.07-1.01.2-.31.14-.57.32-.8.55-.22.23-.4.51-.52.83-.12.31-.19.65-.19,1.02s.07.73.19,1.04c.13.32.31.59.53.82.23.23.49.41.8.54.31.13.64.19.99.19.4,0,.75-.07,1.07-.21.31-.14.58-.36.81-.66l-.44-.37c-.18.22-.39.39-.62.51-.24.12-.51.18-.81.18-.28,0-.53-.05-.76-.16-.23-.11-.43-.25-.6-.44-.16-.18-.29-.4-.39-.65-.09-.25-.14-.52-.14-.81,0-.27.05-.53.14-.78.09-.25.22-.47.39-.66.17-.19.37-.34.6-.45.23-.11.48-.17.76-.17.24,0,.47.05.69.15.22.1.4.25.55.45l.51-.37h0ZM228.18,79.38h3.23v-.55h-2.65v-1.76h2.36v-.54h-2.36v-1.55h2.52v-.54h-3.11v4.95h0ZM232.57,79.38h.59v-2.22h.75l1.34,2.22h.72l-1.4-2.28c.39-.06.69-.2.91-.42.22-.22.33-.52.33-.88,0-.31-.06-.55-.17-.74-.12-.18-.27-.31-.46-.4-.18-.1-.4-.16-.63-.19-.23-.03-.47-.04-.71-.04h-1.27v4.95h0ZM233.16,74.97h.82c.14,0,.29,0,.43.03.14.02.27.05.38.11.11.06.21.14.28.24.07.11.1.25.1.43,0,.2-.05.36-.14.47-.1.11-.22.19-.37.24-.15.05-.31.08-.48.09-.18,0-.34.01-.51.01h-.53v-1.64h0ZM242.1,74.88c-.18-.21-.39-.36-.62-.45-.23-.09-.49-.13-.76-.13-.22,0-.43.03-.63.09-.2.06-.38.15-.54.27-.16.12-.28.27-.38.44-.09.17-.14.38-.14.62,0,.2.03.38.09.53.06.14.15.27.26.38.11.1.24.19.38.27.15.07.31.14.49.19.22.07.41.14.57.19.16.06.3.12.4.19.11.07.19.15.24.24.05.1.08.22.08.38,0,.14-.03.26-.1.37-.06.11-.15.2-.25.27-.1.07-.22.12-.35.16-.13.04-.26.05-.38.05-.21,0-.42-.05-.61-.14-.19-.09-.34-.23-.45-.41l-.5.41c.08.13.18.23.3.32.12.09.24.16.37.21.13.05.27.1.41.12.14.02.29.04.43.04.22,0,.44-.03.65-.09.21-.06.39-.15.55-.27.16-.12.29-.27.39-.45.1-.18.15-.39.15-.64s-.04-.44-.12-.6c-.08-.16-.19-.29-.33-.4-.14-.11-.29-.19-.47-.27-.18-.07-.36-.13-.55-.2-.2-.06-.36-.12-.5-.18-.13-.06-.24-.13-.32-.19-.08-.07-.14-.15-.17-.23-.03-.09-.05-.19-.05-.3,0-.15.03-.27.09-.38.06-.11.14-.2.24-.26.1-.07.21-.11.34-.15.13-.04.25-.05.39-.05.18,0,.35.03.51.1.16.07.29.19.39.35l.48-.42h0ZM247.37,75.08c-.21-.27-.47-.47-.78-.59-.31-.12-.63-.18-.97-.18-.37,0-.71.07-1.01.2-.31.14-.57.32-.8.55-.22.23-.4.51-.52.83-.12.31-.18.65-.18,1.02s.06.73.19,1.04c.13.32.31.59.53.82.23.23.49.41.8.54.31.13.64.19.99.19.4,0,.75-.07,1.07-.21.31-.14.58-.36.81-.66l-.44-.37c-.18.22-.39.39-.62.51-.24.12-.51.18-.81.18-.28,0-.53-.05-.76-.16-.23-.11-.43-.25-.6-.44-.16-.18-.29-.4-.39-.65-.09-.25-.14-.52-.14-.81,0-.27.05-.53.14-.78.09-.25.22-.47.39-.66.17-.19.36-.34.6-.45.23-.11.48-.17.76-.17.24,0,.47.05.69.15.22.1.4.25.55.45l.51-.37h0ZM248.56,79.38h.59v-4.95h-.59v4.95h0ZM250.62,79.38h3.23v-.55h-2.65v-1.76h2.35v-.54h-2.35v-1.55h2.52v-.54h-3.11v4.95h0ZM255.01,79.38h.59v-4.11h.01l2.87,4.11h.74v-4.95h-.59v4.11h-.01l-2.87-4.11h-.74v4.95h0ZM264.66,75.08c-.21-.27-.47-.47-.78-.59-.31-.12-.63-.18-.97-.18-.37,0-.71.07-1.01.2-.31.14-.57.32-.8.55-.22.23-.4.51-.52.83-.12.31-.18.65-.18,1.02s.06.73.19,1.04c.13.32.31.59.53.82.22.23.49.41.8.54.31.13.64.19.99.19.39,0,.75-.07,1.06-.21.32-.14.58-.36.81-.66l-.44-.37c-.18.22-.38.39-.62.51-.24.12-.51.18-.81.18-.28,0-.54-.05-.77-.16-.23-.11-.43-.25-.59-.44-.17-.18-.29-.4-.39-.65-.1-.25-.14-.52-.14-.81,0-.27.05-.53.14-.78.09-.25.22-.47.39-.66.17-.19.37-.34.6-.45.23-.11.48-.17.76-.17.24,0,.46.05.68.15.22.1.4.25.55.45l.51-.37h0ZM265.85,79.38h3.23v-.55h-2.65v-1.76h2.35v-.54h-2.35v-1.55h2.52v-.54h-3.11v4.95h0ZM272.42,79.38h.59v-4.95h-.59v4.95h0ZM274.48,79.38h.59v-4.11h.01l2.87,4.11h.74v-4.95h-.59v4.11h-.01l-2.87-4.11h-.74v4.95h0ZM282.99,74.88c-.18-.21-.39-.36-.62-.45-.23-.09-.49-.13-.76-.13-.22,0-.43.03-.63.09-.2.06-.38.15-.54.27-.16.12-.28.27-.38.44-.09.17-.14.38-.14.62,0,.2.03.38.09.53.06.14.15.27.26.38.11.1.24.19.39.27.15.07.31.14.49.19.22.07.41.14.57.19.16.06.3.12.4.19.11.07.19.15.24.24.05.1.08.22.08.38,0,.14-.03.26-.1.37-.07.11-.15.2-.25.27-.1.07-.22.12-.35.16-.13.04-.25.05-.38.05-.21,0-.41-.05-.61-.14-.19-.09-.34-.23-.45-.41l-.5.41c.08.13.18.23.3.32.12.09.24.16.37.21.13.05.27.1.42.12.14.02.29.04.43.04.22,0,.44-.03.65-.09.21-.06.39-.15.55-.27.16-.12.29-.27.39-.45.1-.18.15-.39.15-.64s-.04-.44-.12-.6c-.08-.16-.19-.29-.33-.4-.14-.11-.29-.19-.47-.27-.18-.07-.36-.13-.55-.2-.2-.06-.36-.12-.5-.18-.13-.06-.24-.13-.32-.19-.08-.07-.14-.15-.17-.23-.03-.09-.05-.19-.05-.3,0-.15.03-.27.09-.38.06-.11.14-.2.24-.26.1-.07.21-.11.34-.15.13-.04.26-.05.39-.05.18,0,.35.03.51.1.16.07.29.19.39.35l.48-.42h0ZM287.6,74.43h-3.85v.54h1.63v4.4h.59v-4.4h1.63v-.54h0ZM288.54,79.38h.59v-4.95h-.59v4.95h0ZM293.92,74.43h-3.86v.54h1.64v4.4h.59v-4.4h1.63v-.54h0ZM298.56,74.43h-.59v2.98c0,.2-.02.39-.06.58-.04.19-.11.35-.21.5-.1.14-.23.26-.39.34-.16.09-.37.13-.61.13s-.45-.04-.62-.13c-.16-.09-.29-.2-.39-.34-.1-.15-.17-.31-.21-.5-.04-.19-.06-.38-.06-.58v-2.98h-.58v3.06c0,.27.03.53.1.77.07.25.17.46.32.64.15.19.34.33.58.44.24.11.52.16.87.16s.63-.05.87-.16c.24-.11.43-.25.58-.44.14-.18.25-.39.32-.64.07-.24.1-.5.1-.77v-3.06h0ZM303.33,74.43h-3.85v.54h1.63v4.4h.58v-4.4h1.64v-.54h0ZM304.27,79.38h3.23v-.55h-2.65v-1.76h2.35v-.54h-2.35v-1.55h2.52v-.54h-3.11v4.95h0ZM314.18,79.3c.31-.13.59-.31.82-.54.23-.23.41-.51.54-.83.13-.32.19-.66.19-1.04s-.06-.72-.19-1.04c-.13-.32-.31-.59-.54-.82-.23-.23-.5-.41-.82-.54-.31-.13-.66-.2-1.04-.2s-.72.07-1.04.2c-.32.14-.59.31-.82.54-.23.23-.41.5-.54.82-.13.32-.19.67-.19,1.04s.06.72.19,1.04c.13.32.31.59.54.83.23.23.5.41.82.54.31.13.66.19,1.04.19s.72-.06,1.04-.19M312.35,78.8c-.24-.11-.44-.25-.62-.44-.17-.19-.31-.4-.4-.66-.1-.24-.14-.51-.14-.8s.05-.55.14-.8c.1-.25.23-.47.4-.65.17-.19.38-.33.62-.44.24-.1.5-.16.79-.16s.55.05.79.16c.24.11.44.25.62.44.17.19.31.4.4.65.09.25.14.52.14.8s-.05.55-.14.8c-.1.25-.23.47-.4.66-.17.19-.38.33-.62.44-.24.1-.5.16-.79.16s-.55-.05-.79-.16M316.91,79.38h.59v-2.22h2.3v-.54h-2.3v-1.64h2.48v-.54h-3.07v4.95h0ZM326.06,74.88c-.18-.21-.39-.36-.62-.45-.23-.09-.49-.13-.77-.13-.22,0-.43.03-.63.09-.2.06-.38.15-.54.27-.16.12-.28.27-.37.44-.09.17-.14.38-.14.62,0,.2.03.38.1.53.06.14.15.27.26.38.11.1.24.19.39.27.15.07.31.14.49.19.22.07.41.14.57.19.17.06.3.12.41.19.11.07.19.15.24.24.05.1.08.22.08.38,0,.14-.03.26-.1.37-.07.11-.15.2-.25.27-.1.07-.22.12-.35.16-.13.04-.25.05-.38.05-.21,0-.41-.05-.61-.14-.19-.09-.34-.23-.44-.41l-.51.41c.08.13.18.23.3.32.12.09.24.16.37.21.13.05.27.1.42.12.15.02.29.04.43.04.22,0,.44-.03.65-.09.21-.06.39-.15.55-.27.16-.12.29-.27.39-.45.1-.18.15-.39.15-.64s-.04-.44-.12-.6c-.08-.16-.19-.29-.33-.4-.14-.11-.29-.19-.47-.27-.18-.07-.37-.13-.56-.2-.19-.06-.36-.12-.49-.18-.13-.06-.24-.13-.32-.19-.08-.07-.14-.15-.17-.23-.04-.09-.05-.19-.05-.3,0-.15.03-.27.09-.38.06-.11.14-.2.24-.26.1-.07.21-.11.34-.15.12-.04.25-.05.38-.05.18,0,.35.03.51.1.16.07.29.19.39.35l.48-.42h0ZM327.36,79.38h.59v-4.95h-.59v4.95h0ZM329.42,79.38h.59v-4.11h.01l2.86,4.11h.74v-4.95h-.58v4.11h-.01l-2.87-4.11h-.74v4.95h0ZM339.3,76.61h-1.73v.54h1.14v1.51c-.18.09-.38.16-.6.21-.22.05-.43.07-.63.07-.3,0-.58-.05-.83-.15-.25-.1-.47-.24-.65-.43-.18-.18-.32-.4-.42-.65-.1-.25-.15-.53-.15-.82s.05-.57.15-.82c.1-.25.24-.47.42-.65.18-.18.39-.32.63-.42.24-.1.5-.15.79-.15.25,0,.49.05.73.15.24.1.44.24.61.42l.44-.46c-.24-.24-.51-.41-.81-.5-.3-.1-.61-.15-.94-.15-.37,0-.72.06-1.04.19-.32.13-.6.3-.85.53-.24.23-.43.5-.57.82-.14.32-.2.68-.2,1.07s.07.74.19,1.06c.13.32.31.59.55.82.24.23.51.4.84.53.32.12.67.19,1.06.19.32,0,.64-.04.95-.11.32-.08.61-.19.9-.35v-2.43h0ZM340.2,79.38h.66l.51-1.22h2.47l.5,1.22h.68l-2.1-4.95h-.55l-2.18,4.95h0ZM343.62,77.62h-2.02l1.03-2.44h.01l.98,2.44h0ZM345.93,79.38h.59v-2.22h.99c.17,0,.35-.02.55-.06.19-.04.37-.11.53-.22.16-.1.29-.24.39-.42.1-.18.15-.4.15-.67s-.05-.47-.15-.64c-.1-.18-.22-.32-.38-.42-.16-.1-.35-.18-.55-.22-.21-.05-.43-.07-.65-.07h-1.47v4.95h0ZM346.52,74.97h.99c.29,0,.53.07.71.2.19.14.28.34.28.62s-.09.48-.28.62c-.18.13-.42.2-.71.2h-.99v-1.64h0ZM353.66,79.3c.31-.13.58-.31.82-.54.23-.23.41-.51.54-.83.13-.32.19-.66.19-1.04s-.06-.72-.19-1.04c-.13-.32-.31-.59-.54-.82-.23-.23-.5-.41-.82-.54-.32-.13-.66-.2-1.04-.2s-.72.07-1.04.2c-.32.14-.58.31-.82.54-.23.23-.41.5-.54.82-.13.32-.19.67-.19,1.04s.06.72.19,1.04c.13.32.31.59.54.83.23.23.5.41.82.54.32.13.66.19,1.04.19s.72-.06,1.04-.19M351.82,78.8c-.24-.11-.44-.25-.62-.44-.17-.19-.31-.4-.4-.66-.1-.24-.14-.51-.14-.8s.05-.55.14-.8c.1-.25.23-.47.4-.65.17-.19.38-.33.62-.44.24-.1.5-.16.79-.16s.55.05.79.16c.24.11.44.25.62.44.17.19.31.4.4.65.09.25.14.52.14.8s-.05.55-.14.8c-.1.25-.23.47-.4.66-.17.19-.38.33-.62.44-.24.1-.5.16-.79.16s-.55-.05-.79-.16M356.39,79.38h.59v-2.22h.76l1.34,2.22h.72l-1.41-2.28c.39-.06.69-.2.91-.42.22-.22.33-.52.33-.88,0-.31-.06-.55-.17-.74-.12-.18-.27-.31-.46-.4-.19-.1-.39-.16-.63-.19-.24-.03-.47-.04-.71-.04h-1.27v4.95h0ZM356.98,74.97h.83c.15,0,.29,0,.43.03.14.02.27.05.38.11.11.06.21.14.28.24.07.11.1.25.1.43,0,.2-.05.36-.14.47-.1.11-.22.19-.36.24-.15.05-.31.08-.48.09-.17,0-.34.01-.51.01h-.52v-1.64h0ZM360.9,79.38h3.24v-.55h-2.65v-1.76h2.35v-.54h-2.35v-1.55h2.52v-.54h-3.11v4.95h0Z"/>
        <path class="cls-6" d="M287.83,53.8c-.68-.2-1.42-.3-2.22-.3-1.63,0-3.24.69-3.24,2.57,0,2.79,4.07,2.13,4.07,3.74,0,.76-.94,1.09-1.65,1.09s-1.46-.2-2.1-.52l-.17,1.52c.92.2,1.37.33,2.38.33,1.87,0,3.48-.7,3.48-2.55,0-2.83-4.07-2.21-4.07-3.67,0-.92.82-1.17,1.46-1.17s1.3.13,1.89.36l.17-1.39h0ZM290.7,62.08h1.86v-8.44h-1.86v8.44h0ZM295.26,62.08h1.78v-6.31h.03l3.55,6.31h2.27v-8.44h-1.78v6.31h-.03l-3.54-6.31h-2.29v8.44h0ZM313.11,53.85c-.8-.22-1.65-.35-2.73-.35-3.15,0-5.09,1.62-5.09,4.51s2.09,4.22,5.09,4.22c1,0,2.02-.2,3-.44v-4.54h-3.75v1.33h1.97v2.2c-.32.07-.72.12-1.22.12-1.98,0-3.15-1.3-3.15-3.01s1.19-3.06,3.36-3.06c.74,0,1.67.15,2.39.45l.12-1.43h0ZM321.17,58.81h-2.71l1.34-3.48h.03l1.34,3.48h0ZM315.19,62.08h1.93l.81-1.94h3.76l.79,1.94h2.06l-3.64-8.44h-2.1l-3.61,8.44h0ZM328.24,54.97h.65c.96,0,1.77.34,1.77,1.32s-.84,1.26-1.77,1.26h-.65v-2.57h0ZM326.38,62.08h1.86v-3.2h.79c1.99,0,3.57-.71,3.57-2.69s-1.85-2.55-3.87-2.55h-2.35v8.44h0ZM334.28,57.83c0,2.59,1.57,4.39,4.55,4.39s4.54-1.84,4.54-4.39-1.63-4.34-4.54-4.34-4.55,1.75-4.55,4.34M336.22,57.83c0-1.48.76-3.01,2.61-3.01s2.61,1.52,2.61,3.01-.71,3.06-2.61,3.06-2.61-1.54-2.61-3.06M347.57,54.97h.61c.93,0,1.96.08,1.96,1.1s-1.05,1.17-1.96,1.17h-.61v-2.27h0ZM345.71,62.08h1.86v-3.51h.6c.79,0,1.03.24,1.29.87l1.12,2.64h2.08l-1.49-3.3c-.19-.37-.48-.83-.98-.87v-.03c1.18-.15,1.91-.97,1.91-1.96,0-2.34-2.38-2.28-4.37-2.28h-2.01v8.44h0ZM354.79,62.08h5.51v-1.33h-3.64v-2.37h3.31v-1.33h-3.31v-2.08h3.61v-1.33h-5.48v8.44h0Z"/>
        <path class="cls-6" d="M300.36,4.78c1.47,0,5.18.16,7.73,1.64l.69.4.27-4.72-.26-.15c-1.92-1.13-6.18-1.55-8.42-1.55-11.05,0-18.47,8.43-18.47,20.98s7.25,20.98,18.47,20.98c2.15,0,6.35-.38,8.45-1.78l.23-.15-.27-4.53-.71.47c-2.26,1.5-6.47,1.62-7.7,1.62-8.62,0-13.97-6.36-13.97-16.6s5.49-16.6,13.97-16.6h0Z"/>
        <path class="cls-6" d="M333.57,18.41c-4.47-2.07-8.7-4.02-8.7-7.3,0-5.87,7.17-6.33,9.37-6.33,3.14,0,6.23.55,8.08,1.43l.56.27.93-4.61-.41-.13c-3.79-1.24-7.92-1.34-9.1-1.34-8.78,0-14.92,4.45-14.92,10.82,0,5.88,6.3,8.88,11.85,11.53,4.65,2.22,9.04,4.31,9.04,7.61,0,4.78-3.65,7.63-9.76,7.63-3.9,0-7.02-.72-9.82-2.27l-.64-.35-.59,5.13.36.13c2.11.79,5.64,1.73,10.49,1.73,7.68,0,15.44-3.61,15.44-11.67,0-6.64-6.48-9.64-12.19-12.28h0Z"/>
        <polygon class="cls-6" points="355.89 1.08 355.89 41.68 360.78 41.68 360.78 1.08 355.89 1.08 355.89 1.08"/>
      </g>
      <line class="cls-10" x1="189.44" y1=".48" x2="189.44" y2="79.54"/>
    </g>
  </g>
</svg>