<?xml version="1.0" encoding="UTF-8"?>
<svg id="Layer_2" data-name="Layer 2" xmlns="http://www.w3.org/2000/svg" viewBox="0 0 195.95 167.79">
  <defs>
    <style>
      .cls-1 {
        fill: #221f1f;
      }

      .cls-1, .cls-2, .cls-3, .cls-4, .cls-5 {
        stroke-width: 0px;
      }

      .cls-2 {
        fill: #838fc7;
      }

      .cls-6 {
        fill: #555554;
      }

      .cls-7 {
        fill: none;
        stroke: #14bfd8;
        stroke-width: 1.5px;
      }

      .cls-8 {
        letter-spacing: -.05em;
      }

      .cls-3, .cls-9 {
        fill: #1dbfd5;
      }

      .cls-10 {
        fill: #555655;
        font-family: Helvetica, Helvetica;
      }

      .cls-10, .cls-11 {
        font-size: 12.97px;
      }

      .cls-4 {
        fill: #fff;
      }

      .cls-5 {
        fill: #0c0d0d;
      }

      .cls-11 {
        font-family: Helvetica-Bold, Helvetica;
        font-weight: 700;
      }
    </style>
  </defs>
  <g id="Layer_1-2" data-name="Layer 1">
    <g>
      <g>
        <path class="cls-2" d="M157.55,28.81c8.83,20.59,3.92,45.11,3.92,45.11,0,0-1.96,18.63-18.63,35.3-4.58,4.58-12.84,10.06-20.59,12.75-11.14,3.86-22.55,3.92-22.55,3.92,0,0-10.67.37-23.54-3.92-11.77-3.92-20.31-10.27-25.49-13.73-2.95-1.96-9.81-9.81-12.72-15.42-1.78-3.43-7.87-17.92-2.97-31.64,8.03-22.49,25.11-37.22,33.34-43.15,6.1-4.39,23.41-13.76,36.28-16.67,6.92-1.57,18.19-2.36,27.46.98,10.93,3.94,19.78,13.15,25.49,26.48"/>
        <path class="cls-1" d="M111.47,9.19c-9.67.37-21.36,4.27-29.42,8.83-7.18,4.05-17.11,11.08-23.54,18.63-4.55,5.35-9.16,11.32-11.76,17.65-2.33,5.65-2.91,11.79-2.94,14.71-.06,5.71,1.61,11.91,3.92,15.69,1.41,2.3,5.25,7.79,10.79,12.75,3.87,3.46,8.62,6.44,13.73,8.83,12.54,5.86,27.81,5.66,34.32,4.9,6.91-.8,17.65-2.94,28.44-11.77,8-6.55,13.3-16.54,15.69-22.55,3.76-9.45,3.65-22.43,2.94-29.42-.71-6.98-3.62-16.78-9.8-24.51-2.07-2.59-4.43-4.97-7.04-6.93-3.46-2.61-8.56-4.77-12.57-5.82-5.29-1.37-10.15-1.08-12.75-.98"/>
        <path class="cls-4" d="M87.93,32.73c-3.67,1.84-8.15,5.25-11.77,8.83-3.93,3.87-6.86,7.85-6.86,7.85,0,0-4.51,7.16-6.09,14.11-1.1,4.81.26,9.17,1.18,12.36.94,3.28,4.18,8.45,7.85,11.77.58.53,8.83,8.75,22.55,9.81,12.75.98,22.94-6.51,23.54-6.87,4.64-2.77,11.09-9.8,13.73-16.66,3.77-9.81,2.66-20.05,1.96-23.54-.38-1.88-1.41-6.81-3.92-10.79-2.47-3.91-6.4-6.88-9.8-8.83-2.88-1.64-5.43-2.29-8.82-2.94-9.11-1.73-19.7,2.98-23.54,4.9"/>
        <path class="cls-3" d="M100.68,32.73c-5.1.82-10.52,3.32-14.71,5.89-4.83,2.95-11.33,8.81-14.7,15.69-3.13,6.34-3.34,13.72-2.95,16.67.59,4.31,3.05,8.93,5.89,11.77,3.81,3.81,10.75,9.8,23.54,9.8,9.8,0,20-6.79,24.51-11.77,8.76-9.68,7.84-24.51,7.84-24.51,0,0-.98-9.81-5.88-15.69-2.55-3.06-7.09-6.51-11.77-7.85-4.32-1.23-8.78-.48-11.76,0"/>
        <path class="cls-5" d="M122.67,80.42c-.57-.19-.99.3-1.55.33-1.17.07-1.7-.38-2.2-1.48-.64-1.41-.7-2.95-.94-4.66-.2,1.35-.34,2.49-.53,3.62-.27,1.66-.98,2.23-2.74,2.28-2.04.06-2.73-.41-3.13-2.15-.47-2.07-.54-4.19-.75-6.3-.03-.27.08-.58-.19-.89-.08,2.38-.25,4.68-.61,6.96-.03.19-.05.39-.09.58-.19.8-.36,1.63-1.37,1.8-1.26.21-2.28-.21-2.87-1.2-.21-.35-.32-.78-.81-.99-.33.77-.45,1.65-1.37,2.09-.86.42-1.49.41-2.09-.3-.66-.78-.78-1.17-1.07-3.43-.2.89-.33,1.65-.55,2.39-.22.75-.6,1.39-1.51,1.44-1.02.05-2.03.08-2.63-1.03-.33-.63-.44-1.34-.83-2.29-.16,1.97-.69,3.6-2.65,3.47-1.86-.13-2.39-1.79-2.62-3.68-.08.37-.12.49-.14.61-.66,3.55-1.51,2.93-4.17,2.89-.74-.01-1.22-.5-1.49-1.21-.42-1.11-.48-2.28-.65-3.68-.19,1.21-.32,2.2-.51,3.17-.17.89-.43,1.72-1.58,1.78-1.78.09-2.33-.21-2.78-1.61-.13-.39-.18-.81-.36-1.26-.25,1.25-.72,2.49-1.97,2.81-1.1.28-2.28.75-3.48.26-.36-.46-.61-.98-.78-1.54,1.01-.02,2.02-.04,3.03-.05.87,0,1.42-.39,1.6-1.26.38-1.78.67-3.57.7-5.41.02-1.02.08-2.06.22-3.09.08-.56.26-1.04.95-1,.64.03.77.51.8,1.03.11,2.15.22,4.3.31,6.44.04.88.13,1.75.35,2.61.08.31.22.67.55.48.35-.21,1,.14,1.08-.56.06-.48.15-.97.18-1.45.36-5.62.45-11.25.48-16.88,0-.77-.12-1.77.99-1.79,1.14-.01.85,1.01.88,1.71.2,4.69.34,9.37.61,14.06.08,1.38.22,2.78.53,4.15.14.64.42.84,1.06.82,1.77-.07,1.7.37,2-1.64.36-2.43.33-4.88.35-7.32.03-5.12.04-10.24.07-15.36,0-.61-.11-1.36.81-1.38.94-.02,1.04.68,1.05,1.43.02,6.65.18,13.3.4,19.95.04,1.16.23,2.32.59,3.44.19.59.52.9,1.21.85.7-.06.71-.53.78-1.01.47-3.28.55-6.58.54-9.89,0-.59.15-1.06.85-1.05.65,0,.91.41.91,1.02,0,.29.02.59.04.88.13,2.53.22,5.07.73,7.57.13.64.31,1.26.53,1.87.18.5.48.61.96.6.52,0,.63-.27.72-.71.51-2.52.64-5.08.75-7.64.38-8.51.12-17.02.21-25.52,0-.81-.03-1.63.13-2.44.11-.56.3-1.08.93-1.05.68.04.86.59.86,1.2,0,2.12.02,4.24,0,6.36-.11,7.99.15,15.98.26,23.97.02,1.68-.11,3.42.37,5.1.1.36.16.67.61.73.56.08.66-.33.73-.71.25-1.45.38-2.91.41-4.37.06-3.2.13-6.39.18-9.59,0-.64.17-1.15.87-1.16.69,0,.92.5.92,1.14-.03,3.43.21,6.84.38,10.26.05,1.11.18,2.21.56,3.26.11.3.26.6.43.87.25.39.68.34,1.06.31.42-.03.35-.43.4-.68.23-1.28.19-2.6.36-3.87.26-2.01.32-4.01.38-6.02.18-5.8.33-11.6.5-17.41,0-.26.01-.52.03-.78.03-.45.28-.74.71-.8.45-.07.72.22.92.59.16.31.12.64.12.96.07,3.91.03,7.83.23,11.74.21,4.02.33,8.04.71,12.05.1,1.1.24,2.18.42,3.27.15.86.65,1.01,1.39.96.72-.05,1.57.18,1.71-.93.35-2.7.71-5.41.66-8.14-.02-1.05.25-2.04.23-3.08-.03-1.86.1-3.71.14-5.57.01-.63.18-1.12.92-1.09.69.02.81.51.83,1.09.12,3.44.17,6.89.41,10.33.15,2.16.22,4.34.74,6.47.2.83.66,1,1.41.9.77-.1,1.56-.12,2.34-.18-.3.59-.53,1.23-1.07,1.65Z"/>
      </g>
      <text class="cls-11" transform="translate(6.81 140.48)"><tspan class="cls-9" x="0" y="0">Q</tspan><tspan class="cls-6" x="10.09" y="0">uantitative </tspan><tspan class="cls-9" x="78.55" y="0">P</tspan><tspan class="cls-6" x="87.2" y="0">roteomics </tspan><tspan class="cls-9" x="152.79" y="0">C</tspan><tspan class="cls-6" x="162.15" y="0">ore</tspan></text>
      <text class="cls-10" transform="translate(4.98 161.55)"><tspan class="cls-8" x="0" y="0">A</tspan><tspan x="7.94" y="0" xml:space="preserve"> Core Facility of CSI Singapore</tspan></text>
      <path class="cls-7" d="M0,146.41h195.95"/>
    </g>
  </g>
</svg>